<mxfile host="65bd71144e">
    <diagram id="3h-F4CYnpPOu7_1owd0l" name="Page-1">
        <mxGraphModel dx="1146" dy="773" grid="1" gridSize="10" guides="1" tooltips="1" connect="1" arrows="1" fold="1" page="1" pageScale="1" pageWidth="850" pageHeight="1100" math="0" shadow="0">
            <root>
                <mxCell id="0"/>
                <mxCell id="1" parent="0"/>
                <mxCell id="3" value="" style="shape=image;verticalLabelPosition=bottom;labelBackgroundColor=default;verticalAlign=top;aspect=fixed;imageAspect=0;image=data:image/png,iVBORw0KGgoAAAANSUhEUgAAAggAAAFjCAYAAABYJ/NnAAAAAXNSR0IArs4c6QAAIABJREFUeF7sfQu8Z2PV/zrnzJUZM8PIuDPu5JL7nVDuUoMoFSGiKP69KEWlotRLF10kpIQS5ZKELkrhLSq3FMb9fpuLYeac8/t/vvvM95w1a9Zae//2nBlD+/e+mpnf/u29n2c961nr+6xrx8yZM1siIq+++qpMnTpVuru7pbe3F1/N8eno6Cj+3WoVP+//4Hv7HS9G9+B62X3eMzs7O92x6fd54+P1wRh7Nic9L+93C5qG3nrVpSFo561Z2TpGPON97/GNfX5Gw7JnejxVZ/xVaGjHwvdENGx37FX4kM9cEDSMxj8v6+XRMNvLdWlY5b7XkoaRvGyHB+zeqrsv25GvVi5XpWFd/VCFHu3KADuWKu+owk9zKNHZ+rDKfZFeaXdeVXVzBwACHv7yyy9LT0+PLL744nbsBQAAaOjq6prrGu6BwOQL9Q+ya9OmTZNFF110rvvwHrzPe1c2DgAb3OONY+bMmcWwhg0bNtf4cd+QIUPm+B7voUL0njdr1iwZOnToXM/CFzNmzJDhw4cXNLEf7134DQGZdw+uYQzeOCIakk7euszLWmLeI0aMGJR5ZTQEWMXYPRpH95XREIP26Au+Hzly5Fz0LaMheNvyDd6B77FW3ru4z8D39oP7PJ7P5hXxE55NoO/xfETDjO+zffnKK68Ua+WNP9qXeFdEw+xdmBsOMqNHj55rz+K+15rn69IQMgp8A56yez2TbRHfZPschJsyZYostthileV59ryMR/EC7LFFFlmk8ru4j9pdS/I8eNGjIZ7n7ctMT0X6ATLK43m8F/e0O/YynoesHzVqlEvDSN5E8+JagtcssMA4wIvQYYXeIUCYPn16sWGXWGIJFyDozayJD2GjFbNGJiSUJRYG9fzzz8u4cePmUn54DwGCXWRcwwSs4sDvMQ5MWDMAJw8Bhg8UgUZpvA/E4If3UNBT6GlCkoAeQoDwwns8YWkFM+cHOulF1jTUCkfTI6MhaETBYTcEr3k05HrpsXPeuIZNQSbV9MC8tCLiNTI9FWlVGkKgYNx4puUB0F6/i9cxXw0C9H0YOz6cl6bvSy+9VAhKC8I0Db1reKZVvlR6fJdF6Xgm+GPs2LFz8RsFkXcPnqvBCOlIfvLAI9YKNAGga4eGGpzr+7j3OA49TggvvMdTblo+6OeBFhENtbC09ADhXnjhhTkOMhR4uE+PgXTiumie13wNvogAPWQHlJulYbSXyTeWTlR6oCPHoeeGgwV53o4FPM8xWhlg+YaMpcfh0fDZZ5+VJZdccg4+JJ00PTQN7XpFstLKxRdffLF/j+lrFvhY3UG9YvkwoiHoRJ5vl4YeD1A/aMDBOUNfQm9U4akyGmJ+1HveoQM0g76E3PB0oqc7cA/oofcD7y3jUcwNcn4ugIAbtQXBe6C3UbyFJLMRHHjKje+yDIB7PbTnAQQtLAcDIBBAWICgAUQZQIBAIYNqpo8EOr7nfC2dygCCR0OsI09TVQBCttHLAAKulwl6z0KT0RAAATxFBaxpSIDgbRQCBHutDCCMGTOmWF5P+Hq8nSk3AhUNmjVggjLl+zRY9XhDK74IFHunJTwXAAHjpMWnKg0JEDz6UgFrWuH3gw0QOG+PhhlA8MaO7zIepZLKAAItPlX2cgYsM5AFIBKB4kw+eACBc+ahzgMIzz33nIwfP34ugEBLsd0LGQ0jWcmHE4Tz33g2nxcpZg0eqgJVAgTPIlhGQzuOCIRrgEBQbA+XHk9lfEjwiN9kAAEHakvDSD9YgGDBeXTgx/eQvzwIzmFBAHPAgkAi8KGasesABG/zgUHnN0CgAI4sCCSitiDgOypYzNVaAkCb1wIgeBaJiIaDCRDIkNhgVS0IpLu1IFQFWQQIWBfQu6pyKwMI3ubTwmt+AQTOG/toQQMECMt2aNgOOOe8YBUZTAuCBxA070QWhPkFECAsLQ0jsF8FIHiuM21B8GRsdICIAALoFVkXMBcLELTcs67aMpBVBSAAFGu9Mq8AwaMhrWavFUCg3JtfAAH60tJwXgCCR8MGIJhAS0/ZNwBh7liTBiD0BelSkLbjYmgAQl9skD3FRDRsAMIAr4F3yk6/1rWjrX6e26cBCAP0jYBKHQvCGx4gAD1olKJRO01P/VJy9l/KAmi0f0TfC5+KFxDJU6cX5JEFcmTjALLEgnsBdl7AFgVUNPYswA4nxCgGIQoq0yjQ0je7FtGQ448CZbR5Sb8P30cBp4xB8ALsssBBnursvMoCPbWLQfMhxuEh34w3MhpGwVoYN+M47IkuiuMgePDmjGfgPrxPuxgoVKI1KeP5yCSpza2W9jaOQwMfWhC8OUdrqV0Mnnzw3IUUzFhLvpNCWQME+zz8GxYEbW7N6F5G38Hm+Wzv8eDhrZl2MbRDw4hvyL8Rf8CCYOPN6soNzAsfz1KM76M9lsns6Fo2r4zndTycJ2MjuRfpB1g5YeH06Ftn7Nk+j3ge32eyLRtHpM/xfehiwMsQCKHNadxgehNbn1BE3IxxvE1u32UXMhMckfLFM8A42h+rn2vv49yzsWfvQoAHgEiU8YHvLX21kLLXFiQNM2GJawBaUTSyDWykQrSCg/PLaAhzKwECBOctt9wiTz75ZLFsoAf5z55IIyFFxYPr1o2A51szvOZDe/LltWiD4V2co+f7BQ0tUPXu0aCIe09/x3F448M10Bdj9GIUuM4ePezY7Tgs7fF77C++xwMWGQ21Ull33XVlnXXWKehn56z3LILevEDP6B5Pbuh9HtGwKs/rPavf5clRxgZZOmUAIdqXmTwsA1n2cFFGD08x856y9aqSMRHJRI9HIxpmcr5MtmUHIw8EECB4cs97F2WQlRtVaWh5nvuB8pBxHZ5uboeGeB7kb3/cjc1isHEBXHzcGKGlLH0kOoUDIHhRmWUnQYynKmrjokAo4+MJZhuBT8JHyAzPjO7BvbQgeJkb0em3DN3iuR7giGiYCYfsFJPNmcLSWhDwrmheuMcbexkNdZDiU089Jd/85jeLEyNPjVaYWCDZ7r+5udq5zxtDlXHVeZc3rrJ3eeBEP6fs/rLrdkzevMqewf2Je++++25ZeeWV5aijjiqADa558T94L4SltiDwOZkVBte8QM/ISoT34BqzGLSQJc9H5vtsHJEcJUBoJ0Uv23ueQieoxJ9ekCLWITt1enKPsiaS83iXF+fD8UWp6dE4KL+8+wgQmKKneTSSsdk4Ivri+7oWBE9WUsd6PM85UNZbPiQY8aw3zOyzYDSbM55HgFAA5yppjplSKRtEBB4yFwNRlncaiTZYNA4QlBHdTHPUjOOZW8n0kWLG82xgI58JgKCzGPS7IrN6XYBQh4aZUCkbB4RYOy4GMFsE6CIzN+iFzQfhiywGAIQf//jHstdee8mqq64qLWkJ/t+iYk9h8TsqEP47Up7WuqCf+Xq4x9KA8y5T1K/13DC+X//61/LII4/IYYcdFgIELSwtQNCg2BOIEajPeL6OWy0TvplrSlvN7Dpmyi0LRIyACgGCdjFokOUp3wzURwcBzqNdF0MGwDIalrkYwBce6MxAYiSzmeZo04/xDqb2WqWd0TDTsaBjZHHPXAzasmcPB9mhDrzYZDHMplgTpDhQHZPMFtVweC2yGJ544gn5yU9+InvuuWcBEF6ZOVNmzOiLKelTBB0iHS0ZMWy4jBwxd90EK2ybfy9cFKBiAkB4+OGHC4BQpuybLIa+NYwUKWmagYcmi2FOGg5GmqNeE+95XC+veFl2mMJzeRjk2tJipwGCBca6DoK+loEsPK9Jc1TlohuA8PoCCPc98IhMfvRxGbXIIrMNCS2Z1d0tSy2xhKy12oqlloWFSz02o2kAQh8PNGmOA3uBijQqlMTYGrt7mjTHObNfGoCgUha9SopEdE0dhIGt5KFHbV70zHC4+7VKc7QWhH/c8x95+dWZsuqybxLETsOI8NyUl2XWzG5Zd82J/RO1aLpRxQsnBRqA0AAEzxSvYxBs4F0DEAZ6GS1QCwJeRt+eNUlgI3uRnvSPeZHAHLy9hmfRp+LFGXjvygI5Ir8fhQ+QFP6ugxR5LSsT7AXeZH4kbPUsSDHydUV0wvOya7pctRb/DPKKUkW9OA7S0MaMaPAAOuosBm3K9EqOcs08v1/kA+NpCvfgmcheuPjii/tdDP+45/6iXPEyS/bVkYcxaPqMWdLqHFIAhCgaeUGrx57eHulo9Yh0oKYEIic6BN05Wh0incV3c396e1ESeqCHR/Fb6SgsJZ2zm6Ut6HnM7/dpgPDQQw/JoYce2p/FEAUpIujNZjFEbgnyYMTzUUQ8954XpEjAHAUp8pn4nZWjUXwVYxBskGK0L3n48WSK3rNeFVPcC9lRNQYh2uccAyPpszRH9s7Q9CAIsHTCv6NrZUGKoIdXXjyL4/B4oGzOXpCiprtXbIo8FfX+wf2eexf3ITDXq/ia6YeIhtwrttovx5cGKdocbTKBVtokBB8YTUqnYFhBQz+ifhbf5TGMZkbvfYOZ5gjCYezeOMDgDP7whCeCVxAM6aFiLRz0vPUGs/TgOLzNl9GQ62XHqAWpvVaWClQ1zZF000DFvqsszRGbCMISQYqXXHJJf5Di3/55n9xy263y59/9Rnp6W9LZIbLK6mvLnnu/U96yzmoLDUCY1TNTOqWvQFABD5Dt0dEpQwRA2wcIfX7IHnl5+jTpHLaoLDJ8oOnMG9UiQn6/9tprBQDhkEMOSZvDgQ46opt8RSAQKSkqUv6ePtxMRjFzx0vtJcD15FedvQcgQlBs90rZGD15mO1zzF1XYdXv0+CmbM+ShmW095prlekOu156nSNQx4OgF0BeRsPBSHPkGMvkqF6vqjQkKLb8pt/FZ+lxRLyB53iHetApTXP0mjXNjyyGKCqzzukXBIkiNnEty2KIMhLKokO9QBO8KyuU1G4WAzc5nhulOdqCMfhthrKztaybxVBWeCcKeow6YuosBlgQLrroon6A8H//+Jc89viTsvQSo/uO4x0tmT7jVVl09GKy8fprLTQA4Zoff0P++sDz0mp1yvCRo2SDLd8qO2z+ZumCVaBzzu6h3NDdvT3SM2O6XH/NlTJ6lbfIlhusJR0drcKK8N8AEHQWg3fiJ52iQknR6Rz7qE6K8bxkMXip2Flw2LwUSoqyDjIrXVQoKbJyZjQsy2KAcvMOnllKZTSOjIZl9W6igl1ZFkMk27wsBvJnlsUQrQn1XnTYrpPFUJZh6PEo0xzdLAZcbBcgRItMhBghs7qVFCPBUZbmCAb3KilGDDAvAGGw0xw9VwfoO9iVFAc75Stj+qppjgAIOovh1tvvkjvu/FeRsQDVCfN7T2+vrLbScrLlxuvO1bHRs/IsiO+Ofcc6cqtsKR/YfRN59L7b5ZqbJ8sF114lqw59Re79150yvWNx2WzdVeXhf98lHaOXkuUnLCGPPXCXvDBrpEx/+kFZZJlVZZ2VV5DH7v+7PPzcLFlznTVlxjOPSfeYZWXCIiIPTX5YllpuJRk68wWZ/FyvrLLcGLnvnrvl+e7hsumG68vIoV3S5bQcXxBzb+cd2sXgZTF4z6pTSTEDCFEuPmRAu6m9dAl4z8zA+bwABE/Qcxx1KilGp84sNS6SUVi/dgEC7imrg+DNqyzNMUq5z3RYluYYFcTLgM/CDhDAo00WQ5PF4LYpfT2kOc545RV5dVaf+6dL+to44wOBMXz4iLm6aLajrAbzt0fvupY8ssHxctkXDpTH//Zrefu+n5Cv/uYv8tTPT5YLr79fWlMmy5s/eJa8+eHz5S+vrCX/+4XD5H0bribLvv/bMua+y2TJtx4kG3T+Xd77qYtkly3Wks43rStLv/J3+cfo3eTkPcfI+/Y/Vv7fdy+QUf/4vpx7/2qy+8rPyDW3Pilvaj0hk4dvL9dedoosKkMHc0rz5VllAMGradCkOfYtBU/1TS+GPno0WQxNFkN/+VhKKwqYJothzmZC9NNZn6xnotPBNQt7FoO0egurAWL2iiwGgD1U/EI9hOK/OQPD5otWq/DQo3ZbRa5+9E2yyepLy7/uulvW2OVg+e4ph8rhu24qS2z9QVlr5FNy5g0vyc9P30tOPfOXcuikLeTg48+VK6//pVx6+sdlme3fKXf/8Ety/xI7y35bLCG/+vM9ss+mS8kxP35Uzj5iHfnuj26SHfbdTyb/9FRZ9aCzZfTDV8kfH5wp2265qaz25o1l203WkeFD/FiHCsNfYD9pAEIfqZs0xwGWI/Bp0hwHaLJQ1EF4o7oYYL4D01WtpIhlaVwMc+qIOv7Y+eFiqKK5FgZ//Ud3W13umvAe+cz+68k53zlXVt35UPl/+28th+25rYzaZH/ZYvXF5fGXl5BD9ttYvnDSyfLE45Nl1trvk4tOniSfP+5omfDWd8q9F31V7hy+hRw1aUN56iWRvbadKDu/9UDZfM/t5S0bbCb33XWLXH/lbfKTW2+Wrgdvlb/981/yyD1/lGv+2SGXXXWRrDT69QkQMlM81n+wXQyZ6Rmn0naqh2am/WxedSspQk5FLoYFGYPwRnUx1IlBeMO6GMBsum+3FsaMerQCOoo2pQksOtFlzZqyU6AXZQvmZDSnp0Ci4BXcp1NBeC++z7IYvHt4b5TFgOtRhLCOym0nqyOiIWkfKUpvzcpomEV0R2sSZTGUvQvCklkMiEG49NJL5R3veEdRSXFhUP5VQMqRu60iT617ivzk1HfJXy4/V47+6i/kG+edJ5Ov/ZZcdMM9suiiw2W7/Y+XD+0yUc752ily6plXyDevvUl2W22kfPa4o2Wp7Q+U9Yb8R0746iWy7pvXkJXX21YOe9/ecup7NpJbezaRc757inzzuCPldy+tJf935efkuovPl2tuvldk6pPy5LA15PwfnCETRgykTFYZ82vxG53FMHny5CLNMdp7HJ/XuKYskj6Lis/2SZS5w4BIu1+zfZ7tyywGIcssiPYeA5yjrI4sBqxqJkgV/YDfRKWWB5uGWZBiXRpGfOM1ayI9sneV6cuIF6NmTZFe5iE3CnrM9LmOu5mrFwOi4pn+QObPUmbKUjoiZJllMWByHpNmJ9IsbS5q94x5RTXa8S4vDQRjq9qLgYtNOkZjzGhIYRmlOXpZDNl6ZaeYsrVsN2ArG3sWpKhPU0hz1FkMrxeAMG3K89LqWkQWGdElPb3dMn3aDBm26CIypKdHXnjxRenpEFls7HhZZOgQefXVaTLtlR4ZvdgoGdbRIS+//Ip0DumSYV1dMnXKCzJthsjYcaNl5Mjh8ur0qdKDzIhRw2TWy68WbpZRIxaRV2bNkCnPTZGezk4ZPXa0jB45Kmy/+1oAgeidGiBUDVKMAAIVjn1Xth+qZu7YvZxFiON93n7NAhjLghSjTIXMghDRA/TxshioVLzA8jLLSCSzNUCwNCyTN1GwZJR1UJbFkAWjttPuGXPKAELdeWXrRZ73aBjp2DqpohhD5TRHDoZ+a5qytJDW5Rz1yZ8MxcHre3BNI1h9DZPiBrObDJsZ17yiPFkMAgECXQwa9dtSy5E/PrtHCyTk/OI9ZG69oDYiltfwvTZz6nu0q6MqDQkCPNMpnofrHg0pLKOGJtrcqukRFZti+hP5pioNdTdHm+b4egEIxdw7UCIJcRFFtIR0yOz4idnFkBA/UTSf6ujqK4fU6iiAAxwD+GVHq0NaHd398RV4AuNrW9IrHdJV/K6zg92rOqXV3Su9QzplSMsH2QsTONBWRt2LQR8ELM/jHq+bowYBVojSp61TkzVot3XzSSPshzlOU7OLVfFgofdQFVnJvWflKJ6nAYLlcS0f9DXQiW4ESyet0D0aet0cMW9aRyl79SER49A1BiJZaXlMF/mhjuCaaKVtZSWDL61+wLw9GmqAUJWGehxa33BulNmWpyCjwE+RHNU8VYWG5Pko64RF8UhbjMfqWK1/eZDVhbeq8CjWv2nW1GQxvG6zGF4vAGFhU8QL63goPJtmTTOKQwKUTrvKrcli6OPuJouhyWJoshiUpNfV0OzJgn6wN1oWQwMQFlZVX29cDUDoo1uTxTDAP9a64FkQvCJrDUBoAEIDEBqAUE8TNXctlBRoAEIDEJpmTX1Zc9gLmYth8cUXL36j3TSRCxq/mS/dHDEI7efA3zl461fHNZaVJMqbF/85/YheDAKv0f9kfUJeDAKJyVLLrKm+IGIQGPQyv2MQdFAp1gNzI628xkuebzLzJWpfLejIEpxVYhCsX61qDAIyQbBRYG5lJcU99thDVllllbmCvywfWN4lTbR21JtMf+/5aq1fT8+h6rUFdY83xyr0qEPDKvdo2ke01QABvRgOP/zwOXoxeO/xGg2R57VPW/t+4Vv1YhAYUOYFFeoYBMokzimKJ8ritbIYBFoQ4OO3tNKBlJoe3l7WNGdQtEfDZ599VpZccsl+ltH7XLssqtCQwchljYbwLIyF/nMbtK3HqVMF24lBAI0RA1aVhiCAjbvQNIxiECCjUElRK3Qdt4DvvTiOiA/Jv2UxCJaGNiBSzzuKD8x4NI1BwMsWW2yxYoN6JusygGDNv0Q3ZApyI56P8pt4l92YDGyzUaVa8XndsOxm0O+CYsPH6+YYBSkyiyEKXIl6MZBxeJ9lei/QkwLAgiyCM/zp0YM0tPRlkKLXUSwTKpmwxEbBf143Ry9IEWPiWmrBoQVR1ItBd7ZDFsMFF1wgm266qSy//PJz+Wet8KPwiRRSdoyeXwBBCxytaCx4ycZc9Zrm+yrgR4McDZysDIhATgZ+qgAE/uZPf/pTERl+xBFH9AOEqJ8BAoF1bX8tGzKe9wLKMp5nai+Dm6vsZe4vT1biWiSnEKSI59sYBN7jBVJGz8tkJegN+QDZoTOguI5ehoBWfB7I8mSl5j2kOZZ1c7Rgmwc+D4RrYGEVIsZvuzlqGnq6yOOBaM7kV8go0MIDCN4aR3JPAzD8vQxkWXpoHdsODXWGgwVg7GBa0GrmzJktDAyKDTfhhBgBBBDDXiuzIEQNMhiJnIERD3DYCHwuWLQoeIZNc9RCrSpA0MIzS9FjEw8vi4ERx3bOEUAgqowAQhkNPdoTPVrlTMHmWR0IVKJ2zxlAwHPtJsKalKU5MmDr6aeflrPOOqto74sTD2MrLG9QKEbpsdw8uO+OO+4oFMzKK688R2dOq4S5Tp5yjlKSvNROPgd/emm1XGdPOESporwnSs/KTJZRGhZpaIUolYqmoVYAUZQ97/OEMvctxo/33n333QUAPProo/ubjXnCF8+yaY4RQNDCF3O2AAHPKktzhOyIAAKep+UC5xQJX31yszyluzla3o7omwEOb5/rsdo6CKQhxt6OBSE6CGj+AKDrb/6jMkE0GNEyUc/LKr2Ihvgd5by1wuBaGQ0jABbt16zdc2aRsMWrOG+dueMdYngYtIBegxtPN3sHUsp6L+0Tz0sBgm7WREaNTGMkfJSqogWR3RB10hw5jqppjtwQmDA+VdMcKXwxZgrtDFTYzaCbNelTx8KS5gg6RilfENjRif+1cjFceOGFsuOOO8rEiRP7gYUHHj0ghe+wKfF7KtPTTjtNVlttNZk0aVJxksLpJjtZ6GsUpNZUSOWgFbpeewpSdPu0p1+O0YtGj9KfMuWA5+nGNVb4Epx5NMRvI8ERXcOcIJTt+K180PTg+LmXb7jhBoHZu4qLoWovBg0QItOuJ8y5n+clzTErE+ytc900R6vQyYdUAp6yx288F0N2D9crctNoWWkVXJ00xyouBqtTNM+3C7IsQCDv1HExZKmiHh9SNuCdZS4G0hb3cL0o2yyYquJi8GRA06ypSXN83aY5ZsotAwi4xs13yimnyJprrin7779/v6vLbi4KRE/QM//cupm4YfGsSMlGAMEKIg04IquZdw8FiG5x3i5AqFo/g+/CCZH+WE8wZzQkQGjSHJs0R/JTtve8Q6LmeS8GoY4FoQ5A4J6NLAgeyOLYM4sffrNQ9GKAIIIFwZrNtAWhqgCgsPSEDSYcpeiRUFWFlF5IHRiima0dCwLuow/fQ8V4n3VLtGtBaAfd0sfkmZ//G9McG4DQx23gwwYgDNAiK64UCWatiLIgRet2zWhPE3hmQfBib5o0xwEp2gAEa4NZSAAClJHnYsiiHssqKdpofgq3BeFi4LsWdCXFhd3FYE+kBFn0x3qVFHENa83GNdrlMr8rKf7kJz+RPffcs+jFYGMXCLYwPp7crTXAXvvsZz8ra6yxRmFB0HXircnSM3MW7qdWr8zq7pHhQ4dIR8dAv4PMgkDXhBdgxxOOrnpG+hKsRm41fY8WKzonXNODAFdbP7QrkW4ES8PIzYjfwyoyGBYEZDF86EMfKgA6x2HXBOPyXAzFuvT2zmG5IQ0z8/j8cjF4vt+MhgvCxUB5yAPa+PHj+1mG/JnFILweKikuSAsC3GrtVlKMXF2RK5ELVKeSYhUXg7fPQxcDiIs0R3vCpeDzzKZaiGoBxQ1L/619ZtaLAfd6wVeZGSaqjY4x1enFwJO7d7Io68WgSy1rmkRjLAuUwjM8etShYRSkiHdk48A1r7MdT1NeVkcWeJMFKYJBbZqjBgieUszWC9c0DSOAYPlXB1Fpi1SrhRK3s2To0DlT0vAbvsuz+IBWAAjI3rHviqLbCRA832TG89ofa88juObRMFuvKDMGz9YAwb4rkg+aD0EXuhgsQJj7LJV3c/T2CQGCd3Kvw/MEdF7MRSYrMxqW9WKIgr0jvuE4Ip+214shG3tGw4znQSvE+ei4G65pGe09fZPRsKwXQ0RDb59zjDZujN+z1LJH30wn2iBFPi/b5wTFXt+djPaRfMjWGc8LSy3jIoQXBushdwZG6GskLtFpdJ8ViDwFYLBV7tGEjCLVvYIbuA+Mg/fYNEe8l1HxWgFwnhZdcaz2Hj03dnPknPTceJ+dM+nt0ZenIA+01aWhXjO7Lt6cqfi8LIYyGhLsWUGf0dCmOaKb4+67717UQahDQ8ubX/jCF2T11VeXffbZp7At5vVjAAAgAElEQVQgsINpFT7saPXILBkqQ2QWYJvI7KhszT8RDfG9BQjkBW8fcDwRrew9msYUlqydX4UPNa95z454kQAhEujefiVPEUj95je/ETRrOuSQQ+ZycXL9SNeq3Rz1HNrhea3AQEebxYDrtFYwKJX05Umc2RnevrX8gX9rnrf3ZHul3WukSdbNkYc6KxM9Gkb8q3kxSnPUe9nSJNrnlhf0e7IshjI62TmX6Rtmq0WpuINNQ/J8JCe8vcn1amcvEyDAUlzMwaY5ahdDFXSToRQqPk9AZAwaWRAylBWdijAHoHM8kxvdClLv9JudSLPTLxQAXAzeCTJCo2UWBCzUYNFwfp2mvNPZvFgQQD8oNxZKilwMXMsqFgSuiQ1SBEDo7Zklzz39pPQOHyNvGjdaZs18VZ54/HEZO36CLDZqZD/LFM2VervlT9deJqNW30Y2WHXZ2dcAdDulu7unwAwuiG31yvSp02T0YotJ98tT5N8PPSkrTFxZpj7zmDz74jQZMmSojBw1WiYstZQMHzakr81Tb2/xX7sWBB2kaMFZxL9VLAjeOOpYECwf2mZN0ZwxF89ylp0s54XnITuYoqfpGO3l7OSeraXuYGrXK5IPdU/8eP7CYkHwQGUVK4zHh5nVrA4NQadorwAg2GZNXLdMJ2YWBMw7qoMQ6ctM7pVZEDwaphYEMHATpNgEKUbgpmqaI1E+FY5X2CoL9GQ3RwCEJ554QrwYBHvKsm4ELWQZg8A6HnAxbLjhhkVcA2MQXn3xcfn6F0+SGWvsIycctIs898h9ctIJJ8peH/qkbLHO0jJs0SVlxotPytBRY2Xc6FFy/pePk3FbHSJ7bbGqPPf0MzJr+KIyqrNHeoeMFJk1QzqHj5JRI4bJlCkvyNARi8qIEcPlhScfkWdfelVWmriSPP/XX8pGk06Si268Xq47/aNy65PdsuJSS8gr3d2y66QPyj57bi+LDu3qBwhe3YomSLFvlSFYNbixliACBC/rpEoMQhOk2FedNUrtzQKpsT50MVgLVUR7vqvdQM+mF0PTi6HpxaA0X5PFMECMqgABiuTUU08t6ipsueWWAwDh+cfktJM+Lq+s/V455cN7yXMP3S0f/+jHZNLRJ8o9vzxXpi+xrrz6/GTpHr2ifPLYD8sPT36/LPH2/5E3D39UfnjZb2X5lZeXxx5+SLbZaz+ZfvdNMmvVXeT9O64u3/vWN2SVLfeQZWb8S86+7FZZavxwWWGtLWSbCS/K+rudJFfd8We56nPHyPK7vU/et9OGctuNV8g3f/Q7+dI3vy2brL5MAxAcF07VOggEDw1AmFNxgB623TPdJnSdtAOyGoAwIIc0uLFVeCM+xN1ZfB2uN2mOs2lMQjVpjn0no2zzNQChfYAAmn7+85+Xt771rbLVVlv1xwS8OhsgzFj7vfK5D+8pzzx0rxz7kWNk32OOl8s+9SGZsd3/yEl7LCMnnP4DOf1//1e+8f51ZfF3fVNGPfRreW6ZHeVTH3q7HPXOt8umh35Gptx8qXSve5gc/76N5FMfOVzW332S3HL+12Xa+vvKzit2ya9vuVM+8PZ15F2HfEWuueM2ufzzH5W19/uIHPGuHeXFRyfLwQd/QI74zNmyx7brNQChAQilVQC9wkvYGVkAYwMQBqxPUd0C/KKdQkkEpG/YOghQRl4MAk14kek5iubNYhDqRuBHfpo6WQxY0CgjoW4MAvyxURYDN2w7PkYGQXm0r0PDzEdaFgsBfyzTHKv4YzOfduTDxXNtFsNFF10ke+21V5HmGN3XTgwCAMJcFoQXHpevfOY4eXbl3eW0ow6QxyffKccec6y897hPys8/eYiMP+Q8OeGtI+Wo48+Q4089Xb598Pqy2B5fka77rpVxbz1UTjx4Zzl6721l5b2Plqk3/Uymr3+QfPbADeXYj3xYNnrb7nL5t/5Xpk9YX9Zedowstuya8o61h8gO7/2iXH37rfLLzx0ta737KPnQO7aTx+69WQ4/6vPyyTPPke02WLnfhO6tfxQtTd8paOLF3UQ0nF8xCFn0ON1P1157rTzyyCNy2GGHpXEXmJsXpFg3BiHjmyhzRysOu5frxiDUzWKIIvCzcQx2DAJlVBSMmmUxDHYMAsaig9G5PlkMAgMYrdsyW+eyLIYs66TdeC2MI5L1CzQGAS/zUikygJAJqWzwZcotqkufAQRLeGYFRGmOFKRRih6ue0yfKTcABF0HQQuQCCCATlFN/WzzRTTkekUpX3hfO+k5NIEtKICgA7bQrAkAgUGKmXKL1ssqPmQx7LDDDrLFFlv0uxha3dPkFxd+S771s9vlPQfsLo/f9Re57T8z5OQvniCnv3cXmXDIOfKJ7cfIUcefJid+8XQ5+4MbylKTzpblp/xJbnxiETl80tbyxU8eL7t97DQZ9e9fy6V3dckxB2wi3/rmefLuIz8mz/7hYrmld205YNuVpXfo4rLOok/KJu/8tFz911vll6d+SKYu8WbZYt0V5JYbr5FRa+winznxSFlykaFz+NY9YBmlsemUL52Vkwm9jNcy8MAGZd6ejXjbKjAEKQIgHHrooemcI4CQyahMWWZ7D/uVmTuWhtFerjsO3YvBrnNVGur76gAEWh08pa0tEnZ8ZQBB1xqpIg8pb6JU4Uh+ZWmOZQeISP5mQYosL67nBD6x/YmqzDnjm4jnSado7BmPRjTEWkL+8iA4VxYDmuJ4qFj7phhsUjZAWhA8ZJYBhEjQ1wUqGUCwRMQ7mLoXpb5kAIFpjl7KJRfFCpv5ARA4Dy/NimtZVRBxnUFH3c1Ro/Mo3Sday4h58XswKJ4HwIcshosvvljQ7hkWhOi+MuWmx+EBBJxy/nD9NXLDddfKXf95REaOWUo22nwr2XCd5eX6yy6WxdbaUTZYfqj89o9/lU222lruuO4iGbXWzrLSotPk+hv/LKuut7H855arZOVdPy4bjHpKfvLTa2TE+OVk8cVGyMqrrysTFpkqV15zk0zv6ZL1NtpM1l66Sy75xc2y53v2lwdvuVbuvP/pImVyyeVWkm222UZ23GYzWX655frbd2thSf7h6XGuDTvbNIrr3mkqi8AH33gpehl9Bxsg1BGWZYrZ8rymYSRgQb8qPG/3M0+k3INcnwy4ZxaEDCBEe7mMhl5UfBkNrVLhvMsAAjK72M1R86rmX08mRgAhOvGXAYRsndtVslmaYybP7Z7lvEF77j1vP3tWM6t/B4OGpQCh3TTHMrN0RHhWhvJyfkko7xom0G7KF0ste+2eo25dmXskS3OMLAgMUMmKtXiAJEO+EQ15esgKjUQWBM80xtODLZREoOil7lDY4F5vo9cplIQ6CN56caMQBEQZDhyHdjGwS9rjjz9eZEtMnzZNenqRqtg1UOKgQ6SjJUhwnP1h/QxcEGn19MrW22wjV5z9GZGNDpF1Fn9VnnryKZHOLlRKmH1fS1q9vfLqzFlFRgNu7JCWtIpHdBTXihfOjifbfbfdZaONNirel/F81DJbC0urqMoKJbVbpCyrg5CZdjXfwMWAOghwMZB3PB7FNXYx1YK0zD2CfRTtvejEjHtoNbM0LEsha3fvRe2eMUeeSLNDh6YF92V0SsRvBzvNMUrFxrvadTFQ3rRLQ6Y52nbPfF4m2yIe8MA06Ot1c8R7Mtmb6YCMf/Hc6ECd6d8yHo0OdZibWwcBg2zSHJs0xzdymiM22+c+97m5YhCI4HGdAEP7dzXowPdM+dLWtGlTXpCOocNl2LCRMmzIAMDgb6jcUK1UnyqpBKqWWqYgatIc+6hIQIE/raDnukYpek2a4wC0iOI4ymjIQ0yUw9+kOfbxKAFCVHcH17NujpAblCXaAkZwZg9GutSyvoZ1jgAzvm+6OTbdHP+ruzlGAKHfPqBaqdpcbG50WjI0QChKMPe2pEN6ZeiQYf1AQ5/ocNrWbjxei6KlKbSbOggDYKBJcxyghZepoC17UQB5k8UwJw2xz21aYgbc6Vbzarz812UxUEi1a9rPzB+DXUmxLIsBc6haSZEnkshsVtaLIQpSXFCVFOuaubL1qhPRDTSKz2C4GBiDQMWcFUrSVgCaF/F7jAO0QR0Epjl6pxvPVMj3WYCgTbsi6NHQU7gKhnShkVOfv4ACGzxYtd2zvgf3eQAhSmPDO3XRGDyLcQW4lnXE5Cnc0hBr6Z1w8F27zZr0aYrzoothXnox6DgpvS6ZaXeweT7be9nJrW4lRc+9p/l3MHsxlLn3IgtCFqSYmfY9cJPRsKySImXAnHu2Lx20HRcD7s9iEOZHJcUFlcUA+qbNmtqNQcgU87wAhCiLIfLHZotcJ4sh8/2XAYSsWVO7DWMyJRuBrLpCqiyi22vWpFG23XiDBRBsFkO7nQjBGwR7BAjIYkAdhDrdHLXCsUAF7yIosgAB9BgMC0JkddD0rwIQtMUEf8f4tJLVc9Pz0uBhMAACnjEvzZq0hSZKm4sU6fwCCJF/NzLtvtYAATTEekdyFNczgLAgYxAiGpYBhMFs1uQBhCo0jPiwbgxCpqfqxCDgeWmzJpo/tXDgiZonMCs4bIQ1ESw3rpcqWCeLISNiXYAQZTFYwmvfTxaBn9VBoE+bjEQBrd9lrzFC2AtgzNIc+RyrwAgeojrcWaRvlOaYZYLoEyn5goIoOt1oYcksBjRrslkM1q+G53u8RqDCa6eddppst912c6Q5enSKAlXLaOhZTXhq9to9Z4LZ4/kyhUgLQmQ1o+CwAIHvioIUSV9LK8wJgWEe+CVvW/7VNMTfr7vuuv4gxTJhaSO6SQ/L8/ye4EfzG3/LNbZzouUpAsXkeS0XyN+MsrdWGMpRj77zksUQpTMT7Fngjn/bwwXnYTMEqtCQvB3VQYgsCPpAouWeplM7NKyTxZCtCXnAk1MZQPAOWnrPenxYRsMoi0Hzr9Ud1Int0LASQNBMoZW924BmdudHb4Nlm69MuXnvyoho00fsaQr3RgU0qnbk4jMzgFCW8hVZRjwAgPcRILQDsjI6Zdey9QJ9o5SviPbZuzIa2joISEsE3bwUXL3O5EGsp0dnBvb87ne/k4kTJ8ryyy9fnJiiTABrAdAKlYLU7hVPGPO9nrUleoc9pXvPzb7LlKwVJPY5erzeNcoEXotOKozM5+80rfgO/vnAAw/ImmuuKSeeeGJ/QFekcKp2c9TvjZTlYPM892wkv6Jx1KmDkL2r7Frm4o3onu1zq4Q030QAQQMpy2fRNSr0KJAaY/TkfGYdzcYRzZlZDO3U/iBQjdI3Mbd2eJ5rHOmOTCdGc8b3YR0EXGyyGJoshoUti+Gss86SFVdcUSZMmFCYwT2LFYEUNg2AhO7AZ0HWueeeKxtvvLGsv/76hS8RMSORBSE6nWWmQowhAtN682mhGAGmMqtZZIWB0qawtICgSiVFe08mmFlVzpr3H3vssTnaqVurpF7L22+/vWg1f9xxx/VnJUTugiZIsY9zsCZNkOLALmqaNTXNmppmTUqr/Lf0Yqgag6DNo1oZ6VgICFUdpIjTDdo9e5/IbYX34FqUroRnRacEBEV6lpBMaeN9Fghgfqxn4I0988eyk6a1fuA93rt4UomuwcWAuJuy6pzaWkLl5gUpajDiAbcGIDQAwbP6NQChAQgNQGgAQr9itrEwUCxUzPoErwPsCBAQpKi7OVozHZQhT7j6Gt0mXjYFrmkwYt0HeCaU6bymOVKxV6mDAHOrNl3i77ZIFceZBSnyGkGAnhviblB2Vtdx0CdcBodZgKBTRXUMQgMQ5hT0oJOlYWNBGDoXLm4AwnwGCBACuogLN3R2ssiqfNG/55lbs0qK9NPZ0wOFlIceo+pwEDbMYvDSHL2MBAr6qPJWVgUQCgAm68hMH2UxYK72HgpKXBssGlLxtZNNQXpEAVsRPbSytLu5rJIiaAGlgyBFVDhkL4Y677LjQCVFZjGwkqJ3UqXf0tI+syAwY8JbS9DRBimW+fExBtzXboox1grjrJraq60E7Vaw0wDBrnOUJaBpiPnZLAbPWkG3hxe/RBkVjR10bIfnMQ+MHbEB2l2l18t7HvdKuzSE6wl8BquU5cWIhpGLQYMHLz0Wz3/22Wdl/PjxcyxX9rxMbmT7HC9ot5Ji2TgiS1ZZJcVIxtJS6MlYK28IzqNKipgvCxR5ciPiw8yViGdGMSM6wN3uvXYrcDJGgmmOxcFo5syZLUwavli8zItBKAMIdbo50jxuNwMJ5fl+644jAwiewilTzAs6zTECCGUuhsESlhR67QrLwQIIupvjYAEE1EHYeuut+4WX53PXFgS9+eq4GChYIpdGFOhXh+cppDD+dgECrQ3evixzMXj8lik3bUGokubINfKEZSY3rDvDxn5kJXjbBcXzAyBkgr7dOgikYQQQIp7HfVGaY5lyqwMQsr0X8SFBsVdqOaIhgWC7dRB07Q9PMUc60Vsv7DUeBKJaEguq1DLGkQIEnH4pzDjxskCpiLjagmCfCUGJBh4RQIh8uLQu2EXJIjahVPB+nEi9xczSszxUGfmL8WycBPAeex8FR5ReGIEAzJc+7ao0JMCJUhajgLiMhrgGOnoKp06AXUZDbHSMHeuCbo4//elPZbfddisyDzJfPegUBQdqGp5++ulFmuPmm28eBikSTbdLQ/K85Wue0HUREs2LEe21ud07nUdBilgTPBO8aMFPlSBF+y49DmYe8DfgeZx8243o1qmC119/vTz66KNy8MEHp1kMtMIgoFF/8D3BjTd20KJOai953tIw4vlsvTIakuc9xZKlcNfhG9AnygSJ5GsGsiijogh8HD69NvFZJlNWj0FbmLVMBF/jWjtWmLr7HDwP+RTF3UR9RCI+zPgXY8waXmUyKgr0jWiI73EQhJx3LQheAFV2iolOCGWEByLCu+a3BQHj8AolkbE8VFxmQcjM47qboxYqVU4x1g9OGkbgIaJhBhDqAhWsM1vfUgCThh4q5hiomK3Qzmjo1UFAJcXBataEtElYEBiDwE5zva2eolcS/kMNyN4euH1m90/q6JVW0XoJV1vSO2uWdA0ZUkyr+H3HEOkSKGUUnGlJZ0eXdHe0pKvVIR0dnf0dQnHy0MqtjIakYzuCCGOKmjVVOQm2a71jTni7FgTNN2z3fMghhxQ0zRSVF+iZHWLK3GrRAQfCnKm9VUEW91e7LgbWQbBxHKBFZoXxFA55KlNGNtAT7ykDN5G1IjNz47lMc/RAVkT7LEA4czHgGkBxVTcN6duOBQHzANCHpcJzJWZWmCz7Cc+NLAhRHYRM/9YplAT6Nc2aml4MTS+GHXecI0ix1T1NLj33O/K9H10tnSNHFF0Wd3znwXLkwe+SxYZ2SG9Hr/S2AAIQE4CKcz3SNawPMHS2OqSnQ2RIC6BCinufn/wXOe5jn5V9P/1t2WOzVaSro69SYdVSy1pgY9M2vRj6ICaEaJPFMECLJs1x4OjRBCnO5yBFCKKmDkJTB2Fhq4PgBSl6AawQFd7pl1kMPIV7zZpk1lT54fd/IGNW3Uj23GkLefHJyfK973xfNn3HQbLKsBfltnsfkd6uLlln3Q3ksTvvkvV32UlaT0+Wux54VjbebFO54zc/k4k7vFuWGtEtHd0vyg9+cLW8+uRfZPzbjpMDtl69GFcDEAYEGOM4CHwYg6DbPTd1EPqUX5PFMMA3WaB6AxDmM0BgkKI1B1sXgxbOuqVkYW5VDWoYBW5N5zgF6EAjfQ/fBeGgfVo0f9nTlHYVQAF4vn8bpKj9VrimK29p85yNeuU15pFbOtFXVKVZk6ahFgAeDeli0PfUpSFdHTqHX5u5Qb8IIGDe9CVqGlp6aBpiPra0KE3gXkwIrsHEhTFgjFkWg6aHTmXUNKQJUbs6kMWw41wWhCly/nfOlsdeHCbrr7+6TH3+cbln8pOyz757yTc+/2WZdPQnpPPpu+Xvk6dL7+Q/ysoHninLPnS+nP+nV+SYw/aSzx9/mnzjkgtl8SG9InAtdHbKz77yUend8hh599ar9bkhijTH6TJu7EDdBc2/Vds9R/doftQBW5l7R9PQBkrZazTtWj6MmjWR16I0R+tiePjhhwUAQbsLvOySqhYE0qmM562sIb0wvqh6qI7j0GOkO8Omg+KZVG42zgDj06WWLX11gJ2WlZyXl16qXYkeDW03R/zeu0fTEOOwe5b3WFmpeY6ZQpYPtRvBmzPpVJUPde0P73mUbZqG2sVg9Q3Bmbcv6VbTlj0tRzVPZXyoLYX4XRRTxKw/S0Pt3rHrHOlmzaPeQWtQmzWVBdBEARRZmiMI1a4fNGsahc2Hj1eCM8pIyPxqmf8868UQBYeVxXFEMQh1UkW1UPE27GBGdGd+4bI0R2yUMoCgx5+tlx2HBgj9wqt7ilzw3W/LY9MWkY03WEV+eeEPZNP3Hy/7rCmy63GXyI0//bI898A/5Nxf/EG2WnamnDd5bdltxJ/kH63VZLNxL8hlD4yXH5zy/gIEdLR6ZEhnp1z8tY9Kx6Yfk323WVWkoxMIQaZOQ2GmsXNhyzpZDNney+rSR7Qv8+NHvt86aY6WD7UFIYt5AuHaTXOcHzwf7WUqzHZjELI0xzrpatmcQUMABNuYLxt79ryMb/CuOt0csyDFKLYiS3Mso2EUgxDtlcHu5gj6RnE3Ec8TdEY6tk4MAmjLaq9ukGK73RzLAEId5RYBBJ5woqpyXgQwiJgBhNdzmmMEEMhs7YAsrBPWMlovnqa8aOQ6UfHtAIQqaY5ZJDX4JrIgaIDww3PPk8Unbiy77riJ3HbVhXL57dPl00fvKu9696fl4msukhfvvVkuvf4Oed+7d5ODD/+UbL7e+rLlRivK9Vf9TDY48uty4EbLSk9vt7RgNenskp+d8WHp2fw42W+rVaWjo0ekt0temjZVxjqVG9utpKhPN3OhjdlBilGaYwSKKejb4Ru8uwwgRK4Cz4LAds+REigDCFH0eBQcVgbOowZlEf/OD4CQBSlG8+LJODqRLkiAEKU5ZplMdYMUwTdemmO2ztG7IAtZX8fusYUFIGT6ty5ASNMcUXYWTG5NNPzOM0lQoNj7IHCse4GELuvm6LklcG+EsrIUvSiLgUqxapc3zi97l85i8MxBkfDlfCPaeylENLXShMX3UVl6NOScoxNOtF5RFkMZDTEmb+wZDaMsBnRzjO7TACGjIa596UtfKrIYkObIwkUIUrzy8qtlzApryNabrC/Tn3tMLvvZJbLWdvtIz72/lB/f9LQssWinbLzjnrLzthvIDz99sExZ633yng0XlVO/d6V8+gunyIRFhki3dEr30/fKF//3PPn3fXdK7+gVZNIBB8reO20pXV0dMmPqVBmlUvS4dpavOQeafj3XGYF0BBDwzKhxDda/jE5VZUDUoCwDqlqRYvy/+c1vim6Ohx56aK1mTR5A1DT05AZp2w7Pk9bkw8GiYdSsSdMQ77Zrgnl5MqXsROrVksh4LZK9WvZY3UBaZc2aeE+kV7w5R7oosppVoWF2MPJAFvuP2GsRz0f7HPPjtWw/l3VztHTS1oV2aAh+Cps1genHjRvXL29ANDINNxi/448yBEOAAAa2SiyqDBUxKd6r4xM85RuliHgAgfdn5lar3Dj3DPniNKVjEDS9dMSxpoeO1bDzqktDT3CQhnVzwqv4Y/X4PaFNepAWnnKz3RwRpIg0R93u2fJhZkHQPIX70IsBlRS32GKL0PypNxjCambOnFUMddgw1NIYKBoTgTMPFOG3ACQ2hz877XmCnnPPQJYVlhTAeB75ty4N7ZpFbjWCxyxPGz5cjImllusChEhuUABbnic9eLL0lJtOc+ScLf9aGmaKObsWtXvG82kej8YYyb2MPzwLAnk+ep7dsxwPLXRRHQQLECz/Whpm48hoGAGEMj7M6BTJqbrdHCMaauudJxMtQCDNtH7QYCOTKZq+ngyYpxgE+8DM95/5hbN2o0RSdkNkvslMabfrYiABLark3Oc1BsEDWZHvvw4Nq5zc2i0aU8fFYE37RLIY37y6GCwNvXfp0x7+TquJzmKIzJ/cYLyHQEAriHYLbIF/s1LL3vM8nq8CsnTAlhU4pL0nHDBPT0Fkey+qKpcpN7wnClIsO/1GMQiR3LDv0nxYZnqOKilGIAvvigB4RkMNiu16lY2x3aI8eH4dF0NWSdEepvQcyiopegfIOjE5Gc+X0bCdOgiYW+ZiyOInPJcQ9okNELY8EFncM/1Q18UAXmR5cbfUskbLVJY6QEkr7rIsBipZfQ82UZbFwI0eZTHoWAMKbvqKPFMsAQKrAOpTnxeBTwGFMVNYZvfoxWRnO8tw+uRm6Ts/shgiGmphqU+VVIheFgPvgbAk42h6WMHBa1TaFGBVaaizGFBJUXdztMBCnwQJAqgASGdsSn3NBimym6PmUfA7TxZakcKagDIa3OiWrzVQsdfwzKp1EEgrKhUvWlorKStQopQvD5zpk6C2FOrxY16eDMDzyrIYuBc0v1mlfe2118ojjzzSn8XAd1kaYp5RFoO9hzTk3tMR+LxGYe6dfnFNxyDo8dsDCa9ZvqlKQw0Q7Jy1crM0JI9aWentc33CzLIYogh8m8Wg97mWlZYXcfq1e4zj03LS0rcsi0Hvc/I1424Gg4Z4vgbTmn50q3kZWlTMXJMyPtQAoUoWg6aTBQh63pABOgPD8qiXaQNeWygAgkZEesLajVAlzZGLZhdFL2a7AEFbEPRpigttUyMtQLAuBj1GCnq9kHUBQh0acmPaVsX83gIELUjbAQiYHxXzgkxzxLswZk3fDCBo86cHEKIUvSzlS1srNB8uaICgYxD0HtNBilUUWHZIqAIQMhqCDzHOq6++Wp544okCIBCgeweBhQUgaKDq8U1ZmqNVblmaYwYQPKCKZxOoRDS0AEHfUxUgkLeppCLXhE1zJODWJ1yr0DUAq8KjBAjkeQ8gEMRUAVlWZut7cM1Lc4x0UQYQeA9dDFUAAnlHy2zPjbdQAATrH7PohgO3C0YLgv1e+/ckbPcAACAASURBVGKqAAQS3wMIJH4GEKrWQdCn38EACFpA1AUIg01DCiKvfChdDJ4FIaqDYJm+jgWhrJsj+cf6QdsFCPr3VljimgWxeJ8HshYmC0IEECIrjDVzVhXMtCB41R61udUKZio33P+Nb3yjOO0ce+yx/XFPXr2AugAB74pqf2R1ECILQkRDrZj1Hi8DWXUBAt0ZVo7ifZ6FiXswAwgeqPAOFnUsCFa5RRYEj2/KaJjVQahjhfEsCNQpdQFCxIeDARAsv1Wpg+DxaJrFgP4IPIER6RHRU3FY4avRixWkGIBFN3ied/qlYMZ17x49DovoGOhnQQWemRVKsuZxBn20E/yh6UFhqWmlN5JHQyJwPscK5ro0xHM806M2I9P6gTFmNARjg+F0mqO2LngmcFzHf54VJgrWwXhsoaSLL764aPeMXgz6Pnty08JHz9uCB/RiQJAisxgYNOiBVY+GeA/H4d2D696cQQsbg2B5w/J1RkMvuIr365xwTRc9dq4979HgnHuQv9Hgwc5ZBynaa+QpC7L0ODDWc889V2644QY588wzZZlllileq2WABpcwWetgaioO8ppHQ+0eoZDnfVbW8P7MxRDxL2UU/eqaD2kdtYcm3JMBBI+GnEO2Z7WLTM8Zf48AgpUN5D/SytvnuIfrZXkK/9YWhOgAqRWVlkX2uRENKecjC0JdGkb7nFkMFhRrF5N2MZB/Iz4knTW/6L0EfQk3jXdY0d95upm01fsc4/AO75rni+fads+LL774XCZabfa3iKOOBQHP0JWhrKD3AALBgyUwGd/zJXJRonbPuJ6dfiPlEPkfMZYsBiFSbvhev8suMq/p70nDbL28wEcysHfai4QN3os5W4BA2nsxCLjHCxzUFh8rbDBejA9xB0jPw4aABYEAAVkMmemRipkAVys3LWhss6YotdejB/kwi0HA3KNAP9usSfNvdHKLhIoXDKUBAq6zKxtpAdpENMz2eWZd0KDY8ihPblqI2Tnj3yiUhEwGxCGcfPLJsuaaa85FQzwD468DEDD+iOftPq8CEMjzlteo3KKDgF5LTSvGIHjNmrSMtQDMU2Dk0cy6APlra97o9fdAlj39ch3rAoRIHoKG2UGA87K6qKxQknV1ZSBLyzavUiWzGLw0xwhU4JmUG9yPfI89hNu5efpSAym7v3A/rer2WWX7PCyUhBuhcPghk0QBShxEZCbSARSWsdsNUsS7OI6ocU1UanmwYxAsqNCLrQGCXphMMGcuBr35BoOGGUCo62LIAALmXSUGgadX9KlHnQK0d0Y5ZIAFDRAi368GIx5A0JaMOkGKFsRGwnJhcjEwYMvyYUZDTSc7Z08w4/ftBilakIW1Bzh46KGHZPvtt5f/+Z//EazRuuuuO1dXPty7IEstVwlSrEInq7TtmrQbpBgBS8oi7eqwcgO/iYIUPQuCflfkVotAMe7VQYqcN0GADWD1wGMV+vKwR573gFQEELzDZQQQeMDJghTt83gP5+zRsK6LIdKxGH+WQJAdVgc1SLHMguCdfkGowQII+kQ6PwEC3wPCl8Ug4NRmTxBkYM0cZOJ5jUGwwkabim10Nq5l/tjBzGKwTK9paEEWfgu6fu973yvcGPvvv39RT8JaEDL/OejA+VorDK5xTQYDILQTpEhhgzm+FlkMlj9sJUV9EIgAQnRImBeAoE/hsCAAIKAOwu233y4//vGP5T3veY9suOGGc1kSFgaAUBaD4Cm+jIZ1AUIUZ8DTZRTHUSeLIZIbVFJRkGIEEHSQouXRBRGDoMGIjUOxlk5rURksgMD31AUIOrbCWgrqxCDgeYMKEBaWNMe6QYqRi8Eyfabc6lgQ9GIuKICAOXiCg3MbTAsCLT74M0pz1GAJJruzzjpLllxySXnnO99ZpFPi+tNPP71QpDlqAcGTgGd6fL1ZEDQfZm6EwQQI5EOaW/FvAAS4FwAQ8K5bb721yGxAxcuddtqpf4vht1A42tJJ8yzBTRXzuOb5OkGKZWmO7WYxtAsQor1MpZfxaGZBsG4JffodjDTHyIJgAUKU4ZDxYZ0gRbw3c0/XSXNsx4IwrwBBWxAagNDb25+LbYWAh6S5WQbDxVAHIFgzVyRUBhsgUGDaGIQqAMETlhQ27aQ5VgEIdBVhQ51xxhnF6f+oo44q/mSzpoWlDkI7ACGymg22BSHyP9PKFZlb51cWg3da9U6CFiBgvGzWxEqKuO++++6T73//+wVA2H333QuQgHsR9OYBBPr3G4DgHwRIvzKAUDXNUSs3baHTByb8vU4dhAVhQchA4oK0IIBfGRdQJc1R87cOvlzgAIELrQfPQCFes2Yifk8lZQOAeH2wKyl6AVt8FwACxsNCSZqBrbDkJqLvX5vNOHfvHj6zSjdHj4aRYsY42qWhBggapHBu2pesaWGZTV8DfcuqylnBwBOpZnpNQwIElFJ+4IEHCt8zvsNpigABLgavWZOloRcQyfHYU32dSop6bvp05s05Wi+sZVZJ0SpYPNuLGeHco72H+/Rpyo5Rn4o08NUWBMs3mQAbzEqKAAjaRYa9e+KJJxYgAeW28bEuBtIJc/HywfG9jZMhDa2Jtl2et3zoBfp5ctSuyeu5kmK29zDPdispcn9F+8EG7ZKWGc+XrfNgV1L0AsQ9PqRSt9Y7yx91KimCHl7Qq7Yie/IrdTFEaY7cfN4DvU3JTYsNZIUNN7lNVeI9JJqn3BhE440j8oFlvRjsqR7zJKKLxq4DPOw4sl4MYIIouj16FwW4R8OsnwXoFAnLOgAB99heDKSVpYemIehj4yDwHQHdn/70J/n9738v6OL3pje9qVAOGiDAgsBeDEhzjMaugzn5fq4NT6wcB9Mc414MOIH1KeeIht2IikdRJjTQKboz9P2px2F5A+OwvRgiGkZjt4Au4nkIB4xFN2vSSjEqz8t9XkZDPY4MFJeBTo6DLgYUStIAAe955pln5Oyzzy56Z2y33XYFf0BOWdAWySgC5nb3nsfz80rDSH5FvRj0XvFkQCRTcF92LSq1HI0vUyoZz2McZb0Y7D7RY/f4MBqjx/N8tjXF230U6bBI1pf1Yoj2ZbQmVkZZmpT1YmiXNyjb7HvwfdqLQW88bgY7eD0YIjN+p80f0ekXzxusOgicoGdBoHJtpw6CNpvZkyCZ1YIKT1h6SlEzh6YhmdfSkBuF4EHfU4WG3vi1sLRM5W0i0oPCcjDrINx9991y6aWXynvf+15Ze+21+8loSy0DIOg6CGzwo8dPIeXR0CqcL37xi4Vv2wKEVgv53IWanw0QRDq7OqQT6XXFFaTZ4VpLenpFhnR1SKtDpLMl0iMd0qkAQldXp7SkV3pbHdKFKyjR3NuSadOnzdGsSdNXn2L4PfeeV1eB/OQJB1sHQfOo9v1bGmolG12z74vSHKlUvLx/Kj6eEuli0ABBzxkBjD/60Y9k2WWXLdwN48ePn6Nei15jLYPwHvK8l02TWehoNUOwLD8aIJAPeaDR7/KCZb0x8rlRmmNEQ74r4gHeZ0/G5Kt20xy5XlG9E1z3ZB6+jyopWmWp1y2SlZmFBnKeoNjKSg1Uo2ve+D0rHWiYpTl6a6L3uceH3j7Xexb60tPN5F9P7lEnav60POrpgDDNEROzubF4YGZezEz72emBeZ12gNkmisaBZ9hgSU3cui4Gq2D5TBsF7gEED0FGwKIM3UbjiGhIgeih4oyGNhbCKpV2XQxcS0+5Pfjgg0Uq2yGHHCJbbrnlHMIFm6/MxeAh30hI2XHYLIaiUFLvq3LLH26U3//5DpFhwwvlvvYGW8tO224qw4Z2yBCAg9nAodXqlt7uTukc2ikdHYAOIh0tXEe/gk7p6H1FbrjiUvm/B5+WMW9aTnbdZQ+ZOGEx6ZaWTJ8yrb8uvZ5D5C7waMj75tXF4NGQAMHbl5FpFwABfQ68ZlORfMB7CFQwDgIEWJLwHs9SBJBw4YUXFsM+7rjj+q0jGGumOLLTb5npOeL5yM1YZ+9hPhDK2K8IzLW0j8aYzQvPzA4ydZo16fXSvJPxKAECezFYmRL53DO+iayIWR2EMhp6LgasA9bfpiViDlmzpsztHo09s3LhfZGLIdO/dWiI8aWVFNsFCJmQyhQfEZGHYEAsb8EyoJKNI3MxRMo+G3sWgwDGQaxDhEYjIer5rMAYdWhYJiyjjV4mLDFvfZriZo/o4fkmsbaodXDkkUcWvuUNNthgjupgFJZYf2zMslLLHIP3ruiaBggwf44ePVqkZ4pc+P0fyNAl1pBtt95Apjw7WX7281/JjvscJputtrjccvPv5ZWhS8nGG6wqDz/4lExcY6L0TJ8qz77wkiyz3Ary1AN3yMhlN5AxI3rkuXtvli9efq988oM7y3VX/0K6R60mB+2/W+GImDZ1aggQqnZz1ADBuwfXM3NrtF7Z/squRTEIVFJRfI2OC7AWBA+MgHewv7761a8W8uHjH/94wY8aIESuk4znI/+z52Ioo32mtDMa0sWQFUqyMsWCLK18y8BDHYBg4zj0/ooOMfiNdTHwvky5ZYA5AqrkeYBVq1d4+LEHt8jSUrbOdQFCRMMykGVdDFVoPy8xCLAUF5ZrXUkRgwRAoDmERMZG4aJ4hI+KXdCC4ClLMCgjkfUzcQ9PMfY+jiPqbDcYdRBAeG5kjMtjqLJCSWXNmiLmtSd+Mq83DowzoiHHX7WSojZ/Re8CY1fNYsDYiIi5lvgTz4bV48tf/nJRCAlFcbwPXQzY6GjgQxcDKinatCMLAjyrCQQRPlQeOkiRwqs1a4qcf865MnLCWrLDNhvJtOeekMt/8XPZeKd95bffPkmGbL6/vOnlh+X5IWPlhdt+L7t/9jsy7J8/lO9d86SccOJH5IwjDpRPXHKtrDS8V+BckM4u6XnlRbnkkotFxq0h7917R+no7ZUp06bI2DHj+qdN2kf57FzLqDiYp1DwcJpbAVZJe65LRsN29h4ngbgKxDp4QWWYlycfMC/PgqCbNXmKG+MDT8A1hWfAAgWAp90I1oRMRRo1KCtLc0TKraVhlDVF60dWB8EDdZkFQVv27NzoI7ffY228a+SBqqWW+fuMhjzERH53BilqvcLnZVlT7dIw6mBKoNpOoaRoX/J7rw4CaUXgo/UX7otoyIMgrmdZDKyai9/T1aUPkFavaKu6vkYe9fhQWxCK9zQAYWZhHtWfBiB0zaW36wIE0BIbHcyPDXz++ecXloH99ttvDl+8fuFrBRAu+PbX5f/ufU4mrrqs3HXbn2Slrd4lR+65pux9zI/l+stPl+f//Xe54KqbZdWRT8ptI/eRbWdeJb95Zil551vGyteueFQu++7HEYxQfHpmvCS/+c1V8p+nu2XSfgfIcuMWkRYsCFOmypixYxqAMA8AAdZHCF9kt+DPAw44oCiuRQHbAIQ+t1cDEAakShnIskClAQijCuI1AGFmAxAWhAUBzIaSyXAZvP/97y9OfRaYcTu/JgCh+6XCgrDoMuvLTtuuJ1f98Fvy/OIbyWFvX1n2PPSbcsUV35aX7rtFfvSr22TfndeRY750nWy3+nBZZtU15bG/Xi+d239Mjt1jHWnB2vbqS3LhOedJz/iJ8o49d5YlF+szgyMzYuqUqTK2AQjF6b+uBYH+WJziLrvsMrn//vuL+hk4YXm1GBoLAgJvBz6gR2NB6KNHZMloAIIDEGBegNCmP4RIPPOP1AlSBPGZ7qVNd9qc5bklMh9elMWAOQA94j1esEmdwMEs+Ae+RJhuIl+XZ0LKfP+YMz6e/7GMhoUPqWNu4RAFynhBpVwfjAMmK502R5ETpYrq7IzLL79c/vrXv8onPvGJIho3oyHeg3GDjkhz/NnPfia77rqrTJw4Mbwvi9XQ/Iv5oCjTtttuK5tuuml/QE7PrJfkogsvliVX2kB22n4TefbBu+X8i34qO7zrQLn/V+fKLS+Ok8W7psoy624t797zrfKlQ/eQ3g0OloO2GiufPvMy+fzXvyqrjUewY7fc95dfyZEnfUfWXn9tWWToMNlm1z1l5+02kSEdQ2TGKzNk0UVGzmWhidKpyng+C/LifrbKoU6wGegW8Q3M4/T7an7D322WE8dCwUwz5/XXXy+PPvqoHHTQQf3ugshkDb4v4kZmx1rceOONgnTZI444or8TJE2w/DOacxZIjWvgU+vTtmO39PWi2CnbIhrCuob5WrdKGQ2zoDfvGvezl3qoXZOe3Mj4xpNRGvB7TcOisdP6EbmYovso5z23W7bOZbEQnikech76JEvhboeGdJFFPA8wzHgbzW/ZvOoES+J5lPNzxSDgImMQqFzoO4kCQ7SPsTBJzFZIFCj4t+cXhi8aka02wp3C3POfezEIGQrktXYrKXKxIn98FqSIjQdzp05zIhqNNpjNHtA01ADBMlwdGkb+J65XFCyJOWOcTHPknEBjG3jDMXMtb7rpJkHtgWuuuabfalAW6GmzGJDmiBgE0NADegxS9NLLGNdCXjv11FOLNMetttqqCKCCjxn39eL034m0xQ6RDpxwe2UI3COdIq2Xp8n0VpcsNnKEIBuyp3eGdA4dhdzFIviwJUOkS3plVm9LOjt6pasTqY2wGnRIL0ISkAEhnTJtyosydtxAQ7Syk0oUg0C6e35/XNP+WO5L/a6IhviNTUvE/eQb730IUsTzMh+/BavagoB32iwGfBcFKsOnrWuoYH1//vOfC/jspJNOKsp14/nkhcz3WxaYa5s1ldEwi0HIaAiQBRpFYCTzn2cFtqJrsMLogHTKeSpfLYO0jM32XqTcbC8GKrjMBaKVtuc/9+YFmYL7PDCi19mL48gCaTXg4PpDYVue17yh4+H4fcaH2SEc9NLxZh5A8ICKzezTaxrRnjEI1GFuu2cOQFsQygBClPdPgGCPTF4ULX6jBb1ViBT03qkpy2J4LdIcPVAUnZozIZWdjCMaUqlEAhbPbDebAmNsJ82Rm+Gf//xnkb8Oy8GECRP6AWQGEKI6CDpI0fIT+cYTUvYashh22GGHAiDoACqkMRa1DopyCL3SgyqWnUOKV/VVOegLMEBC4yvdLRkxpK9mQrd0ytBekVZXVwEy8G1HJ/63U/BHC1agzs7iedORxWCK/FDZD3YWA+YNi48XvOQJeg3O7T2ZJYMdTNvZlxaoVsli4JrblC/wGvgJlibU1oAlYbnllutbq9kpkBnPZ1kMkB3M3NE0ydIcIwtCRkMGKXpuNx7CoiwGT1lmFh/QBZlEqCXRjvWjbhaDroOgaVgnRS+joQ7MtfIho2G0XniGt86gbRSkmAH3zPJUBhB0HQRLw+hQV9eCAPlLC91cAKFOmmMUBZyZPzLlpk8xeqEz5liYAILOYtDjX1AAgRaQqA5CXYAAYYnTtrf5POUGYQ2hjcI2b3nLW+ZIZywDCNqC4GUxDDpAKEohteCULE76xam5Z6Z0dQ4tLAH4D8Cg+L/elszqmSnDhozor6HYZ8rGSRsgoiWdXaicUJy9pDX7b7g2bep0GTNmsco0LOP5LM0R6+yVF49Se8uAZXRIyNIcs1zsKAYhmzMI51UQxT3YX7/61a/kt7/9bZHdsN566/W7K3B9MEHxggQI0QGizNURWSzrAARafOpYEKJSy5nMrpvmGPF8RsN2AQLoNxg8rw/i1sppBURWB2EwAQLWGeDHBQi42KQ5NmmO3im8nSwG8BHABMy9O+64Y1FHn1XnmNGQpYq+FkGKPG1yY1L4Zil6nkldWys8C1jVds8FtGi1+lNumzTHvpUBTbJ2z7j+5z//uXBnTZo0qWgXTT9+k+Y4QMMmSHGAFlFaIq0BkYuBqb3WCtOkOSqKRHnOZT7tpg7CABGzFBy6GDylvbDWQcCYUT75He94h7zrXe/qBwe0aNAkvDBlMTQAoc+9R+tdlRok5OAFXQchAwgYN+Zw5513ynnnnVe0j15rrbUK37TlNw0Co2AzWs3wW+3DbeogDCjYTEbhV00dhD5gm8UgZO5zbTVjPAODb7UL2nMl0v3kxXG0XQdBBylqgalNj1aQDjZAaNfMSYJ5qI0njqwXg3eSzcBNmXKDsIwKJelIdetH8oI5OY4oWHJ+AATPXEXGBq2iIEWibJinvv3tbxem7cMPP7zYFDyFY21pQYj8mVgza0FAeiQ6+SEGQbtpNA3LYlfwXCoBBCkiBgElnnU0tw1e0i4yu8G8YEme+Pku+zxct90cNf9GKXqeaZ9rkgUp4r6sUJI2ceLv2d7TJlAriOoCBAbE4d06BoF0tLEBpFXUzZGBiUXAaW+v3HHHHUWRLWRGgHdoQdCKnmucAQTyfAQQLHiI+Abfcy0tDcsKJXmWrIgHyngK9B5MCwLmhE9WKKkoZ26C2LXMtjSsE6QY9WKgJSAK9PRcDByPrUZI2tYtlBS5d6sABB2YawEC5armq0g3Z8GyGEdpsyYSQZtOuPn0dxQqGJRleCpnCyh4f1Q6UiMk+y6isCggMmJQLDLutScIjJm+rqrzyu7BM7JSy2TEqu8iDXmqs/cNNg2jNcZ7MXbbzZFry80MRYFocgg7BIpF60WTb7ReuvUt0hwJENjN0buvHb7RzZp0ypy3Lh6vkR7eOEDDaD/gPu99+D2VSlWez+6hQGSQon1mxIfZ/squUVhG9KhCw+uuu04eeeSRInYgexfm7UXFR/fcfvvtBUjYZpttilRZHUhJGkbrFfF8tv6UidGcoz2GvYV7okDVdp+XjQPzjaLiy2RAu3sv4vm6dMrugyzH+D3LZDavOnPOujlmMiDae2X0iOI45uVdHt/jeWzWVMh3XUkRgydKsacfnv6ssMkiUbX5w94XBV1kwgFj4Im0nXG00+6Zz83GnuXwZ61vo1z37F1E556AyGgYrRdPiV7EuT75eErFAwj4HeYFfoHf9+9//7ugXC5bN+N6FNMQBdhpgGB7MUS0z+hk+SayILSjSOvkhNOCwNOUfl/EG/o07fF8VAch68WQ0TDaX9ney+rSRzxF65hu9/zwww8XvJPNGTSwwJjg0ON5fPevf/2rcDdstNFGhctLW13KeF6nOWr6RzTMxm7nrJ9Xp91z9rwyGmZZZBEIqMPzmGOdXgzZftCWJ03DjOfrZExQtnl7bDB4Xo+9bL0iWZ/pjixAmKDIHuxLAUKdLIYszSaKsPQikYmiuNG9wXvmVp6YqphbrZCN0lgys1lZN8fBymIg00RKti4NIzNXWbplJizvu+8++e53vyvHH3+8LL300gVgyHyTGQ1tN8fByGIALbnRbTdHr9MchW9UrCVL+YrWC8+EsPTeVydqO4sCr9OsKXMjZMCyLKI7cluRhqALLAgECBkYAW29NEctYL3DzeOPPy5nn322bLzxxrL33nv3g9aM59tN7cXYMr6haTfqxQBe87IEyrIY6qQ5WoBAkBXlx+N6HZ4HTaLTb1mGS1bfwaMheB487GXu8BBjwU+2XtQr3rs8gIBn0cKc1VWIUowj3ebxfJWDbNasKQJ7oB8OaMxWa0otN6WW+5tzZQrdy2KgtQfpjCeccIKcc845BTjgh4LeInDc12Qx9FGJgtkLeqPSAx2bLIYBemVBil7cAugIgYjcf90oDHxJhdgEKcYxKNznUdxNJjc0QCCv03+exY1FMQiM4/CUdtOsac6quU2zJiNgdfUqKikwZTuVFLUVwwsOLFNuWZBiFPn8es1iAC1gOUDp4o985CNF3jk+PME1AGHODQvh1qQ59u1M8IY+xVQJUiSgqgsQIB/QCRL8usUWWxT1OXCai+q4YHxNFkMegc8TuCcrKYObLIY3SBYDNm1TB6Gpg1C1DsLkyZOLjnow277tbW/rtxw0AKEv7sK6yBqAMACYXguAwFocABjoKopiMPvuu2/h8mksCI0FQfNAZNnj93WzGDwrDARnlSyG17zdMwaJQfCjBX0UF6BTKfTpkcjSq+uOa9qPqNOHtP/R8yXiXi18te/MngR4LUtztH413sPgpYhpPD8S5s8gRd6n51YlzVHTEH+n78xWRYxoqC0g1vdLUyGDfCx9szljHDBZsews5vmtb31L1lhjDdl5552L70k77WLA3zXg0BsvoqEutZwFKerxY+z4WLpz8+lrXpAi6iiiUmKP9EpXq7Pvbz0t6ejsmqOXSEbD3la3IOMLlRY7h3RKZ2+ntDrglyxWtaBP1TRH0smzwpT5i/E2+mPZXEvzYZQqyjgDrpelL/ee3ec6BsHylGcqtjTE88osCJq3EKSoU77oiolkA2URAQL3KbJjwGtIg2TlOM0njEGwpZbxvIiGmdzTMR6WhjpI0aOhTdEr28sch/bjaxoifsnrxWDlPO/RNOxXEKqYl93n+jdeqWU8L3IjZNcyHo3SHPm8LM3Rk5WYQ+T6YwyCdnWU6aJ5oaFXapnPA794VXOzNEcd0Gv3OdMciywHm8WACGu8WN+URYjrtA19HxmYG8GeprIIfKskyWwUBN4JN4tGzrIYbNoJ55DNOYqwxTijNMeqY5/fNCToqJPFACHGACDUOgAjHXvssQWvWCDFXHTMJzqdRRH4CJLBNWw+AIRLLrmkMAczzdG7D+vFcfDvFqgwrUenOTJosOiXgLLIHSi3PKSoutzT0ZIu9F/o6Cx6NOiPxwMt0KF7VtGHodUzVHq6eqWFxk1F86cBgOBlMVj+JR9U5Zs5BjcbIOBerzhQFAWued7KAO5nLzUqy9xhtLQdn+XDqmmOuM9L7/XGp+fgpZeBz+BuADj42Mc+NrslN6Bi38eCYi2HIhpyHCzYZJU9x2TlIfYW5Fq7aY5ZloiX1cE5eAHOdWiI5+k5e+vspfZmfK2vtcOHWWBuxoeZ7ohkfZbFQPmjQTl1mseHVWjoBXqSTh44wDP5LgIXPZ6ID3HPHA3KLEBYUFkMEUDQCNFuoiySOorYBKGyJh5RNH2WPpL1EciEZZQalUUpZ9kUg01DIs7M3Arl/Mtf/rJor3vaaacVzYCi6OYsGr2dXgxwY+y1115FsZvoZTsXLwAAIABJREFUvmy9aF0gsNRZDEzBavV2y5NPPCpPPPWCDOkS6WmJjBu3lCyz7FIytKtzLsDsZYKg60J3d0tgSXhs8r/lhelojz1aVlhxeRk9cnghSAcziyFL3coiuiMaZus12FkMNqL/2muvLeogIM0xexf2s8f3mdzgCdIL9ITyOvPMMwtAinejgRHlzoLMYihLc4wyQagErKyM5kwF7qU58p4oKyKLfC+zIHiZO1kWQzQvyzcakJSlOUYxZdG7qDu8ugoZQIjkaLYm2d6LeJ4gwB7QSJMoyykbR5rFgIvtAoRMSGXILEvR46nTAwi4FvnIszRH3Edzq2WqqAFJRPgygDBYaY5lDBDRMEOWuBadfspSviBMIcj/85//FCcupsJEgiNj+qyWRJbmGN03zwBh1lT58bnnyN2PvSxrrb6CzJj6ojw7rVcmved9svoyo2Xyf+6X7iEjZdllJ8iU51+QseiE1/OqvPzyTBk1dqy8/MzjMmTcMjKiq1defPif8s3zrpYVVllaHnn0Kdlwi7fLbm/dqLBKvDxtqoyeXVVO82FWmwB09KwmmSVrYQIIUaqo5hsLEKJ9ngGE6J5MIGIMoP0FF1wgzzzzjLz//e+XFVdcsd+C0E4HU54EMwtNtJbzAhA83sj2OcYZAYQ6gCPbe3hXu2mOtN54fFN2SMRYojTHKOU+01PRvswAQln6ZmQlapfny/RDBhAyHg0rKYL4TZBiE6ToxQxAgF1xxRXy4IMPygc/+MGiEBIBnGdBIEjBn6+HNMfWrJfk/O+fL+NX20R233EzmfLMw3LeD86V9d52oDzxu/Pl4ZHryuK9z8oiEybKU3+9SXY+7vPSdd9V8tPfPS6HHH6w/PDko2X/L50jK4zslZlTX5DHp7ZkpaUWkYt/eJ7MHLOGHDTp7dLR0StTpk2VcWPG9WMDmv+aNMdf99dB0CZm72RcN4shataEd+CdACmovAiQsMIKK/RXDwUQ1qZu/D3KSOIJ1yuNDKGM61EdBCgwjNHOOctyIki0rgwq2cgaMJillgkQslLLsCBoUzdBW1QvoElznNNZw8OgpaEGZ5ZvmjTHJs2xP6jUxozQ52bdBZ6JjkznbXS6OGA1gCn2mGOOKUz9+rlvCIDQPVXO/9aZct1N98gyKy0nU557UkYstbYcf8Tb5X0f+bb88qdfl+fu/6tcfP3tsviUu2Tahv8jb3nxJ3LxPYvIoXutI5/6yvVy5aWnSSeCJTtEWh3PyUfecZA8P35NOeWUk2StlcZJZ3dLXpo+XcaNHdsAhNcgzTEDCFBU4P8rr7xSbr75ZvnsZz9bAFsI2QYgxI2GaKnwzPdk8ibN8Q2S5vh6cDFEJrqsqhzrIDQuhoFKb5HJ2ovmffrpp4sCM+jOuO22284Vh5SZxyOzWTsxCFUrKUYuoSwGoV94zXpJLvj+96Rz7Oqy/dbrygVnfF7WefcnZI8VpstOH79Errv4dHnhwb/Lub+4SfbeeGn51GVPyu4TnpaXl15Hxjx5m9y75B5y2iHbS09PS16Z9qJM6xki40cPlysvOU8eenWMHHbQPjKic6hMnTpFxo4Z0xYNM56PylXXqaRIl5AX9DQvMQhVXAw2iyEygc4PF4POtAK/AiRcf/318vGPf1yWXHLJfldaFZcQFWa75vGFycUQuSyyGIRo770eXAxlsTyeC/q/0sWATTlWnW64IcD0jAvQpjb6QKIoShvNqTdY5j/nu6wU1aZHe82NKm/1RSSzWZMGCJyHvY/f64juKu/ib3SaozX56KhSm1qS0RDP9gIHB5uG9MXhfRwfXApf//rXZaeddpLtt9++v5sj/a34XRSZW5eGjEGA8tPNmmC54HpZPszepfkX40aQ4mabbSZvf/vb++vEt2ZNlR/+4AJZYtWNZPcdN5f7//Y7Of/ym+UDhx4gPzj9DFlvl72l84WH5Jne0XLAPjvI//vA+2TCW/aWfbZcWs78/k/k0C+cLdutPE56envksbv+KN+94v9kiw3XkX/ddYcsscqGsv873ybDO1ry0rSXZayKQeA8IhpmPB/dQ54HTcDzllZVaGjvsTTUe4JpjlHth4i39d5jqWW0Z47mzDFFWQy0mnluicznqjMzaE274YYbBP8BFG+66aZz7b+Ihtl6ZdfYf4RdUTV9Mx95u3xDGkYxCBENtcvCk8uRzMZv+wOBTXZcJA+pV6KeENEYM1BcRsMqPKrnXacXQ0RD8lxGQwbmenKP/G75PopR4l72MpJKgxQJEOiXoyKIBp8JqQwg1GnWVFdYZmmOGRG1oqxyesBvdJqjTXPJFKm3WHhepvgGm4ZcLwISBG197WtfK5rc7LnnnoVyZk64FWDRZo74Jguws90caUFAmmN0X8ZrFuCiDgLqN+y3334DjWR6Z8m///1vGT56vCy79JIya8Y0+de998j4FVYXef4B+eeDzxb+4RVWXV1WWnaC3Pn7K2XWm9aXtSYMkT///QHZfOvNZPSwYdID0/krU+Wvt9wmz73aK8OHjpS113uzLDsecQe9MnXay7LY6NFWxoYgK1PMVQGC5cMyweGB0Wwcdbo58qTN06oFCJmwzNIcvbFnCsfjGwrhP/zhD4U1YdKkSQVIAI9TmJfJvYiGeJ+3V7I0xzLlFvn+szFmQeLt0jDjDQ0QKE81DbODUUZD7775ARAiGmbdHOusVxkNNc9r3ZzJvTIe9XQOnpd2c0ShpHYQeGbap0/bG0iWokfh4J3Acc0zgWXjiAACnpU1IInMZmXNmhBFG2VaeCbhLHuA5nFvQ5R1c2zXVMxxYN4QWGi+tMwyyxTNbfAsL6IbNKyT/jQ/XAwQQFGNDG2F+dznPlcAhHe/+91F4SLW/kCaorQ6RTrQNbSnUNrSiYqIKHrUi6vS0dUpKI3Q29MtncOGFsWVeqVDOmFlQ7BbD/7dK134u8yuJ1LUUegRaXXJ1GkvyZjFBoIUCcCzTJC6LgaM34voztIco3fRxeBZCcqaNVVxMSBAEM2aPvShDxWgGHwVKb7MghAB1Yi+nnmZCgx0QjwC0myRtbPOOuv0A7u6EeIECFa21XUxRPOyAMwi0qibYxaBX0dW4r11shgi+mZ8WJbm2G6qKMYeuU8BEHBgiFy1Ec/XSQnHOOp0c8yaNRE8eDq2adY02/VAU6zNcyUTeoE32HhZo6HXay8GChS6DFDr4NFHH5XDDz+8sBqAsQEQmNpIIcpN5AWAUdAvbFkMp5xyiqy55pqy//77F8KLhYtsJHgUSY154Zo3Zx3v4G2+phdDn6oiDQmYyyopUsGB7wY7i8GLpKc5GIr7oYceks985jPFf2uvvXYBXCjo7RozCLjJYhiAJE2Q4hskSBHM3aQ5/nemOdISAMF2zTXXyI033li0bl5qqaX6W5g2AGFO5dYAhD56ABQj1sFLqcvKverT78IKEGhuZRbPPvvsI1tuuWWxJ7yUxAYgzOU967cg8FBBEzkBuHUlaFlkrc8A4KBx082xLzWXVvrI5cI9qYEsedSjIZ7X1EFoLAhzbDD6v8AciN6Guffoo4+WlVdeuRCE+K+xIMzdaKgBCP89AAEzRXOySy+9VN785jf3B+w2FoQBJdXUQeizFHjAhzLWszwyRiZyn+P6QlMHwWvWRNRWdkJgEAr9qhG6ASF0kIzeZLiHMQgWWXrokaiUPit9D6+x1DID7LR53LoLdABNXReDjkHQAWJRcRVdCGUwaEgXiedzI3r0zP4on3z55ZfLCSecUKR36Q8Yu6oFgTScVxcDFDB6McAHjCBJZDFYHx7pq2M1NA1pKtbxJMhxRwyCdjHYk0p0Esw2OhE9YyFscCCeWdXFoGloT0ya572od7wfa6VjEHRgk41B0DTUvn+9L7H+nJflUcwJbjo7lugkqGnIBkoApXBpodwxrltfvd6zdRoNRS6h6BSrXQyQG6AFxgR+RGzOW97yliI2hx/Syu4vK9sY42HdWTow14KOwSqUpGn47LPPzrXHuV5egydei1yJmjesDQExI7rU8mBYEKwuouuXPN8uDa2bKdpj/D7r5mh1Ee+JaEiXWxT/Q4CgG5SRhjog0s5ZF0rSe1bzqL0H+yGNQSjr5miFrzYhtqPc4EeE71cHc1AweACB1+wGywACCQ9hiQ8DtsoAAt+lAYK+Jwo0wTuQ0rPooov2B3oSsOjNZ4VKBhAwX3ysCQnPw8ZDo5l2aOiNA8+Hn/UrX/lKUQgJylN/cA/GiP8wNwJA/sbSIwIIVWmIzQcBAGH0xBNPCLIY9thjjwIgZAic66XfowECo9B1kCJTsOxGobKPgo2wMaOGV5GwxNgxN68ufVlQVp3AXAsQuF51ejEQuHvj0ADBKocs6I00BK2ZxcBeDAQqVpFiP2DN2u3maPmGPEIBm/UfAc9rnoLsQjVRBFTuuuuu/VY2yhsdAOaZdklDDSBZqwVAyx5ydBCzvkfzqL2H1zxFChpCdnjdHLkmFtx6yk3v8yoAAb8nEOfz9P7S78zif/Te0/eAr3Ef5Pxg0BBzsoc6zhlmeIBbDZgiXZQBhKo0RFAp2z1rGupDuNXNEUCwOsAeBAAQ2C5grm6OYFAwkB4EFaZnQooEAAYbpXvgeWx7a4V5FsHMk3EkLD2fCubB6Fav6Uad5j9RZCvmjI2OcUS0qlqgiIJWAwSrtCMacr08v5QWKnwe0hlRix5R2mjd7I0d4wCtvGJTHj1AdyqVdjI6MCYAOowddMTG+M53vtOfQYFxROlP3CAURJwfeYwb4Z577imA1XLLLRemTdp77LN4wrUKMbqPv8tSDK0y5CkBz4zmbIGNxzd8DoFd9ryIhrzXe1+W1mXXQoNLPQ7Uu1h//fXlAx/4QJrFgPcDIOj2zFTMBBXemmSZNlGqHeYF3rb1U/B8BN6dfPLJxZgRl8BA10xWaqVtxwiexz5pRz5kz8uugYb2VM91iaLbqVSiPgK4P0qPBCimFUbzV6Y7sn0SgXOsFcbpFTbKMsWycXiyDe+AnLdgTh+Y2m14lfENngsQrg+engXB8lSdTBvQFnKeh+m5AIJGlRQG2sVgUUqZBYGbzwo/nWajr80PFwPR+WBZEOY1i4ELyXnXdTFENNTmcc9NAxrTtAth+41vfEMmTpxYmEwhDLVCp8IbDBeDBoMZDbUFAbRBlz+AISJ6b/NpF4NVYrzmARU8l5kZlkcj810U5MNNTmFpn4frmJtWbqSJJ5hxjc/0XEKRMMf7dcqXVtL4e+TqIgCPqgBGCphFY7z7KJh54NAARvMhvkcnRYA2fUiwJ1n8rmoWA2lL5ead9qq4GGg10yARNMQp8pxzziksQkiZZb8B74SLe7UctbyBUxv2KpSO5d/IxQA6Efh4vBZZAzAW62Igr81PC4KWe1yTdi0IGQ11gzKPhvjO8qgeh+eejiwITO3VgEnLSu2yKONDfZjyACLoBrda5GLA/Ry7nncdFwPoq2XUHAChyWLoY2EKSjKURmZY7HkFCFUFAE8B3jgwJpqdLGirGoMAoXTiiSfK5ptvXlSMA7OD0aITf9UYBJ5G5jUGAcLSKjdafCIQ4J0G6T/3Nl+T5jjA3e2Cc945L1kMnk9bn6bsOuNaVYBAPvQAAq9VAQheLwbmmIN/LrnkkuJEecQRRxSn18jFQOXWNGvqi8Bvshjm3nsZQKCLQVthtIvB7pWmWVPTrKl2syYo0rPOOqvYqB/96EcLcMDTXgMQ5oxG9k6/TR2EAeH23wwQaNWCFQ6AHVU6dbCZtY7agFNSkRaEpptjvvcykKUDc9s5hEVZB1xbHXxLa0AWpPiGzWIA8T0XQxaZmwVCRCZaEHlBZDHwlMBKilVdDDQH6pN7VfN4lUJJg+ViiGgYWRB4MgM9fv/738sdd9whRx55ZL/Jm+tlAQLRflULgjabY65ExVVpCNMtxsDTpTYzRxH4UZQ93p9F4DNI0VphrAlUCxyadttJc6QJl3Ej2lydCSKupWfKjFwFeB4zd+g/r0JDbUGwoChyM2JeupKiJ5i9okEZDSMLAvmnqgWhzLRL3igrlEQXg6Yh/bvaunj22WcXIAHFxXQ7dP7GxlDp5+lKilWVWxSNHrkLKA9pfYRLR/OhR3dNQ8xZx3HpfR5ZOfH8siwGzlfTIwpSzPiwzMXArC7rjhksgFDXxUCrNe5f0C4GK/dA37AOAi42pZb7tow23WghQOHrBTziGps1tROYlwXQZL71dkstU3Cg1sFf/vKXou/9iiuuWEwPm6ZsHBBinj82CwDDsz1aVC21bGkflQ/N4gwyGmqAoN9F907kj6f/3I4vGweeydLO9l0RDesE5uLZWlhWpWGVAGGPHnVKLUdxHFpYRnn1Ht9TuUWBuRF9y4LXvPLiBHSMhdFKFHUS0ODsPe95jyy//PJzxBNkrpOFodRyxvO4FmVvZTwPWmWllr1UbA3cLFjK4mReD6WWs30OGrfD82V6qixI0dvLWMswzREXGWjjBb1YpMcBclNigvakhd94lbJ4CrD3UIlFUdtR9Dj9flbwUljiufPazZFjjSJsNUDwBBXHaOesLS1V6YHf1aHhXXfdJTjpIJ0MEdj8YN109oo+WXCdrbDkWC3t+X22lhkNyzrbMV3R8hpPvREN7alYK+yq94AWFKQe2veyTqhAcK8FCFVo2A7Pc9105o4VsqR9tl/boUfWzdHjqTIaenxDGmIuWbMmvcaaDyMaRuOjkgLPs36KdReQD/Uewunr6quvljvvvLOwJCy99NKFTNQgwvIh7i/j+Qj4ZNk0eKcne/H+qJsjaWblP2WAFyzL9YyyGHTWid2zuEevLWkZyUryhkfDjOe1jPVAfZbJ4intdrs5RvuctCujIXne27OaphGPRvrcygYCBGZMzJXFoOsgaCURMWKUIoKJ4J6I8Fk3sQhJZYI5QkuYA82t7TSuySwI2emXLoY6aY5W4JQhxKzds0f7xx9/vMjdPv3002WttdYqlldv6rK0o+w0ZQOvwHg0WbdjTcGY2O7ZS1eKUky5Xh4Ns5NxdLrJ+BfX6lhNNCCxQirbR5hbO01hCIpxn8fzEQ3LLAjRvswsCJFgjmhYxjeYm2dB4Niz1N6obgXe6Sk3Zu5YqxnGoGmoFRz+DmsA6jogdRhZDrTKZtYgXSipXd6wJ0GC/Yhv8PwIIFAxW8WR8bwHivUc2m3WlMn57FpmNYssRWV6KtorAAiQT1HzPe90bvlG0yjbe/hdJOszPRWNnXP25HJqQcAgm14Mb6wsBgoLgAMAAwAEFELSwVAUcFrJWiEFZqsag0A03GQxDJRnJtirWklR09ALbMOaVYlBAEDQpw78PcsE4anTS4+NAuz+G4MUs1RRKtk//vGPRSAw9t1KK63Uf1L2fOFNkOKAxCEY8WJXGIPQ9GJoejHMheo95qByowXBM6m1UwcBbEqkD+XqBey9ntIcMR/kPOMkA2Cw1157FSZPL0+3AQgDCj0TUnWCFBuA0NfTg586QYoETVWDFPl7rqUXVFo3zbEKQMB7b7nllqL52QEHHCCrrbZaMX3uPU2PBiA0AAH80qQ5zuaDKIefZmkveKUBCHOe66vUQcAdqESI+ItJkyYVRYFoeiSYaiwIixWEtX66KJK6AQhz8mFjQRigB4Mv6erAv2+77bbC5YB+Imj0xNNvAxC65ziokIqNBcHabxeSZk1QHDrNUS9YFIOQRUoyAMjz75XFIHi+xMxPUxaDAKbzygTXKbWcxSBkWQxRYF5Z9kDkI81oyBiE733ve0Vg3Ic//OH+DITMpx1FFeMeL4uhrl8tK1c9LzEIHq9lUdZ1shjmRwxCxL+Z3zqLGcn8sXVjEDCWqBcD2z236z+PAj2jeAc83wtSLItByGJG5jUGQc/Z85Hj3Xfffbd8/etfl6OOOqpo9ETrBkFC3SyGLGbg9R6DEGUQRXxYN4shi5WL9gpkFCxS7cQGlcVxZDwfZayVxSBEJZ8j3khjEHBxsIIUaVKNghSjCdcNlPKUNqOHWQfBAwi45qUsZoE3ZQChv9GFil4GPSKAUBZhGwmwLM0R70JnxiuuuKLohqhNu9EG8xQOaYgx6ohuLRTrKJwMINjOdrRwlIERXPcAQsZTAE+2rj+FdyQ42gUIpGFZkKInbLKAoiwTRAtLHUU/LzSM+IZFY6Kgp3YDBz1QpOcQZTFEQi8LbCvbe+T5qjSM1gvfoxPkgQceKKeccopsscUWc9QHYS+GKOjNA+5lwXweKOI8vCBFyqg6AXbR3sP3uiGa3ssZ/xL4WMCZzRkyBfd5cj5TpBkPRLIeAAF6w/I86GtrA+k5RHPO9rkGxZYPs7Fn74r2CvYe5G9/7Y+ZM2e2MDhsctzkpTlmAlYP0AZDkRm8lJQMINDc60XSRpaM7DSVAQRLRM4hAwiZcgMdbTcxrXDKhKimIe7jONqhIeZ00003yS9+8Qv5whe+0J+mRUbN0GOW7hNZEOxm5hzwJ/6LIsQjfxsYFNessMyEA61V3EDW3x3xVGZB4Dw8Psw2WCQsM4CQ0TDi+TLBhvussCw7xXDs7fBhZjXT61J20tYgtl0LAnlN7xPNh3VoiH0EYc80R21RzcAIeV4rQwYLP/bYY3LGGWfILrvsIjvssEP/4SSzIETrTKXSbgok5uFZH73naT6IFE4mK/EuD4SXKUTuB8uH2ZwzC0IdGmaHusFMc6R+iGQlrkeZIGUA10sJ9/aK1g1azrvNmjzhwA1mhSXN41aBUZhHJms2n7DP4+mhHfMShV5kTrGVFLkgPE1FPc69kzveFRUMwfMoLKkUOb9sjBEN8bwM+doGHlzkv/3tb0Uu9r777lukM+r1pI80Ur7RenkpXxSA3kmFGxlj8gI9MxpqF4MeO2mvS59qxqZyszyVuRiyXgzcfBbgZDSksPSAIK5FlRT/P3vXAR9VsfX/u5sGCSH03jsqItIEVKQrFhQpiggqvUpHEBWkKCpFBAR8IAKCokhRFKUoPikKqCAdKaEGAoQAAZLs7vc7d3PIZDIzWwiI79t9vyewd++9M2fOnPOfU3U0ZDqq8s91ZnOig+hi8JWGpr1HtKDnmFwMqj1rSi/zd868b8mCILd7FhWOHEvCsuhGeF6mIStLHXgU159/Q/fQcw4cOAAqqHTXXXfhySeftFhYtpqJYIr2ihhULAMVme68L00ghmSH7E5mOqmeZ6Ihg0BdHQRWbrJeMblW+cDHwF4EjyYXA1sQ5HXRNbwyzVkECDJPeSu1rGqzraMhHwTpurdCSToaqg6QzDc63axL++VKitZ9ogWBCB9Mc/x3ZjGwUCAz5vjx49G+fXtUqVIl0ylcpdxEgUJMoatbEExz9IgpoiEJMH9KLTPYC6Y5eqehTtkzQPi3ZDHIgpkBAilSSjum+KBSpUqhY8eOGQCCrGhNyk0FVETgrjs0kYtBLLXMfK06CPKJ08TzOrkhnn55XGzlYxCgyjwTLcKiciYAQGMMpjkG0xyDaY5u93ULgkppi1kMtPno1EjpVFTrgMyXdI+MEoMAQTybeUx30dHBLAYGMMRHvmYQMSWDWQzpPMX7y5TDz3uZrAb9+/dHjRo1rH1L3xPoDAKE9E6PMsgKAgS3xWwMskQLs2w1yfJujvQyVRaDKmiIt4Qpe8DkHwk0i0FnXjKNg+sg+JrFwCcYlYuB5q0LbGQXAwcpZlRFGauviddMpjadi4HoIJ4CSNGNHTvWshpQHXidS4hdHf4EQ7GpzZ9Kiqxw6E8VuLmRXgyqCosmN4I3FwPF3cgfnemRT7GB1KVXuRjEfaRaE297T3UPPdPkj9XRnmONdBlEur3nrReDLsBO5yIRLQiZFsZLJUUVr3njeV1QHvGNv5k7Jr4R11I8TVMHSJK7bdu2RUxMTIZ0W957gQQp6lwM9MxAKimaeF4nK+ldujgfU9yY7prOvcc8T3NWVQ/1xZ0hK1h6pqmSIukTFb/pxm7iQ9573lwM8n4wuaBNGYamGCpjs6asAgi8UUwxCKqMCZNA9CYsVeY0Vuh0b1aVWr7VAEGlZGNjY6167w8//LAVcDRv3jyrgxydRFg56+I4iDmCAMGz1QJJc9S5GLyBItoT9D4VIDFlgphA8c0ACLr4iawGCDqF46+wZBP47QCKvQEE1d4jZU2ZRiS/qIEaHTAYQJD89DeOg0GsPwBBdDOq5AZdDwQU01j8LbXMilklz7MaIJjWyxtAoCwG0ULL8QGmmBEdKDbpNhrHbZPmKAb/sBmDN6AceCeiW0ZfYlCeLniFnidOWI441wVr6IjoLdCET1MiQBAXU9VKVx67iPhNWQyqIEV58xHdxDmLAoDHxUiRT7/yqe7LL7/Exx9/DPrzs88+szbhCy+8YKWnBHoSVAkicey6Zk26TBDVyV1HdxEZc5CiWFBG9qvKNBTfJdNQRw/6nRhhLQci0X2607QOZOnmzPNTdXPkfSQKZp6Diuf5mukExkGKYrtnFQ1FOop0kunL41AFsIlpjqogZp3CMQlLWQaI+08Wliyf6E9xvfgelg++7HORDzkwV27WxCdBUTmIco8j8P2hIcUkLF682KrxMHjw4OvZJ/RcXbCsSbmZZCI9U7YgMK1knufvmUdVNBTBjMrio3LjyeMT96x4zVcaihYE4nkVH5qsMCYeVQEVVRaDaV+Ke09FQxo/A1wVDYnnybok0oOeKeopWe6xBUGmoYlviNc4zTFTkCJdpEGITMFolDefSoHpUuNo8PRRRbd6S3NU3cOCQFcMR5fuQ8KS7lW5GGTlxovDhFeZnXT30L3ecsJVaScmOumuDR06FFOnTrVSpo4cOYIBAwZYZkoeN6+XzGzMVN7SLcX7mKFUKV/0O1EgiveZ5mWiobfGNbRhZT40vYv5RhXpG2iao24z68bBe0oHEHQ09MbzOpOkt8Y1TENZ4HjjG9Ue8zfli2WKjoa6OfOa6+og6ACdiee97XOxDoLI2+J6ycqN/63KcNCNkVwZ9H8C+3/++adJYpDMAAAgAElEQVTVv4GqnooAQfc8nVtFRV8em69pjjxnbzTUyXn6nrs5yuMXXdC+6hUeh4oPA01z1K0XgyJVtP+t4nmmP/E8WR5lGor8mxU0pOdp6yDQxWAWw+2bxcCCkzZcmzZtrPKtxDTkw2zatCkKFy583Y3CgsiXFD1WXuzPCmYxeFo66yKpibbBLIZ0dRkMUkynBfEGgwd/AuzEXgyffPKJ5T4cOHAg8uXLd50PZesI8aipB43KxcB7XZXFYDpZ8n5QubRMfnCiTCAuBpMfX+c68QaK/bUg0NhV1mKiBVk5dTEIJt+/P1YzEZDKFoR/JEgxCBA8S8LmVFXqDjHHP9WsiQHC9u3b0aFDB9CfxPQFCxbE/fffD7IqUJAiz0G1IViAqcxcQYAQbNbEFgQZWBJvEO+oFEQQIGQtQCCwQEXOyO3Qrl07q7ot10GQXbisLFXWBVkZMTig0VIDNwIfKkuhvy4hUxBwIADBBFRULjeeA1l76Lq/LgZdTQt6riqgl8anq4PAVgd/A3PZvaezCHLNG96fQYBgtwfTHKU0R97gX3zxBXr37m1ZeyhI8cEHH7RSpWjDs6AIWhDSRR8JAPqoTIXBNMd0OpGgDwKEjHxDZn8y9ctuBF+6OQZqQaB30XvJQkiNnrp27YoiRYpkiq+gPU6VGU+ePJlB0fM/dG4rldIWFY7OZWGKfDe5GEiZculecaCii0GegMnlpnNN0ZrQNVXpfG/vUrksiCaiH18cI4E4yqaSC2IxuNG5u3U01LnV+J3ED7Vq1bLeyXzF7+IMEhkk/mNpjuJA5LrTIsIVg97kwas6EbJ/SSWk+BoxgBg0wkpTZWrja6Z2z4Q6xdgEXij27YgMwM/zZkGgYEidmV7VyU0shEIMIQc80Xccu0DjWrdunRVkRO1jqYUzBVGJ9GU0KqNYnpvOzOUtFUiX5mhqeMVjlwWAtzRHmq9qowfyLtMJhwGC6gSmCw7TuRhojqZ30X1yJUWmi84syUpbBW5Mqb18mvInc4dPZ7rsF9578lpSYC6tlT+ZMSYamk6J9G5V/JK3seuCSr3xPAMEec66QOVAT7+ii4HfRWPbtGmTFWtEKcylS5e2LrEVk+g9e/ZsqzKjnBnDskoVQ8WyVJZRooVBlEHi3FX7hK+r3kXXdHEeqvfx/HTv1N3D9zGQU41TRwvT+EVgKI7JFLsi014csyjf+XmmOfFvKC5lypQpVnErcR4m9463Cpx+V1Kkl3EMgqxwWDiw8hYFmyhQZOWmQjf0LLEammw2051iaMPQNVXJVB1AoN9zqWWORhYXRFb2OoAg3iODCpFxKD6A3mMCCDITewMITENxDPR3LjkrnlRMIIuBAyNwecOY0qnoHhJidJryVVialKU3gEDMq6p3cDMAgqr/iDdBr4pBMAEEXjtTmqMurUunmH3JYvAXIPDek3nDpLS5DoIKWJh4yt80R943qgA7ERT7Ym5nHjYJWM5iUJ1+bwZAIPrJZcRpztQJkoIWhw0bZh0KaMwffPABXn75ZUtpUPwRl1TPtDnTvtApb93vg9/fXhSgtX7llVeuu4V4PU0yIJA6CMYsBlIAVFVORkAm4WAaoG7z0fP5FKASRIEIKRMxTFkMJoXDillmFVMdBPZNySmhNKdATu4iDXld+E8O/lGVKmUXg0hfBj/0TJWVQ2WG43fRNVWaI9FG5+tkoa1CqiaAwFkMsrWFxuItF1uVimsCKhxhLSN7Bgj++hJNPE/PJGXKlRvF05KKN0SwqrMgmOog0FjENEfx9KnrYCqab3WHBHk/mABCoDnhNHfdCZf4nlO+xJOj7h5eS38sHAz2yIKgSnPU8aEILGWeMslRkedluhNvbNiwAd9++61VQp1qoLzzzjtWivP8+fMtNyMBBKaFDgwEQcLtpfT9GQ0BhEGDBmVwI7Ps1dUaIhmrslibDj9GgLB8+XLL9yWbXFhQMYPJDCz+2xfTFAt6lQIQiaY6CTB4kM0z8qlcvE4bkz4scEQAJPu6RCUsnsxFYa7zgYkLJtMqK2ioO7nLIEBHQx4DMU7r1q2vmyVFEKBjNhJSJBT5RMr3qAAC00qmuzguUy0J7myn4g8dyGIQoPL9mQACKbfrrU1tGYMURcAk01in0E1zpmtilTKRp5gPVYAuEAsC0ZeeyUBA3Jemk7vOumRSbjQn9sfqrFKqvWQCRSplz/SSU0WZr1UHCxEUBwIQaK+oQJaODwMFCAS+iUYqCwKtI9F/48aNFkjYuXMndu/ebVkR9u/fj0cffRQVK1ZE4qUkHDt1Bm6XGwIn4+KVa6h9d0XyXWZKk/NHSQV/+89RoG/fvlYquxhYajrE0EgZnKv2nimehMDqdVAsNmuiPuUtWrRAoUKFMtVC+OdIE3xzVlGAQdT06dMxYsSI68wmAgRipmCaYzDNMZjF4LGM/RNBiiLIIkFO/ye3CmU2TJgwAYcPH7YAA2UtEbh94oknrFikE3Fn8HfsKRTOlwshDrvHogAbft6yE+1bNALsNtgFEJxVciX4nJtPAbIgkIuJquWKh1/RYimD8ywPUiSA0K9fPxQvXjyING/+mt/yNzAQePXVV611ZjQaBAjBZk3EjBwQqbIi8Sk2mOboAY83M4tBtiKRhYZKqROwJ+sBu+4aNWqE8uXLo2fPnpYFgQDC0RNxKFkkP0JCHB754nZh7aYdaNW8AajNj8PuAQ7Bz7+LArcNQKCBlCxZEskpqUi6chVOp8c8n8ZtcLmB/Hk8JR+Dn38XBTjylk4eXITFkiFuT4cwDijz14KgCvRkhUN/yvXK6TtTJggJRBqDtyBFUZByKiOPXXdNFr5iJUXZdSaa/UUTPSsI2Y/PJj+anypgj57na7tnXhM27avqVuiUFL1fzAmXuVSM/5BPq6KZXr7Grg6ZhmKzJpUrhgGHTENdsSkag87VQdd8bfcsugvld4k8zzUGZDqxBcFbkKIvfMP7QUdDdqtxGhuPhX7P+5L+TrVPVq1aZaVAUpAyyepx48ZZAOF4XDx27N6P/0ybjIuJF6xHlCpdGhXvfQB9X2oNtw1w2NKAwy0UXaI7MpDXknSyWfAm3XHi7Tn0S49UU33Uz7qdYzQ4SFG0IDBP0bh1lSXFwGeeH/ERuxjkOdP32mZNbEEgpjty/BR27jmEsIhQOGh5bJ7l2XPwOLo/97i39Qlevw0pwBuVAYLcD95bytetSnM0lVoOJIuBT1wq4KMrAyv6klWxMN6CJVXvonHIQYrMJrqYDG8BwqrgRQZgdK+vHUzpHhOdfMli0AVSqhQw0Vfnxze9i8ZpSnNUjcH0LhPPk7AMtJujahzeghRJyMsAgearCvSkvUjWBApS7Ny5s8eCcOoMdu07iJjICDjs6cr0z71H0bHtI3CT+9B26y0IqU5PHRK4nTgZG4u4c+cQlSs/ihYpjOyhdtAR1LPHbLDBBRfssLnJOUJ6xw0nBay63HBTbRybDS4bYKd/U0yF2wMECEC4rGe4re/oT+v7NJeKzZ2mw+j3NhdcLnK3WD+whkb/tdtvPXjyVU34AhDkZ2V5FkNGgBCHU3FnUapEAYRcJ6QdK9ZsQIenH/F1XsHf3UYU4IAt8mVRwIsIEGgjyemW4tADSfkyKZysTnPk4EBVnw7TOLzVQdDVBCDlIZvbiYayJUOkIY3DVAdB1+5ZF7BnCvQ0lZ3VZeEwnVSnEW8AwVQHwZ/KfERD8YSj2j6BAARdUFZWg2ITsAwUIJhSRSdPnmylOVaoSDEI8fj1991wO1M8yi9N9R07nYBeLzxJmlHZF+dmiygLILivYc2SuZix4Afkyp8bVy6loHrTlujcphkiwuyg/8HmssZos9nhdjst5U1Knuh25u/tWL/tOB5r9Siy0eTcqXDbHB6AQIdXtwcw2Mn6dN3W4EoDEXYLQHhCNz1wgizhdnofgRH6zpa5MN/Npos/z9cBhJuR5sgWBCu4UQ5SJN80WRAOHz+FPXv248vPPoEzxWmRl2IT8pW6E706tvJnbsHf3kYUoM1G+bTEcLIFgV0QKlMbpzlydKuF0Qnlp3WbkwtKsaCn3+maa+nKiposCHLWCZNWBAg8Lr7GwEg1Dq5LIJtB+R45ApifqduYJqBCz1RF4Kto6MvY6V2qOdG93hrX6KrlsYvBHxrqGpSxq0AFOGiMOhqa1ovuUzVr8kZ3dlnIW9Ffnuf7mQ9NdNJdU/EUWSq4DoI4Rm80pEwGBgiXLifhUOxJXL2abJ2+rY/bhVSbDfdVKw8g9B8JUkx1OXF+/ya0bd8bdXuOR7eGFbHvz01YvzMOPZ6ugeGjZ6HnqIm4tnsllv55Ea/1egYLPngTX67eisIV6mHc2E7o06w5NsWF473Z01DZFovRk2Yj0ZUT7bv1QNMHymJ8j97IXr46ft+6FU890wprF82Fu3hNjBjSF8mHfsbId2bgoiMXuvQciKLO/Zj9437kT9yP0o91x9P17gbsboTcxhYEymIYMmRIpvLYzL+01Cp3gSrtm36r43v6XtusSbQgHD52Crv37EPqtSTY3S6Qmzo0LASH4y6h6/NP3XKV53Qlw+Vy40rSVcvsRKAvNDQCEWEhFkr0IENCg2n7Ai7r7y5CpBamTEOQNo/5ymNUclmo0rrnuokr7Xdul/UTQpdOtwN2C2V6ooIto5jbc7cHpHueSaYvC43ST8nX53bB4Qi55bTSvVB0MfTv3z8TQFDVQRAVoq7ds3ySZcFoOrmbTr/c7lkVg2AyxTMYkQWzSXmYujnyJlLVmTCZx3WgyAQQZGXJcxD98fK6mk4PJguCiYZsrVApN52SFWMQVGNkgKCKT1BZTUxzpuerLAgqRSqCPp0FQVe3ggGMzq1GtNe5M0TgJs9ZR0NvHUx1NHz//ffRrFkzVK5c+baRM5lBmBN//LAQ7V/5BMvXfI4S0VRszeM+cBxZh9L3d8Oc1duQuH4Sxq85j28mtEGbVkPRccRonN/+I+587CXs/3QUVh7PhfeGPY7H6j2Gx8YsQL3Iv/Hm7NWYPvV19K1fG6XaDke+xD+wbEsiPpkzCsO6dMEzvQfhp4UfokCLYWiYYy9mLP4dTzSohNfem41h46ei+f3VUSR/TthvcwsCAQRyDXMMAvEVW6s4BkEnH2TwYNpfXAeBC+IZLQh//rUX4eFhCLEUot0y5ew/EoceHVrccmZ0ulJx5fRfGPHmTETkzIUQuwuu0Gi0eOY5VCtb2DI1Werewgp22DyOKLjdLktxJ505is0HEtCw9p0WkKC5WCY3mhuZNenbtECLNO8XyG5i+a7SgIDH4EXvsNODr9PAbf3biTPHD+PE+VRUrlwWYQ7yZ7nhsN9+AIEsCLKLgSbjL0BgAugUjqr+ADP2jboY+Dk8BlOtA9M1Xac5VhD+mMeZhroN683F4GslRZ67qdSyCSAw7WUamkzg3lwMFOsgK0x2W/lLQxOw1AEEk3tEFYPAcw/UxSAGiIpA5EZcDLrAXJOLgQACV1K85ULZxxc6XU7s+e9StHt5CqYuXoRaJfPi8vnTOHTiHMpGHMUd9Xtj1ppNuPTjFLy35gK+//gVTH7jNfx5LBHh2WLQsd9wXFj9NpYczo+hbcujXrMBWLLzbxQ/8xM6vfwuhr8/EmMeb4IWk9ch54GF+GJPKJbNHItuLeqhVO1H8eOKL5CnWhOUikmB25ELFWKSMWzRPhzcPA+h5GpI0wf/azEIXChJFUNlAsxixVwtQDgVfw5/7TmA5BQX7JY/iIJb3Lh8JRktH6nvI2tk3c/cLicS/l6Jes2HoV2f/iifLxxfTBsJe83e+GBIC/y46nvsjj2LanUbo8F95bDr1w1Y98tvcETmQ926tfDX6gV4b8kOvDbyDdQrmw3Lv16Ly65wPNqqFfKHXcNPv2xCzXqNcO3Yb1i7MwUP1iyGnbv2IO74Sdz7cDu4jmzAuk07EVWoDJ5r+wRit/2EXbHncfniGVxw5sKTjz6AzyYNx9rdFzF49Hu4/65CsCHktksrIgHGAEFOc+QTqe7ETKcpRpaiUJQD9vgaK2ZWHOI9vmYxyCcwGVjwdV+zGEQ0TeMRAYL4LvaDs3Lja2z+ZguCPD4RjKhOj1mZxcCnWJVLiNaKxkKFrXylIac5qjJBOM2R11Kkh7csBn9pKIIReewMEKjDIX/4RET3qfq0MEAQLVLMizqeZ4AoBimKc5ZBMV/T8Q2DRx6jzIeiBUFladFlgvwrAIIzFUlnDqF/j+44FVMVzzSujoM7NuLItbwY07sh6t/XEi37j0LKgdX4/lQhrJ/RBTPnfoOc+WOwZOYkVOg4DQ9eXYqp6y9h3JBn0eWZZ9Hw5cmojAP45IfdmDhhEF5uWBct3/8ROfZ9iiX7w7Bkxhh0e6Ie7mzeCX98Mx9hNdugadkInE4KQ2H3UfSY/ScOr59rWQ443+HfBBB0FgSRd3R9kuQYH/Ee2g8+AYRUKq2bnGJV5Ur/eEzzUZHZsk7z+/ikVJcLiQeWo2HLseg7chzuLBKBiQPaIblaT7SokIRVe2zo0aoa3h33Pjr0GYDFCz5F07btEH56DxLCSyLl8Fp8tO4kZk4YjcNbVmBPQiSS9n6PzSEPYEavWhj++rsYMHoSLq59Fz0XXcbkQQ9h9KiJeOiJNniqzXNYMesdFKlYAcvmzsfDr81Bzi1TMHnVEbzY6n5MGPM+ukycC9tvc/DDkUi8M24kyhXPCQcc/0hQkI6kLBRNAIEEkRxPIJpbbzVAkAVpVgMEb2mOOsHMoMgXgMB0p42ZlQDBnzRHUbnJQYp8TQcCvCk3bwDBXxqqAIIILnVpjiaAQLQS01JvFCDo+NAkfE0gS5fmyOBGR0MOUrydXQx0uCMlfOrIHnz5xRIcOHoeMQVLoHHTZqhepSi+/ngaNsc6UaF4DpxJLYje7e/H0vnzrQNYeI4CaNe5PRzHd2Da/G/QtG1H5E06gC++/RmukBx4oHEz1K1eBjPffB13t+6HbHFb8MdpB7q2exwLPpyIEjUfQX77aXz25fdAaA7UatQMxR1n8cl//8aYAV3gEApHqYC2j+rppv+MXAxioSSdBUycA+1zsTKnDGJlsM9y3ieAcNNn7OcL3E43zv/9DSpXb4ccBQvg8ukTCLv7KayZNxIfjx2MzzcdR/niRXH8+AG8+PIQHFyzEMs2HcX99RuiY9dOSNz8GSb9mICV80di+7qV+Piz77Bj2wbsiWyAjR8+h0HD3sLQt6fj7JrR6DP/AqYMexhTP1mNd999CyXzZceCmZPw85a/8PO6H9HyzWWoevpTfHk4N6ZPHIxetYqjTK+5qJK8AWuO5Mbbb/RB7tAQOEPdCLHdXi4GtiD4UweBhZS/FgQ2+96IBcFXgMAnd1VQjs66QPNigCALB18sCHKMBJuXacyyWZ1PubcDQNAptxu1IKiaqIlxEiorjIqGTEfZ5cJKPRCAkBV1EPyxIKiE780ACGRBaNKkyW0dg2BZ3Thei8reU5aCx8NrpSumgtIv0+PEPImPdLInpy4FflGGgidTgRIYXG4nbO5QuBxu2Mh/DGriR1kILjjJbUxuYTtHl5Gv3rrZynAgqOKihn/0XEqb/JcUjpKzGHwBCIFYEMQ6CPQOrYvBT/19039OkbCJf3+Nx557H+PnLsC1Xz9Cm2GLsHjZIvy26F38mVIJfdrVw/lzV1CuUgUknj6Oo7EH8cOS+TjsuBOP1YjE7B9OYuH7w/BapydQqGEPRB9fg0mbw7Hmw04YNmwEXuw3Cse/ew/vbsyBacOaYNbC9Rg/fgzyXFiPh9pNwsAR/fHFxDdRuM1o1L20Cstjc2PqxIHoUa8synSajmrOX7F8Z3aMG9UbRXLnsBjwn8g7NlkQaLMSEpWDFFmBEVOoXAycxaAqGiMrHBbkbI5XWSR0dQRo7Nz6lk589AydYJZdAiKYEK+J4EEGAt6CFHUpf6o0R6YhAwRxHZgWcpojz08V6En362hI8/A1zVFHQxUoot+qQBaf6lXxBN6CFP2JQRCtLbpmTdzFVKSvLkZCdHfJBbto/r7WQRBpSO815ZjrghRNNPQlSFG1LzlIkZs13XRBHMALKA7M86H0Qgoet6K9reBwJ1U9SIsHs+LCrOByESLAE/zNsWBWWqPbE46eFmxOUMBtd3nqH1hghGocUKokvYTiyDwxZ3TFbsWQE2hIpbKSt9UBzkRaAggUpEhuYdklwNYlHY+KcpFlCmfhyDLA5yDFAPjgpt6SmupE0smNGDr2C3Qb8ioqFXThnUH9kFLhUTS5MxqLlq5Bofw5cCElCs8+3RQ/rVyBC8kOOK8mIG/5uqhW1InJs5aiScsXcXH7Yuy9kB3lCkXg2w1/o8+A3ti2bA7iHflQNNslbD2VE32fr42v1+1At84vIWdqLAYNfRf5yt0Jx4WDOOIshaZ3RWDPhZx4uWdbTOrVFoUfG4wq4cfwn8/WonWPwWhYrYS1IW7XIEViOFWpZbnMrmiKJSDAAEE0+coR/Rz9z9kDcpMsNmWpgtroGldSZPMYo2XVfaJ5nK7T+EUlR9/prAtsQaB2z6JQt8SUi4qpeNIILSSdZooU6aE64YoZE/I9JheDvGFFkCX6rUXQII6PNx+/k9aK1oWCB3n88thZoIimR6adiob0nRyfQN8RQKBYBxXviIGv/tCQ3yXfQ/OUAQIDM909fF0GCPy9DAL5nVxJkVJ7faUhPVNMgRSVus5CQ/dwmiONUbyHn6fiQ7pG7Z7Fbo43VQgH+HAPQBBrG3rCvT2qOr02gRVmbmWAkTb3nPozfqxySGnWBb7mySvzJI+lvYdAgZV3dj1HLe1tnndaCtMyX6TdG+C8buVtJK8HDx6cCSCwrGUQICp8LrAlXxOBqgweGCBcb2Cnq4NwKyfvy7tSnW64Ui/gTHwSYvLmQUSIHRcTz+JSkgt588YgIf40EpKSkTtvAeTOGYlLCecRH58Ae1goChQoiBCbE6dOxgHZcyJnSDLiL1xFnrwxuBB3DpH58sKRfAkJSanIG5Md5y+lIE/O7Lh4+Qpy5c4Lh92J+FOnkIJw5Mhmw7mEK8iRMzucLjdy58mFcydPICRHfkSGpOD06XhExeRBTHROK73ydkpzZOWiy2IIJKKbhJS/VQVN94gAQa4qx/fJHe9EEEAKTEbSpgh3XRaDKOhllB3InBl0qAol0fP8rSpouofexVkMDBDEPaaLbhazB1Q0pOsmC4LqmikC3985M/+qAAKNVwQw4nzZXaRygTCA0dXqULV7Zvqq+JD5hhS9PzTUtXumd6kqKTItKAaB0hxvZwuCL/I9+BszBUyFklQpsMw3qswokUflt4oA4V/lYqDKWlRykxCnjVIXCSPaSRlQGc8QjymJgmEs/5anGoJlUrr+d48JyqqhwIjTqryVApfbAbednpt2p408VSGCCYuwKfm/6HkOUDyE20EA1A4X/dZKlUlLh7Q54ILT8neBwhStdMfb50PM4U+QIgsirqToT5CiKQaB4hlUZYBlgCAiXBq7KcCOfutvDIK/WQys6OWgN6bTrcxi8BakyFkM/tCQLQei1YQBmC4C31uQopzF4I2GIlARwRlbQP6pXgyiNcNbkKJqzqYYhBvJYrjdYxBuH+n37x2JrlmTDMDF/RJIDILPWQy3Gyk9gSkeo1G64YgqFTismgcciEIOKxs5mixgkFYkyfJfeT5Ur9vuojKdHujA39sIJNioCrgHfFj3Wv4rqv3t+ZNBB/m0qCyox6RFv/SAEn4LBcFYFc9vw+IbtxIgZEWao6zcsjqLwV+AwCfV2yHNMVCAcLOCFFUuF29BivIpnM3+ckYCAzD683YACN7SHP0NUgwUIJAFoW7dulZXR/HDYEpl/eLfydf8lfmihUS2lqjGIu5l+V2m+1W/VT2L5yxf09GCeUpHh1tNQxP9hw8fjtdee81roaT/twDBX+YN/l5NAW8AwdRYx98shqwACPIJMggQMnbfVJkQaeWDdRDS6cTumP/FOggTJ060YkAKFCjgF0DQFcrxpujl/cjxQQcPHkTRokUzpJLygNiNo1LcolVG9WwVOOAxyoqd439k65cOOIig0wQSVCCLff8q15Q/gITnYrqHxvnNN99Y7b4LFy6cIR6GaEvjU1lO/19ZEIIK/8YpwEwYrKSYTstgJcX0QDBdJgBRy3RNl8VAgov95yoha4pB0MUTsAUhV65cGTaEKc5EFa/Bii2QuBt68e1QSZHmPGnSJJQuXdrqnyN/OFhSJTl0fC8GlcpWANN6UZn+bt26oVChQpl6AhB/sGtSfKZpfLpS1iY+pDWh63IbdnqnrEhvdBwUm0LWL9mF7I3nTcCMY3xU6/XWW29hwoQJmehrmtdNraR44+oo+ITbjQIMEChdJtiLwbM63tIcRXTO66lSOHxNzGJQnX50zZqCvRjSqcVuBl38TrAXg4dWRCfKYrCaNVWokIHdvNHw3LlzEKtR8s0mgKBSbuxye/HFF0EggYCKbIXQtVRnnqd3y9YDXRoeAwRSzmIEPz2DG5QRQJABqU6RMp1MDcVUPTco04osUv6WF9fRkEG4jueppfeYMWOuZ55xtpYJIJjoqwMjXtMc69WrZ5kx5EX2ZgLxRxnqzFj8DlUAm2iKUZmDvJnGZCYUhb2vvjiTqUpG27ox8u98faeOrt7mazKZzZs3D6+//rq2M5jqXmIcWpdgN0fPisgK/UYBgu40xQJYZcqUUzNFXgl2c/QNcLCS8ZXnRUWqypgR10slQ3Xm8UC6OdKzqJtj48aNUbFixUyiwnRCVwEEE6/pAAfLxJdeesmSKSVKlFAChOjo6EzjY/5VyTIxVVQGDzoaeuN5FQjgOctuCXmd5cETQCAgoqrVoUo/ZjqpFDNfoz91hZvIOjNq1KjrMQiivGH6qECRyvXAYEQ1ZxqftpsjKw0ZWXoTUjrimjYftYhVFd2hd82aNQvt27e3cqtlxasjog75sjCn+1Sd40ymLN28dNBvt8QAACAASURBVPfQu0iJcnqezPi6DWuiU6A01G0iGuN///tfvPfee5a5SgQsZKKTc9n5OmcxqNbMl+6A8ga70WZN8vNMJ3cxKl6+j0ytJLxUJnDTKYauyfxEz5CrNorvo3Go0hzpN4HQ0NdCSfKc5UwQUdjw/lL5d8UsBvGZZEImYanbX/4USqL3clqi6uRG71VZEEymZ5qTzrQbqItBx7/8LtWcTWPk4mByai/LL9W+pHdxmqMKIJjk1NmzZ5EnT55M8lXH8/Quk4uhY8eOlgJTuTp07gwT/+oAuGktTam9pnRb3ZyJF1mey3uI9BfxvIpHTUW0dDTUATB+b6dOnTB27NhMAEFHJ5YpgaQ5Evghl5Cl/+Q6CJROQShQZfJREcMb4XUKx2TiatmyJebMmQOVn1EnpEyd7Qid00dOq6NFUeXwMxPqxm5SbmLRGFnI6jYE0ZB+qzIvma7paKgTUoxUycUglloWQUAgAEFHDzHlzx+AYKoqF8i7TABBZ/40CXod39AcTXOmcRB/qE5TJoCg43mTAjCdpnQ0NNEpkBgEFlKmwFcVqDC9K1CAoBPMJoBAayk2axJ5WLdeJgUWKEDwpQ6CDBBMCp3mEQhA0NU7oXm98MILGDlypBIg6Nx4JuWW1QCBDz+qE78OIBCddHslqwGCae/ROHQAweRiMAEVHWBmFwMdBLUAgVEgKzgZ0YuKTzx1yqBCleJEkyXmFZUb38co6qmnnsLHH3+cASDwNRaW4j0iWpKrkNE1BghskRBNOqp8dt7IstLm+0ydCOmESGZ42bTDSoUFoq80FBlApq+KhjRfHr+qsh2NgwDCoEGDMlVSZGGpAipEJ10Wg0wPphMrS7mCHW88VTARXeNKinKdfnnDivSQT+66azINvTVr0nUi9LcOAoOHf6oXg6jcRKEn0oPWS7QgyNfkvcd72VsdBOZDcc+yAtP1YmBTrMqy80+lOeoAgjhGlpXe6iDIfGhq1iQCBJmGqkJJbPFlxceJ25R8HZJWaZQAQt68ea9PSbxH1xHTxPPkYuAYBI/V06ocYymZxAuJiI7OIVSmccHtsoHaQIvvssowe0opwulML8rlKx+yBUHVwVQEgrLuYD2l0h1yKjHLNgIIcotzviY/T9Q3dE3F8wwQdFYzou+4ceMyuYV1+oFlpUhflT6X9xc9jy0I9AyfejHQTSrhIJ4QLLQhdMbydgonBmVXhswABBDmzp2LmJiYDAdPHod46mDiM1pS1SvXAQSdotIBBBaINwoQVJYFWYjyu5gBVEpbR0NfAAKV7WQBISp0nSXDBBB0Vhgd09P7TDRkgKDqxcDKTcXYRDOVn5HBg2rzsYvB2gwS/+oALs1Lt9FFC4JqjL4CBF5/XktVFUBvdRDoXhKWRG9RKJpoyABB3keqvcebk0AxC0sVb+sKJeloKJpbbwQgMA1NYESlHHhedI1kB5lbZRrqaO8LQFBZTUwuBtUhjBW6qt2zqKjsDk9NF0vv2gGHzVNpVAYI4sFC1WjMREPiDQYIZH2mksmejgqe3ggXEs4jPBudSB0IDaOBUAM7qoxL7blDrT3rcnlobQ8JQ4jDBqrObAJZKhrqUntZT+lkbFYBBOY33fN0NOTDA133BhDy58+fAdT5ChBUIFZFwyBASLNgMJVViioIEDJXfwwCBE+hLBakQYCQjt2DACGdFrcbQHA47HA5k7Bt807cWbs6sqeVgM5qgNC9e3dQMZ/ixYunEcPTvzHp0lks+3wx9sUeBxzZcU+9xmhc7x5EhNK4XAhxeHpPJJ06gPHjP8A9z/TEo9VKWwfSIEBI5yu2IPzjAKFHjx4oVqyYNbLrJgmny2qxmd5XwNO+0w47UlJTlQtpsiDQNVUFOz45PPPMM5g5c2YmC4LJh8cWBE8FRW4O4pkDIUt6NscgMMJmZKkz+dB11cndW4AdnXxVLgZvflCVFYbmrBqHjobiyVM+TfOpY8SIEejXr18GEyPdp/LHitYFmjdnMYg0VM2L11KHik00ZHOr7I6hZ+n8oHxyV1kQdHEB9Dw60efIkUOZtSMGvsoIXAUQ+CQgWzJEEyOZJul9/BFPe6pKhExHf4KhmK9p/OzGES0IJhrS+/wJsKPfixHd8omfeUrF27r9wPtcHAfTiZ6jCnpja5WO51VBpTqe57Whe0h2sGvSFxqKYxdlKANL1ThobvQeGruqv4OKhryXp02bZmUxqNIcPfybgvVfzUOXPpMx+P13UDJPNlS4oypyhLixc8smOGLy49LFSwhPTcC+ExdRtWZd3FOhCHb9vhlbtx9A/pIVUKd2DURHhCDF6URYaGi61kr7G72H6yBQBtx1+tncWDVtIEYv3o/n2j2N0ItHsfSHP/Dm9I9QzBGPTRs34+xloPK996FSTBKGDHwDdXqNRlXHIVzIVgp1yufH2vWbUKFOU1w5vBmHz1zFpXNxiCp6JwrZTmLn8auo+8D9cMfvw+8nXYi+cgwnrkWiYYP7UTBX+h4T19lfS7fKj0+0J4uPLotBFdPA66XjQ28xCD179rRoTFZfkQ9ZRqmyH9g1pZuzSqZw3A3L+Uwuhl69emUIUuSJuVxOOOwOqwFRioUNqZWxDc5UAg5U7jiji4GFJX2vGjz5EcmFoDLDtmnTBh999JFfAIHNOmTc4lainvdmBgisRFUAgQWRx4+mHruvQYosIEQlawr01NFQB1SoaQ0FvMn0NQlLehYVSqIgRdEH6U1YEn1FgCDSUBb0Ig11YzdFMIuNa0QhyyY6nWmMFbNKMLPik6UbnX4pIEflmtIFL/kCVFTAktbFBBBUbgQTQPAlSFEFEEyKmd6nSo0ygXOaE4FsXRaDLgLf2zhUNKTxUdwIdeAUQZaOTt4EswgCZd7IJCyFjp66sdP7mG9kPhSvyXKPQDF9p4rLUQF33n9UB4F6MaiCFK1x2FKxatYYtB2+FDM/nYC/Vn2OvDXa4dmaLjzXYRQe79ABS+bPQfOOvRBx6HusO5EbXZ68B5OmL0WX/j2wccViVGnSFq2a3IcUlxPZQsMyAQTiDSoDTIdLzozyFLu/gKfuKI2SnT/E232eRojrKv4+GItskRGY9/7bOBNSFPeVC8UHH6/BsNeH4csPJ6FezzE4vWggYos9g/Ev3I3Wz3VHpw9/xLnPemPx9hTUKGbDwjX70KFdW+z79Vvc/UQPFEv4CUM/2oa+nZ/AD8uXo1nP19Hj8ToZxmmioWmf6w4/DIplec4ySgX2Wcaq9gnzr64OAqc5iu2e+R7VoYh1m6rkt4kPaS1pbsYgRY8fSbAguFxwO11wh3r8Su5UJ2CBBTucztQMgSYyumElK/t3KcCOshREpcgDp5QZyu8VYxD4Gv2pCqJhpHfqyJ+YPW8lnurQBRWL57E6JPgTg5AOiDwAgReMlR7RxVsMAp04dIF+InMwTUQfo6wQdT4mGo+OhuIpRg68ofv8CVLkedNG8bfUshyD4CsNSeHQGnsLUhRpJVoQZMGsC2Ck8Yhpjio/nSpIkc3Iqj4CqhgEETD5GoMg3kPv08XdqE6cNH/RHytLdG+9GFjgiPQQ45BkHjUFKYonMFE2mGgonqbEe1gpEjAWU7FZUMpxUkxDFto3WmpZpKMMcK9bW12u6wBBBvwmGnIMglzkh8EoZ4KI9KBrFKRIhZIqV66cCTCx4vt79QzUfGYONh77CbsWvoeFf6TixZIn8OoPbkwe0BQDxn6Kj/8zGWFXtqNz16m4t0ohfPbtL6hRpRIO7t+DhzoMwvCX2yMnyXoh9ZzpS+959dVXQadcKrdsrQcdIV1nUL9YUTz45jd444VGVq8b6pV36vBu9Ow7GE92HYo2Targ6eoVUbPDGziycSUe7DUWx2Z3xf6SHTC9azU0e+Il9Pzkd5xf0BG/JN+N/k8UxkOPDcOK7b/hj+lDcSBXfdRM2YReyy/iwNcj8Ubf3giv1Q3j+z6agR6mQE+mk69BijQ/DlL0JR7OFz70FqRIWQxioSTmA1E/yHLvRkotawECmZ4ZIDCFrc1MFgSHC8f+WotWrUZhwoqFKJrNgZiYPIiMCMGZU6fgCIvA1eQUhLmTkZCUgtz5ClhtkxPOxCE+4RKyR+dCwfx5ERriUKbZ0PvoXX379rWIIaaDWRvl6iXExh6Hyx6KAoUKIzoqAolnTyMuPgEuWwiKlSiOk3t/wuDhH6LPqLdQPGcIChUvgasX4nE+8TKKFs6PE0dPIDwqCpcuXbbaPccdP4mIHLlRpGAexJ8+g/Bs2XAuPh5hkdEoVCAfwkIpoCbjR5dHTr8SsxjkU4LO8kAKTAQj4ttkBhCvqVKVmIZ8EpTHQPQlgCAGKfIzdSibkS8HbMn00FkDaOwM6LwpKfG6mMXgKw11bgR6rulaIO2edUGK3t7FgEQOvhXRvsqipqOhLo2JAQKNU9XuWce/vF7+uBiY5wkU66xjuufp3DQmawW9T5eiR/epTlOm9fKF57n2h7g2pjoIbNlR7T0GMfJ+EAGCfM10+tXVQUg/yTpwaN1M3NPqQ6zZ/RMKn9+Fjn0nIeryNlTpOguti5/Hi69Mxbgpk5Dz3BYMeGs5Hq5XEgvWHsTsKSNx7XISChYvjWIFc1mZB2FhahcDAQSyPqe7GNwWIHj3pQb44XI1TB7XB9muxWPcqIl4qH03rJw1FjVb9MDTDUugbcMn8fTAUfj92y/wYO+xiP+0F/4b+hDGtbsH7bv0x+DFe3D+0874zVkVg1oUQu1mb2DN3l+wecpQ7I2sg3tsW/HKN8k4uGw4hvTug2y1nse4Xi0ykNFEQ9160QN066wrL27ayzo+JD6RwaPMA6oYBJbLpnR82pM666jOxUDyl92gPmcxpLpS4bBfwYcDeuDVeZsxYNjLOLX/T9Rv2weNy9vQt9cIVHugAVatXocmjepi++afkbfKw3i+WQVMeO8/KFiiNBKTruKZF7rhvrtK4bxQ6lM+qRBAoKIQIkBwOVOx8uMxWLD6EHJks6FwzYfx6rN1MGLoMJyzxeDi6ZOo+PALaH1vCIYOm4muXdti9JgpmLhsLa78/gU+WbYBrw5sixcf7YQqLVsj9s/fUPiOqsh57QQ2707AmDeHYM7k8Yiu9ACcJ37HscvZMXLUSFQqkS/DWtHG82ZB8JbmKAsOU6ooA4RgFoMnPTaYxeBhRz5ZmiwIJJCCWQzU6dVT5EcVa6SKOBcB878+i8FuR8LfP+GZzuPQrGMvdGzzED7o/RzeWxOHTVvWwbXzO7w05F00bd4cl4/tQ7YK9dGheVXMnDINIYXKwX05EU2fboe6VcrA5QTCwzO6GNiySwChd+/e16vwUhwYRamdP7oNI157D8mhUbAlJ8GWtxyGDumJ7d/Mx5o/Y5E7wom41Hzo3/kpLJ4zG1Vbd0PeYysxfu4G3FOtMv7YvAU9Ji7GhR/GY4+7HNrdXwAv9ZuBqZ/Pwl+LpyE2212o6NqLKZuu4cu3X8C0995BtjseR482D2aQ276k4/tqQaAHq9IceV/+P8xicCGVclYdwO6lk9B0wAqs3rIEP00bhU1XyqPb3RcxeN5+vNLxAQwa/ymWf/M54rYswusfrMcDlSIx9asNeK5lc/y2fj2adhuKl9s/jqSE89o0RxVAcDrP4PG7qqL6y9PwYoNyiE1IRsmE9Xhs2ErMWDgXsUvGocfcg/h6wcsYN3wqOnd8Cj36voZPNu9FyuZ5mLJoLd4Z3QWPV38EnWYshm3nEqw5lhf/GdcRHR57GM8MGIOv/zMJldu/i+drhGJwv1fRbeT7aHpfpSBASKv056uLgTeKzmzmDWQF0xzTQQCfpoNpjuk08bUOAvPh/2eAYKM4LFcyDh04AJc9DEnnj2LcsOGIbtIP0wa3wr6fl6HzmIWYMm6IFf+Qr3Bx5InOjsTzcTh+Ih5RMblRsHAhhMONFLcLEWERmeQhuxhEgEAxCH/+vg1vvjka58/EIS7+HNyOMBQtVgJR2cOQcvUiThw/iaRrTstCERMBxMXFIypXbkSFAQcPHEFYjmi4r6UiZ5FicF84iWu2cMREhSI2Nh5Fy5bA1fPxSLVFIBxXcfqSC6WL5sWZU3HIXbAYvl7+ZRAgJCdfd8er3KdZmubocTE4cOC7yWjcewXW7voe7i1L0fa1ZWhS6AictQaidblEvPjmEvz88+c4unEx+o1ajhpl7Vi87Ro+fX8orrqcKFy0NEoWyoeE8+nNQnyzIJxGg7Ll0GzsMnRrWAa7jl5AwRPf4Mmx67Bo+QocXPIa2r79O9Z+NRCjh01HtxefQvfew/DRz3uQvGUOJn+6EVPffglP1myJAV9vgnvjNPwUXwofjuqI9g3vQZOuI/Hd3Clo9PpXaFk2FX27v4DnhkxG87p3BgFCECBkCKbVmQr5NEUMozKrkyD1NQZBBFlyDELQgpB+uJDBqL85/P/zFgSHHW63E+T8d125gjXffIEtR1x49pnHULJQHpzYvx1zl29Gl07tkDc6CqnuVNjsIVTiyKpmYHfbLFeBi6LPUp0ICw/3DSC4XUi6ehVnTsfh4sVLiI6Ktiw5bpsz7dk2pFK5csIv9D4X1UewqiPADQfczhQ47CFw2dywu+xw251WPBnVc3DTb0McsFvPo+FQbIMNKalUr8eJyGwRKF6idBAg3AyA0KdPHyGXVTjJuF2w22w4tfFTPPjiexgwdhKebXYXBrZ+HCt3XcSSnzcibOcydBg0Do8+2w2JO1chqXA99Hq0Inr0fwdNnm2JuL378Hj7rmha5y5cOJ+QqZQyb3Yq90wxCGKLULcrFbNHdceSv5JRLo8LR7NVw5KxbdD2ydbIf+9DOLbtJ+Rr0AuDmxfCqDGz0bXvC3jr5ZfhrnAfCjhP4birAD4Y9RzaN+mAfp+uQfKvs7DhfHFMHtYBXR6rgwYvvoI1i2ahwcB5aFzmGt7o3w+t+ryJh2pUsJQD+zfZ76MraMGmJ5VLgINhaKPIiI6eq8r2oPfqrqlq0ounJtXz6N3Dhg3DgAEDMmUx6CK6WfHJWQy8A8WobXFXmsZuisA3lVrm+/yhoSWY0mguu3dM3Rx193BQnC5TQbVeHKgkd3P0RkMeu2otdXSnZ4pV5TJIyrR0VuJfHpMc+KbjG52P31R21sRT9DxdpgLH0Ihj5/WgIEU5joPXRBWD4G295GBCficH5pLLUBUbIgYwyzRUPdM0RrGSorxeJhpSMDdlMfjazZFpqGvWpFtjbzTkLAZVoz9dOXNxXvJ+9sY3qnU2lRc3PU+3z02y/lbxPPMCZTG8+eabxgZ7WUFDWn9tsybKsySAIJZatoQI+fCo9GWoDUhOwupVPyA0uiCKF82DaUO64++SrfDZ+M7Y9cNivPDOcix46yXsPXYVVWvWRvECuXBs71b8uv1vFCpdGffcXQmRYaEZGq7IylIVpHjk6DGsWbkMP//4I867wlG3Tl3kjwlH3NGD2PTrdoTlLob699+LlMtnsHt3LMpUugtXj+/Ar3viULBEcdhTk3FH5VLYuv43lK59P1znDuPstXBUrVQK2zb+iALFK+HUsYPIV64GiuRIwY4/dqLZU23QuH7dDMFXNFZTip7Yi4EWl37PgliX/iQG0KgWmRWOSCf6nQgQZBqygJXvoWdxFoMvaY7i2MnFIDZr4rHKyp6/VwUH8jUTDcnFQApMrIPA4xDfJVue+OSuAg86epDCvh6QI1VSNAW90dxM6Zai4uOx0/h0AIFPsqKiYWAqB7aJdFdZKkSAwLU/RD6U14vfyS4hU5qj6oQugmJZkcrzYoFHc/AnzVEEMzIwZhAlrzHfQ3/K68XXaM40ZhUoEgEC72UG4Doa8rt4/eV9yaBIppOY2quioRyIxuPnSoraNMe0FHSR7vR8OdBTpIeofEXelddLpC/FIFCaY5EiRaxXiXNQVSsV6cS8KfK+Tlayy03F91ndrIl5VNXwSAUQTPtSlF+qzAfLDqIBzHSNezFQmqOoV0T+leVeem0g39tpE90ZIFggV2zWRN0cKYtB7sjlptKyLifsxGyemcB5NQGrln+FpT/+hR5DXkXVkrlxYOsavLVgM2ZOGmaZjFxON2x2qo9glSbw/McG2G0OS7mp+pFzFgMFKYoFZQ4e/Bsrlq2Ak4xdNjKAkenLU8qTXkBjtNupjChtePqaK9+5LHBDeTehoXYrcIbMbXyri4qJOKhyoPWN579WrSU3atSsiRo1amRQVDQNUxYDAQQxSFE8DeiUoimS2hSB72+zJmZCqoNAvRh8AQjyacqfbo6msXsrNuVrmqN4AmeAoDqB6a6ZLAgspGSBfSNZDHIOP49VxxumiH4TyLpdmjWZosd1BZsYqOhywnUAQad8TWDEWxaDDIq9rZes+ERepPHpgKU3q5muloQpi4HepbN06gCCjudpXqYCW5zFwABBnLcuU0gHHuleXYaOiYberGY6GurmzONQHQRMAEFMqRTp4A0U6zJcRIAgVlKk701ZbjoaMo/qshiIF9l67xNAUAkpt8uJxAsJSEoBCuT11DNITb6K8xevIn++XNap2SK8nRp2WNUT0pSwh2Q65aYDCKzc1EQk5s1YjyF9Ydy4epUqKQLZsqUH2FiFQN0eRlRXUnRa41adLG41QNCdcEwAwWQq9MeC8L8OEAJJc/QmLHVghNYkkHbPOsFxswCCLlVQNw5Type39LJAisbo2j3TuuhcFjprhUlJkfwKtJujv6miJhdDoGmOKoDAJ1lVsyZLhguVcWXl5gtAIBeDDKgDAQi6cZgAAsllus6VL8Xx0/NoXDJ/mKwE/gIEUVaaioOJilm03t0OAIHGcNs3a1JlMTBaogn4UpyCF4sYwJ9CSSIQ0TFUMM3Rk2Ynnqb86VBG9wabNXmox3RUNf+hawzOg1kM6fQKZjF4+Ib+Tx3+Tp06hTx58mQwnPF1OXWPlCcpcZKJcp0Zln0yQGQelQGH6GL4/PPPrVgIig2RD1V0IpXrcTBvi7+VXYYqV5d4n8oVQ9dVVQz5wERzlN2uOjcTv0sFKkh+0Z6U6UvPVsU7yDQkUH3s2LHra0ZjoI/qQErfr1271upwXKpUKet37JYRLQgyPcRCSbKry+QiDQIEQbkFmzWlKylmNl0VyGCao2c/61wMbDVjC4K8YYNZDL41vBIFs0xDuhYECOkAYfz48RZPFihQIANAEJV9pgtpefwZgsDTZKJseRQPAiaAsGTJEjRs2PB68Ki4bqRwxFM9KzdRaYuKWwYPsnKj6zJ44L3HB0gdCLD86j7EGvG8dfRg5auKNTLRUJ6zeJAV5yWv2aJFi6z+RNwM6x8BCLoYBJMf1GT+Mvl2uFWxSojqLAje/LGqYBIiOjdrkk1POlMxM6jOtO+tFwNHPctzM1Uc1L3L5GPStXvWoWw+VagqKfIG01Xl4oAtOUiRGFllvuUxsLIUGV5Hd/4NBymSVYJ+KwYvqU7adB/HO6jM46ZYCFO7Zz4JyKheZ+Y0zZkFtuxiYEGkoyE/U1fzXWWip3eJ/lhfacj7S5eiyaczWXixi0F1n78uBuZRnbmVrlMWA5Vpl4WrKgaBn6c6MfnD8zINOUhRBWC8BdipfL/e2j1zqWWR9jRfClJs1qxZhl4MIg3FNRGVvcrFwPTQNQ2jOesshVxq2dcgRZqHrpkQX1P1EeC9p7rGLgaVtULkQxkgqPY500pn2eMYBJU1m90jsnVBpC+vIyt63T7n33GpZYpBEMfP85KBj4m+qnHwe4gWbEGwnikGKVLwWtu2ba9HospCXd4MdF3cOLLgYNONfB/9mwQzBSGqNtjo0aOtYEkR4fKzdQhM3JTyOEhY0kdmbno3L6a8YLqxszLSBVCJ5jRefG9jvxk0FBG5TI+JEydiyJAhQllUzy9UpjGRcXT+WJn2PB8WVLoIcV0AFdFQzGIQFYEu8EpcL5mebL5TbaJA0xxN46Dx6lIFfU1zFGnIik9eR9N66YIU6bmm7AEeuz805MwdXdqniu4mIUXzpeu6PaZLc+Qxi4BSPK3qUo9VoJLoQHRSpfaaxi7yvExDVgKq992qNEfmIV/THMU5yJkbolwTmzXJMl3MFBL3so6vRRnrDw0DTXOUT/ziPtPN2d80R56HTk+ZZCWNR5fm6E1mE8+raCjvFZ2czwAQqJY2bT45Ut00eEZaKkUvKl0ZbDAaFVEt/+b333/HXXfdlSkC1+SnUSl0JoJJ4KgAhzgmFSjSgRRRyaoUtMm8pPq9aRws6PmULdNXxwD0u7i4OMyYMSNT7rQu+paFpS6iW2dRMdH9ZmQxmKwwRA8VIPGWxaCyqOgsCEwnGodOWZqCFFUWsECsZjQO0YIgA1Vv66ULUtT5LQMJUjTR0DRnmpsuSFFlQaDfm0DR7ZLF4C1IUcVTNC9u1lSpUuaKrzogSDTR9XExRb7rnkd8kZVZDAzAdIGeOj40AQRTkKLJ0q0LSNcBBFonukfXA8EEzk2gWNeLIdAsBtNaarMYqA4CndzJzyGifs9mpiyB0ExoRL/BKIshvXmKrGiJQXXdHNnFILd0JWIQEX3tbMcKljYf/Z17XPP39CdtCLnFKgsvEpRiMRRWwsQAnF8un+pI4dB75Dxoepeuix6NQRQA4gnIFISio6FoKpbNXHQtkDRHGoe/Ed0mgOBLHQRVN8dA3TS0Tiql7Q0gqISUSeGY3Bl0n86CYErr0pnbTRH4ppQvU0qlTkiZlLY3gKCjockKYxKWKgsC85quUJJJIOqApcqtxvtdR0NWbiowaqKhN4DgX5ojBTB6LIIenvfEftgobSvN/y66J+kKXaOwY52yNPE8zUt2MVw/3NiAxAuJ1wMiZfO4iTf8zQTxBhB0NDRZEHTrTGZ4kk/+NCjzRkMTz3MdhH80zZEBglwHgZiGSlha5gorgpKLBXjMcHzyISZzualUJjGcCy6XpwCJytyq85/Tu4JZDB4xxMJGdyLV0ZAFkaq4Cj1TjkHgzcxgJBikmH7qZCElCjaixn542gAAIABJREFUr84fKwIEGRTTtWCpZQ9vm2hI/GiyBgSDFNODFLlQkmhB8NAvLc08hGrXcI0XqkvjMTlbh4vcuT21XzwFZaz/eeiesQMg/V60WMrWSrYgZOjF4PZE5dtsbiReuIionDlho2q89pDrEfgqX71o8VHtPY8uypjJJh7c6DrFmsl7L9isKWOAsM4KI8YgWOsnxiCYAIKTChE5HFa5ZRvoJE8vtKcBBIdn0el/VKjI7QBsqUGAIKTUsLVC1X0v2M0xox0m2KwpHSAy2AumOabTJAgQvAAEKlIHZ5o1IMQyINiEInUMEKhQnaeAnQUNYHM54ELqjQMESw8Q8Eilp+FK4kVERuewYAoVs2OXVxAgpMs9to7r4rJULgbxAKmynN3CNEcXUq5dwp7tW/Dr9gPIUagkmtSvh1yREXBSYY0QDyqkcoX7Nn2HjYkl0b5xBRCIDFoQPMgtCBDSNwO7W2TXDv8iCBCCACFoQUjfL6oDBJ/qVRYElyvVqhjrvHoR+3dvx4atfyEyfwk0afgg8uaIzGBBIEvv4W3rsPFsbrRpXAXU10nOmAjEgkC6wOm24ULsZoyftQoVypbFnbVronql8nCklZ8PAoR/IUAg8z4VY7juQ7LMgclYMX8WNu4/j0ebN8LBP9bjj5MOdH6kMhZuvYwBLzSH6/JluENssLtScc0VidxRwPlLl+FKdcMeHo48MdG4cuk8Ll9xITzMhoSEFBQrXsByV1DpZf6QYGAXg1hq2e1ORcK5BDjdLjhT3ciWMydyRIQg8cIFXLmaAltYOPLFRCPpYgKuuSiFxoXs2cNwLekqUt1AjhxRcLhSce7KVVBH8xzRuRAaZoP7mg0hESFyKIGxhKUpwI58zGIMgvhgXUQsx3FwxKl4jykIJdBKihSDMHDgQGWpZZXfj8bjrz+WACOjYp3LQpeiJ6Y5ygvjLQZBRUNTLISpkqLON3kzYhB08QQmn/atjkHQ+UhNMQi6KGsdDb3xDfGDqZKiLgZBF+9g2l/+8jwfBBjcyLxrikHwVmpZ56vnNEexWZPb6YLTloIfl87Hqo2H8XCL5ji79yes+ysVfdvXwldbE9H2kfsQHR4Ct92OEGrQgzDkjQzFmYuXEeJ2wh0aijzRuXAlKRFJSVcRGh6KFFcY8ufOkUlWyjEIlj2CgiBSrmHR2E6ILfU8OjerirDIKCD5MlJtIXA4QuFMTUZqSgrgCEFkyBXM/WwV6j7QBHdWLAK3Mz2o2O1KQfy5RITYXLiW6kZMTC447E6r4Z/TbUdUziirDfXZM6esDpGO0EhEhlM3yVSEReZEZEQYEuNPIdlmR3h4dkRHRXr6b1gVfj3uLl0mi07eUJAixSCoZJhpXwYS/0Nj7Ny5s9XA0N8YBH8rldJ+MAYpkh+pRIkSGZjA7byK5YvmYdfRK3io0QNWGmSkPRnrv/4EczfEYWifPlg25VUUeKAFKjiOYbOtDtoWPoSpq/ajUtHs+O2vSxg7ri++mTMZiSH54ErYj8Nh92HKoNZwW4UrMp4uqZsjda4SK30RMJja/xlcq/AIrh3fgzz3PILuT9yNj6Z8gEuOcMSedGPIsO74btpwnMpWERcP/YWY0tWQ3ZaA+IRkPN3qKaxf+RVSwnPBfe0iytxdD00erAU4UzIFPRLzENPQR1UpS6fo6fdisyaVD1qVdiIKUcs0JxXyoO/kOA76jk2tvt7DAmz48OHo379/JoBAc5ZT0sT4BF2zJjl1h8fDJ49A0hyJTip3DL9LnrM4dh09VHPjoEFf72EamgLsVHzDHC4HKfJ7TTTUKRz5HnHTcsAWWWlkPmT+VdGQx+4PPUx1EFQ85Y2GKr5hPqS5ZGWao258Iijm4GaRjiIf0m/FwGLer/7Q0NSsyQSyqJtj48aNM9RBcJEZwHUNa1Z8hf9uP44mTR9C0RIlEIkUbFm7GLNXH0Dvvn2xcuKrKPhQC5QLjccO3IVnS53D6CV/olqpHNi68wLGvTMUy2e9izPuPAi/eAiHcjTCpJcfzqgb0gosjRgxwmrWVKhQIU/3W7cTyeeOYmi3Z3C1cltUzx+GkrXqYN/n43GqcH3cUzIXTh45jNSQCNidNlS+swwWzv8U1Zt1RLfW9ZHq9KS5WjR0xaN7h4G4t/H9+GvLX2jT+1UUTdmBT7/eAkfKRTjK1EW3x2pj7JB+yHPnPdj7x17UefAhnDqyAzmL34N6FWPw2YoNKJgvCsnuCDR7oiXKFY0G3J74OB19aaK6PZaVaY7M2yo5z8Tu2rXr9W6OcjyU+G8dj6p0iiwPeb7aZk0Ug0DKOVOzJrcLJ4/sw4YNG3Ei/jKuJiWiYNlqKBd1GisPR2LQM/XxRq8uaD/+YyRvmI65cbXQpdReLNyVDW/0boHuzZ/ECx9OwuoPF6DnG6/hz7mvYUZsBSwe+4Kn34GgENmCQGhJBAjEcGPa1UOllz9HdffveHv1GXww5GksmDUPtuhIfDpjIUYu/hxb3++P/A8PQ8GTy7HoSHGM7lQHCz/6CDnzF8acpT+jQ8tGOHZwHxJcMRgwqA9yOFyZshiYULroZm+9GChIxp9TsynVioPeVAjX1O7ZdPqlGgiDBw/2q1kTjUOVxRDoafpG0hx1wIHWTZfrzopPVpaBZDEQbU1BPrpxEK1UWQwmGppOnd56MXDAlnzk4zKxMi1MlhYeh+okG0gWg4mGpnHoLAhEw0AsPjeS5qgrzGYCjzrXyY1kMTRt2hRikKLTnQq4bIg/eQgbftmAY6fP4vLlq8hdrDLuLZSClQeAbk/dj9Hdn8PzE7+A7ff5WHC0FHrccQoT1iXj3WHtMKjt83h++lR8MXIM+r7zLnZ/Nh4fHimHL0Y+m8mCwEGKlCZPh0cPwKNaFi58Nb49TlcZgLzHNiGkUnXs+k9/FHx+IR4rdQ4zPvkKeYqWR4UyxVGmSBQWrfgvnny6DcoXz2c1+mNeczlP4rlHumPsF59h65wROFn6eTQvcR7f/bIHjouHsWR/Nix+pxdG9e+F9m9Mxrdv90CRDtNQK2wPVq7bimun9uCv1BJoXDkGm7ftQP3H2qNF42qwg1zj+swNmuj/chaDai97tSCIAIEFSGpyMk6fOY2wbFGwu1Nw4sg+fLlwIcpUqoRdV/NjcLuGGD+gNzpN+hhxqyZj/slq6FruMJYfzoOhLzVFz8ea4+mJE7D2oy8xaNxr2P/V23h7WwEsHtsRdthhs3tMPbzJVVkMTmcKRnd4EPe/9j3KXf4Zby47ibGP58Swzw5gYNcn8G7/4Wj/4Qzsnv4KSj41ErkOL8XX58thyON3Y968mbCFReHn/Ul4pfMTcKa6EB4ZjWJFCsOBFISFZ7/O9OKJWcweEF0uN9qLgV/G9BV9jPJpRDSByihQdDHIqJKFpaqaFzdr4tahPDfR1SFKAVZgvpZaFmlIz+HAG19pyDEInOYons50qaI0dlExi/TQXaPxiABBpq9oKpTp628WA5+KdZUU5YptTCtVkCJf01WVJDqIVeVkntLRkF1CDEbl0wiNRa5gR2MRAYIMOnTV8gLJYuB5+xqkKJ7M5PUSeV72uTPv0z0iKBb5UFYcfI2BjykCX0VDESCoaMixXLKlgrs5ZgAIzmSrg+3Z+HiEREQiFMk4e/Ik5s+aiHLVHsS+K9nQt0UjjOn3EnrMWIILP87AgqMl0euOM5i+NTvG9GmBoc8+jRaT3sXS1z/EK9PfQuyKqRi9LT+WvNlOKSspzVHMYvDEIADL33oGJ6oMRoFjG2C/oxZ2fzQQVYd8jybl3Dh98hSOHtyP77/+AmVqN8fRw4fxVKtWKFukgBU8eV1uuI6hY8sRmPTFf7Bp1uvYXfhJ5N4+He67OqJmVCyGfXkQ897qireHDceLIydg+djuuKPvHJS9sBXf/LgZZ/b9hjz1e6BxpSikOm0oVLgo8uSOtLI7bDbH9WJ5sqwUAYJId/qeW5yLQYU6nvKFDxkUm4IUqcMxuxhoPPRc2UUm8o4YpCjKAOZRVTXKgLIYUq5cwJzpk3HocjY83bw+ju3ZhrW/HEDzR6pi2eYzGNihNT567w10GT8NZ76bhDnnaqNHyQNYdjQ3BnVogkEtnsLTU2Zh9dQ3cXejp7FhwQQcKdgaC95qZ6W9UNAKf2iAKoBAgTdjX2qMusO/RtmL6zHx6xPo39CNwZ+fQ/fmFfHOuAl4/p0FuLByDEo+MQo5Y5fg+/jy6NOiAhbOn4uSd9yHT2bOxkuDh8F9YgfOJEei+RMN4Uh2IyIiPAMqZqEsAgT+AS3KjQIEXwQAAyZmANXJOJjmmL5sJksLAwTV5jOVWs5KgMBWqWCao2fNAgEIvCd8BQj8ewa4qjLBukA5upcBAlV0Fd0F9HcdOPMFIKj8wt5KLesAgipIMZUAQmoKlsyZht+OpqBVy0dx8eBmfL7yD7Rr2wgrNx1Dx2efwIJR/dFp6udI/GkWFh0rju53ncFHWyIxsuejeL3jc3j03f/g+7d7o0KDdtixfBp2FWqNJaMyWhBYSckAwU1pE25g6TsdEX9nX+Q+8StCK1TD/rlDUHnQKlRI2ohVW/bjoQYNsX3pDMTHVMH5E4dQvcHjaFTnTsBJ6ZaejAen8xi6tB2Ddz9/H5vnjMKBPK2Q8tNIRDXoh8jDazFtbRyWfjgW748dig6vvYdv3+6DMj0/RIXELfjh520omicc8zfGY8RLD2Pblg2oVOcxVC1TCDaHE3aEZhlAYH5T8RQfEFQHC5YN9Jt/ZRaDi/K3E+OwZdNG7Nx3EjmLFMVDDzZAgfDLWLpiNfLfXRfR52NRtmZtJB3fjwNXc6Ji1BXEXgxFlQrFsGntKpSv+wD2rV+NHccuI9uFP/Fjyn34aHALT5aDDwAh1ZmKHT9/i9xVGiO3Mw5/xl7BfVVL4LvFC5EUWRzl89rwxxkbahYORWTJKgi7dAynUmJQvlgM9u/egZwFyiB78hks/f4HZI8pgQaNHkK+6EgriDI8IjQIEITe4sE6CME6CHLcCAEwUn4q5UZWESocpjK5Z6UFIQgQ7JliHZQAgeKnSGZfPoddv/2KrbsPIDJvSTRo0AiFIq/hu1VrEF6sAmKunUXFWvfj2qn9OHg5CpVikrE7Hqh+R0ls/eknlKlVBwc3r8KWvxOR/dJf2OhuhJn9m2aQlTqAQGmWDrcNB/76EYkR5ZHLfQG26Lw4v/835K3SGIWypWLbr79g0x/7UKjMHXi4QV0c2r4Je8+40ax+dbhd6S4GmyMVm3/+EzUfqoUze//AxfBSyO84jRXf/4I7a9RG0tGDCCtdFSHnDqP0PdVxaudviK5cBzlTEnD85BmUKFsOO376GlsPnELFqvehdo07EUEFpKjiqVBu/0YtCP/zAIGaNVHwGgcp8kmXhYMjxO4puWElz3pO/ZTmaLO+J+YlvxOZbcgHZYfLmQKbPQR2mxtXky5j/ffLcTLRhYQTsSjf5Fk8XK1kWlCcdxcDFf6wijBRdcYQB+yUa0vAggZDi5ycAkcILbrdk/frWS3LVHXt6jVrvNkiQuGkmAfhWmpyKsIFC4LOxXCrLAiyOfhmuBg4BkF2MaisFaLZzF8Xg85s5s0K44uLQbbCiBYEkYZ8EqQ/ZZ8bjUPMYrhZLgbRxEguDWqJK/IT/d0fF4MoiFRKma7TWokxCCo3jYqGNFa5CiifcNjFINPpVrgYRPeUrxYEk2nXJMx5bXxxMajiOMQYBJ2bRqahmMXgi4WRT6RKF4PLCbhtVkR/qFUoyQk3qMgdt2i34dzZM8iTN5/1O7eNatdYJZOsirkOmwNUysaZnIL1332GI+fsuBQXi6pPdUP98pnbShNfUOBzBheD9Uw7XDYbEi8kIGc0BQV6KOu2k9wGXKQ7QkPgoPiRtNoJF04cxI+/7rTiF5gPS1epg8qlcsPuskrxweWmxIcQT2VIkvT0hc2Na8kpcLucCIvIZn1NAMWaM8UZpFDOvQ0OO+kqG1w2qtNAAeGeWj6q1E7TvlS5GHQ85Y0P/bEgsMxWuRhkvvHFxaCSAcZ2z2TepyBFulH0q4mR1OJDxROCSbm5nKm4fPkC4uPPITx7NMLDQpA7d640P1A6QKDNRXEQFKQol1oWA7ZknxCXqlX53ElY0oe7OZp84TqA4Kv/nNMceXw8HjZziiYk/k2gMQgkKIlGYgAjvYcVs1yDgr6njw4gqGIQRH83jZP7dIj0oO9F8y1fkwGC6R7xWEKbj+jEfSZEGup8vyaAwL51WfHReEhh05xk8KAzFYumQjlYkk9TMhgReYrmJvO1vwBBBG2+AAT6va809AUgyPuc5kS0oPXyBWR5o6EYpCjvc7pGoI6K/Iggy3QP7z0Vj3IEuy7ThmMQfKWhycWg8/3Ss+k99PG1E6EJIPA1BioyDek6xS/lzZs3Aw2Zf619YiMrhANJSedxOv4swiJyIG++XIgITXfHivvc1M2Rsk6I5+n3rFd4Ta4HIpKudztx7cplxJ2Jh1MIUozKlQu5oiLTxurJMFPFcXB5caKhrAfEYFQ5joMzFfyxIHCpZV3Zf7EXgwkg6GSlKA/p71QoiWIQCCCINMzqGASikzGLgQZCkajyRhcBgjh4U3MPuoeeQ4S3DvpIhcttt07+FFUbHRlhlfi0Tv1pH7pn2LBhFiIV6yDQZREgyATURZvS+4lxaCFUtf110fQy4eU563L4CYwQ0+tqdOu+19UJZwZSpTnSyY0yPUTFy3RigSYjRLo+atQo9OzZE3nyZDwNmPJ3ifZEK1UPChXtPb5DT+8MfzI6aHz0HrpfReOsrINAY+OcXwZPotJhwSHTkIWbanwmvqFnk2DhtDlf9pGJ503rRdfoXn/6WYhKVt5frDxk/mXlJis2vt9U34GuqWhoGgetBYFwudOrCIqzar1oLYnfVKmigfRiMNGQT3uqvWLKtJg5cybq16+P8uXLZ1gy3bsY3BEwluVrOkCgujBOjxmWrLQuktIOIDUZ9tCM7liWN9SBl3L1Kc1R/ogdbsVrGXiDai9YdmGyLlCZfjEGwSqV4LFIIwROlzOTfOU9Sc/X1SbQyVjdPheBuzhuehfJedpbKmBp0omB8Dy9e8CAAVaJfAJ1slWKdaxKJ/qbacM8z3JeWWpZ52JQRT36akGw0l6sqFGP6f/82XPIlSe30sXQp08fCy2JJy2aPBGXFscX1Ea/Z8Wpa9bEykis6Mfom8ENb1hRCZuCFE3NmnSn30AtCGJHNpFpxFOMjIrpGvdi8CWLgedNtL9RF4OvNKQTKdGd10VE/KYIfFpPnq9IDzGLQQa+3lwMcnAYvYM2ET1TrgTJApZ+I1okxFMCKbcbdTGIa+KLBYGVAu+JG81ikGlIcyLrnC4GQUVD4kNWvrLwNVkD6Ld0+hXBLdHDZF1k5aGyIHgLUsxQNCYtVoqed6NZDDINOUhRB0b8yWJgGaazIBAN4+PjrdOoCIivAwQyw9OhzsMwoIBDG62X043wMCoz5/mIfE0HOkpzLFy4cKZaKmxB4PvYPC4CBGvM1x3XGXv8UIq73XKB0JgIPHiC+WQacuaOrhcD/V7lZtRZn0WAIFth2K3miy7yZkGgZ5sOAjQOtiCoshhEC7JIk0BcDLQmdIhh8OhzLwY268joXBeExMymQm004WCzpnSxKAIEmemDWQzphaOIp1i5yXwYzGLIeH4QhSXRTQWyVDRky1MwSPHfm8XgDUDSdZK/oouBuIeVlEqJqkAWgwTae2IWgwhI6e8MwnlcMkBQWUd1GUSmYFkx7kalp1RAled1M2MQmE46GvKhg67/K7MYeFH8iVIOAgSP20QUzLrUqCBAyKjcgr0Y0k9oLLSDzZrSaeJrkKI3waxTDsyN/9Y0xyBACHZzJB6+hc2aPClOQYDgMasF6yCkmxfZDKfKMZeDFEXTpImGQYAQBAiiD1qEj7T/ggDBe7tnohkBHJ0POmhBSN9jNzuLwRtQ/VdZENSllj0Vm1TmD11ABk+aIy5lk4+uTDAJBsqkkEst64nohtvyj6UixEFBI0JjhzTJQqYnEixygB37ElWBXKZgs/+vpZZp3nKAHZ/CdAF7tASqwKsbKbWsWy/du0zuh/+vpZZVNDT5QXXmZ6J5IKWWTXxjClKk9+l6MegCqU3vMgV6Et+oyoszKPY3AMxEw6wstSya/nUmazF+SQRgpqBSOVuJ72MXA5dazmgPTHcxyN+baK/TKyYacv8RVSC1LtDzetxFWlEmeYy6YFTOYtAFneuaa+lo6I3nO3XqZMXl+dOsSVdS3TRnWktjsyYKEKQgRfYTiehHFbHJEaAyYenfHOiniqQ39REgkEJRsaooW5UQsASA24UQKzUzPSOCx6QDCCLKlscv+st8ZRr6HQXYUZCMnHrIAEelLE104uh6Fe1NNGRfsmpelCVCUbEqHyQDOvk+WmcVQDDNi4OldClkOuGlygmXzaby+Ew0NI1DBxCYf1Vj5w2mGr+3cah6MQRKQ9PeE4WlHGDFJ0sVb5j4RneNc8J1vO0vDU3rZQIIuvEFuvdknhdloje5p5uzDsQQQCD66YC2KE/EdZsyZQqaNGkCsZujqLhVa0LXdZ1gaXyqsXvjUU5zpCBF+SOXM+e9zCmmKv2gGwfdy9fk+0wAwfQub9dUNCSAQAGlqmuBPM8bz3fp0sU6NHOaI9PQJG+88ahK1tPzOM2R1jFTkCIDBHGRxcHT3+U0Cx3zmgZvYlCug+ALQLDGBhfOxsUhKk9+ZAtNb93MROQ0RxFZ8jxkYcnfmxSzTsASzW60m6NK8dF3qk1ravfsDSBQu2c5zVHH2KwQfe3myHMIlIbc7lnVlIlpL/Oh6V2BAAS+R7WJvAEE1XoxL/razZFpyAJRJ4h0CkAUljKtfKGhfI+JhqZujiZhaQIquoMArYfJgqCSRd7WSweKOXOH6mT4SkPTepmuBdrNkQACNWuSAYLuXTwPlQXBpHy9HaYYIHA3R1GOMUBQ6Q7iX/l7b2DkVgIEHY/6282R6aF6HssGE8Clbo50aBYzT/gQw/pYBkzeDgIqvvdqQSDlXKpUKU/jJLcLO76Zjm2h96Ndg8pwODwndLfbCZvzGg4fi0PuPPmRI3sE7A5PXSsqkWmzO8gDBif9HQ44qLIi1b1KSxMiJ8D5c/HIHZMHbspfsWpiOWBzewr5EEgZN25cBgsCuRGc1pjcCKUUHCr9RT8ng4HbhbVfLUb5Ri1QJEdEWoUtukylNN24Qi4GuBFBrW+pRJidEmY8loZA6iCYzOMkLMkMr8uP9SdHlzcKLaS/AEG3iWhduVmTbEEw5VuLwlIGMToznMlsdjNcDDo6sYtBpUzFNEcZFAdaB4GeoztNy82a+J0mGnL8j690Z76m+1TmVh3teb1UStbkfshqF4NJodPcVJYzE6/R83T55zfiYlDtZR67ysRsomGgLgYutVyxYsUM7OGNhjqAoHMlm2ioymIQB6PbYyba666ZaMiFkrggnjgGb7JNtV4m/WACCCY3jY4Pb4aLwVSPQbfONA5jJcV+/fpZlRQtgAAn1s0YjHWhzdC5fgkkXbqEffv3IHeJe1Eqx3lMmPEFHmzRHk3vLYkdv2/A8cRsqF2zCvLlikLsrh3Ye+oS8kbZka98NRTIlopdv29EbEIIatW4h4rB4sDeAwiLyonyZcojR1QYQuwOy3yk7ObocmHPL6uQlC03jp5KQO3atZAv6io2bDqEHNHZcCUxAWVr1EBkykVs3rQJqRGFcV+NKghxX8Sv/92AM8nheKBebeSJjrKggY2qhaUBBDmfnZmQ82ZlxREMUgwGKdJGVwVmimBElUYYbNbk2U20x3Q0FE+/Mg3pWjBIMRikqAJnwTTHjPF3NzWLwTIpwok10wdgbdgjuNu9C5v3nsbjjzbC3PfG4pEer+Dnb7/Fw23a4/Ivs/Dfa1VQp3AS1sdGYPxL9+K5fh+gffvHsWzWNDQYOgeFDszBqtjcqF3KjRXbLuPVPg0xoscotOw3BE3qVEdU9jDYLeuEWwkQkp2peK1lTdgffBmVw45gw7lCmNyjMh5uMx59hg3G+o8n4PExM3Do09E4m6smsl36G8XqtcGFdVOx3V0eFSPPYfPZ/Pjg1Zcsq4MjLVZBpeyDAMEDnsQPoVFfCyXRfSzk6U9V9b1gFoOHumxeVKXAMg2JH4Npjun0CgKEIEAIAgQPD4jB9KqYDA6kFa+RPKH7dPEuRguCmMVAroS1Hw7E6rCHcbdrP65FF0Pb1s3x0aC2yHl/T5w4tAstWj6N9zrWRZGWb6Bi1GWs3n4OwxuFYcTmvJg9vA2mDu2G/K1GYf/09kip8jzuKmzDqlV70HNEK8wbtwgjpr+NXJZ7gppoUJOndIAgxiCQe+H11jVR7/UfUD/nPjz9+jIsm/AUnn95CWbPHoWx3Z9H49fex/Ihz6P9xKUoG3kFV1JDMbxNLRR7bACKR1zE6j8SMWvS4LRgxnQLgr9ZDP9mFwMxxyuvvIJBgwZlClL0ZoaTYxB8MY/TevpbapljEPwpE2zKOjG5GALJYvBmbtW5GOg+XZBiIC4GUyyMydzqzcWgc4/oXB1Z7WLwZm69VS6GQNxq3uIddDQM1MXAzZpEFwNVrXVRo6KUJJw9HYe/j8Uhgiy15f+PvS+Bt3Lq/v+ec+7cvc3zJEXRKCWUoZQMKZkrUkKGzMnsRSQkIVHmoTIXSZmjUFKEiDRJmuf53nuG/+f7nLvu3Xe39z5Dl9f7+5/zfnrVec7zPHuvvfZa373GJiiXEa1GuGnjNlStWslzvW7563cs35mNNk3qeg2eAl6DvZJGR6ymGKInmGmTSiVF2f9GFwMrH/qA7z6bjAqHdMJBtfK8xk30DEc7Q/mjmWd+NtcragIYhcxeheeQ0u7Zq8HLPjI8QIZDCEVYEZG/KwpI96rz+pBfUIBwOIRsr1mTdIaKdu4LFgbhDwS8efHnYV/UO82LrjgZ2778/9LFwG6O4mIIxAENAAAgAElEQVSgX5/9Ez57+gZ8mn4KWkaWIVTxAJxzZle8cNN5yDluEFYvW4Qzzjobz99wChr2ewadGvnx52Y/moe+xtXvhvHK/X1w/6DLcHD/B7Ft8o0IHnU1Tm1ZBUtXbceBDbLx9CNv4q7Rw5BHJin6cLHoYtBjEMKRIO48ux0Ov+U9dK74OwaM+hpvDeuE/rd+jhefuglDL+uLTneNwYy7+6Pr7S/jwMLlWLy7HGY8eCnq93kIbeuGsW5nJjq1b+kxht+Lk4h2vdNdDPzepXBiAQT6wBJRiq4UHAm+Mz3PlSoqQV46quT3UmpZj0GQqpi2rAMbQEhG4fxbYhBiAQRTJVAXAudamlxTYi3g+/QS4rwWK60rkXQqcZ2Rh03+2GTWa39iEBKloetdnJsNINh4PlYMgq3a6/4ABFsMgu3ktj8AgUGKhx56aLEMLUAQgWAE87/+EJ/M+gFNmrXAzlULsXhnZVzVqwNmL9uNDi0ORNWqlRGJBLB70yqsy89Ew9pVvD4HlI2+CHsxUHmz66Hf6wfJ7o5ZVL7aR09z9Kxi0eY7uOeCY3DsrVPQqWlF798ePmBXRrZ4CIa8TsDsuvjnsh+wbGMhWrc5AnkBNmgs6cXgdfH1SvVH4PfiSXxgZ2Hp2st4NMIFduaN8GTM7ry+CPwEFX4GQRIEhGk2hhfC7oEHdrmMBrHZYo1c+sEFEGxy1MWHsUAxSy1TJyaS5phMT4iYQYrMZWWaI0/0bNjx+VNDMCO7C5r6/4I/rybO7HkKnr+lN8qfegMWvvsiQnWPw2WdsjHkzueQXSkXTY45F4Mv74hbz+uDdTkNEdqwED3uHI/jc37HzXePgT8zgFrtzsH1PRpg1KgpuOPxe1FeYTgSkSDl3nvvLRWkyDUdfO5RWFPlCATXr0KXfjdg4HHZGPCfj/Ds6Fsx/MqLcfxtI5C98D0MGzcZBZFMDBn2GKps/Qr/eegVpGcArbsPwpALT/T4QxSnngoiEbWuqHjXyU1Nc1T3kepXNW0wCQxTI3o9N0+0t/Y+9c1tglI1W5vSh3idaY5s660DhFjpObaccBMNOR816E2fs4uGjOimQjSZ1V3BNRKkyPfqJjUbDUVhC51lnEJ7W8qXbfwuvnFZEHTaCx/Eyzc6fSVzx9YvwpaiyedwziofCk/JdzpfSeZOImmOfGasKGsb7W1ZDPr41DnYUr6EV0x7heMjHU21P1zBfHxvojR0pTlyjDZaPPHEEzjxxBNLZTGwjXEY+Zj8yrPYGKmDi/v1QDAEbFzxK2ZOfxOj35qLK+8egVVvPIJtteuhVc2KWF+5Hc5rtBkPjP8G21f/ityDOmLUnZdj2puPY+LU+Wh9aAPsqH4ihg48fh+AwPneeeeduPLKK71mTSVptUHcdVZbdLjnA0R+nYJX3p2F3fmF+M/IZ1Fpy4949sWX8fvajWjTdQBqbPoML039Cbc8Og5dWtXj+dQ7ZPHZ05+6Ed/vrotFc75Cm579cNV53fDxq8PxwpT5qNaoDW65/kr8+eUzeO/HPfj9p5/R9bQu+PWbWdieURe3330n9iz+DCPHjEcouxp69rsUPY9p6TW/LvSFGULvtCAkk8Wg85Qqw218GEveXHHFFV6TPb1/hvCGiX/lXer7Y+1l3qPK+X3SHKXdc7RDtw/+cJSQbO4VNdF4OA7+SAihYMhjvEBWOiKFe1BQ4ENGTibSQjvw6SffoP6B9fD6k8+gw9U3oGOjOggV7kVhCMjMSMfmHdtQpUIlLyuCZh8ZOCcsaY7sVCifgnAh7u3dHl3u/Qzt6qUjg+/k8kaCHioNBSNAWoB4EAUFQQ/9ZmSkwRfxYduOrQiHfKhUsbxnnkpTiinphSuEmCKw1Y0p12zFLjhWNc1RlJLMTWU2dUHl1Cnvsl1Tv+dY1JOUrhCFcfTxi4vhpptu2qfdq2vOIiyl3bMKRGw0NFk/4qGhVFIUF0OJwCndJEdPtxXlptKdfxcXgx6dz7HoOdrCb2IlMNVoV83I+pq45iwAwdTuWXhDnSvHIiBLVehCQ/0eVXKLi6G4K5ul0ZCJb0TR6/Tle/Vr/E51Mej0UCO61bm5aKiCIp0enCMBQqVKlYqnK7+X8en3yLtsgDOWBUEAQjx8KO8SXouXhqoFwURDGaNOQ7oYTjnlFKguhiCzzCIhLPnhG4x77kX4KzTAEW1boOVh7RD8czbe+S2My3t2wh0Xn4FeD7yN8ktew2t/HoTLDlmDYR9sweP39sf15wzEZS+MxTt33Y7+Q0dh7rM3Y9LuY/D2Pb1LAQShPdMcpVlTtO2S15oPt/RoiWNun4zsrUtQqXY97PruTby4qhG6NSzA6p3p6H5qR/zy3S/IzdiFn1btRK++/VAxjZV7o7zG+b40pCd+PuhK3H5SZdz53BcYOrgfpk8Yj0O79sQH40agfo8rUGnBOMxAJ5zfZBuGv7sML44ZiqlPD0V+1Vb46uPP0euyK5C5bQnee/8LXHLrPahfKc3rDMnnx5L1prbuYkEwNWsSntdlr4sPXZZiEpyFklgHgRYElQdcMQi2PkliobPtc4lB4HvKtFlTFAUx92Evpk0cjzU7gezKDXB6t2NQKTe3FGMl2qwpGApiyvMj0KzH9Ti4Wnqxi0BVOGoPbvUkKL3Wxdwq9/A3qSDFkkA5YTabeyQVpBjlKm6wVBZDyXZmXAWBSCKl2F00NAEEdT+nghTdQYqhUCHCEWD7zu1AKIy1K5fjh/nf4Mv5i3BSl/b4cWM6LjmzMx6+9iJcMXYytn0+FhNWNsC1LTbhye+yMOzqnrilz3noMWoUJt09Grc/OQJ/TXsSQ+dXxqSh5+8DEPQYBE8PeEnmPtx6egu0Gfwagku/xC5/DsJ/zMZne4/Aw5e0w0effIGdBSH4s6qjWZ10LFq9E73P74vyGdQjJR1RX77xNOR3G42+h+zB4Cem474rTsaYZ95E/YMbY+6019D8wmFosHQcfql5PrpV/xPPzt2DB264AB+9/BhW7M7E7Hk/48h2LZFJn0RGDk7qfgbqVI66SuhOsSl0XteDh0V3SHEwUwC2CyCY5IYcYvjs/9PNmjw/UTjo+XXo3QmHwnQBIeJLR0agdIXDRAFCYSiEcGGhV8MgIy3Ta0eqn2JTAKFEgdksCGRCPQZBtZrY/OepLIaSFKIUQCilI7zAyxRAKNl7qk9btyCQd0zR49LumVYz3VxsauYmJmmpg6DGIIRCQRQG9+KzKW9h+bZMnNSlHXavWoqxz4xH1x6nYPbv23FZ72544tarcNW4N7F5xjhMXNkAg1pswrj55XDfNd1wa+/zcfbjY/Du0NvQ9eLr8cukxzEjcBzevvfCOAFCyAsAvPP0Zjiw3xNYvXA2Tjv7bPzy7ii8uaYxbunVGruCuahbqQB33DwSfQb2w+/LVqLPRRejVsVsBiEUWxBevrEbCk59Eucfuh2Dn/gIQ3s3wGk3foQXH78WLz10B6qffCMOXfMmFtXphVOqr8Rzc/dg+PW98cn4x7E252AsnDkTJ5/fH/Wyd+G3P7aiY9cTUS497MVW8JSfAgglS0rejasOgsoFvEmib03MK6Yg4sYICoFwtJphOBSK1jFKS4tGqyqfRAECmZ6BMn66OtLp6kgBBBsNxYSkm05FqKQAQgkjsoiLuLLiMY+nLAjppdEBkAIICkVU15Rnoi1y7cgp8Z8ACLS2Mg5h3V/L8OUXn+On3/5EdpWq6HhiDzSt4cMrE99BvcM6AH8swFHnXoy9S7/G91vycEyNQny1Cuh2XCu8P/5ltDn7Aqyb9xG+XLgKVYKr8d7WQ/DG3RfEBRC80vcIYfILo1C3fS9s+OEzfL98C07u3glzPvoKLdq2xKLv52DdlgK0Ov5UHNWoHKa/Px0HHXsW2h9aq5QFYfaUcfAdciZa19yLqbN+Q9dj2+C9V8ZiVbAKWjashkV/7kanFpnYlH0YGuduxvw1IZzWsR0Wzf0ce8o3Qo3IOrz17gfYm1YRnU7qjnbN6xeBA8Z2pQCCruutAKFUFoPG9AIQdOkQq1qTzb/nKrUshZL0Usuu6GZX0yiaxnlvvBHdYuLkXE3m9ljNmsqqkmKscbhoaIvolhiERNMc9eAVlQ9sqUC8x2Y2c9HQleboqnxpWy89BkH14alV3nR/vOkkKCBLKqLpgJnfyzh0XzifR9OkKQbBZsoUnrf5Ok1mfb5fLRrDMUvQHK/pNJRxynqZfJPqvPgMdW62GAR5l56LHYuGomTVuYmVi//lmukxCLJX9GA+jpPXbHFDZZ3aK37mRLMY1P4j6t5SYxr0ufGaKc1RLKu2QEpe1yspCn2jp2mmHYZRkB/C2+OfQLl6bbFkxquo2O0WXHzcgfsARD2LQf9BPJUUvRyFSAFWLVuKLTsKQJDDcSAtD82aHYR0Aq2ioG1bJkisSoom66hrvTiPRNIc+Sy+w5XF4GrWZNOxHEdZN2uyVXSMmcUgQYo6k4rC0RdfDULSr6kBFPq1WN0c2bnKBBAkECmRcbiaNbmUGxc7kZLJHJMrotsWEeuikysq3tWsybZe4mIwAYRYWQy2Zk2uiH7betnoThrahKVrw7roZAtS5PMYpEg+0xW9nPhstf1dG8wEVEQp2kotJ0NDVybI/tRBMM1ZaGgCzK46CDaeEsFs8rnarokS04MURSGKW00EtR7MZXpXLJ53dXO0lVp27T2b0ralOYrCMR20OE9XqWXbOEwAQeSpt85+Hz25iPjCWL9qKebOW4js6gfjmHaNkZ2etQ9A4HvUZk36XrKlEqu6w7M+hwvx3ZzZWL1hm1fOH34/fBnlcepJx0cL23kZXSwOFDb66mN1c7SVU3bpsGSyGJLledd6XXrppcVBiuoCuHSHbV4qmNbXimOI2aypfv36RiYwKUs+UDelyc2yoU3C15SqJBudaY5sTJGrBTaKkDWNQ057+wy86MTEe/WUL9l8iXTlc93Dd9vSHEXhJNrN0TVnFw3VU55OE+nmqDdrEgFroiHpawIIpIcwon6fbeyue2IBBNs6u3iN4/7++++9k6f+4WYwWZaEF028y2s2WtnGId9TEZjeJ0rNRHvbNdd6cU14n0mJJTp2oYWNpzgnvsfE2655ucZvuk++o4VJTT0UKwGvt2rVCjVr1iwF+EQg6uPjfSJgbQAx0Q6mLt5wXeN7KNdM60XFxz8S56HyiKubo42+nKvqnlSfVwKyaCWiU9dbdc8kHwwHkRYoaYanynlJczR1cyQo1g97Oi2i7mlP/3tp6CGEPLc0axhEO/QWFT5i+GM4ahHTPzx0cPymujYuXosl9xLt5ujSiS495RpHrGZNNv61NXOzjTEmQFArKcoCiJnTZHq0pVK4TGN8rst/zmZNtCCoaY7CULoZprRpLLAP4/C6WBDizWJwjZ3Xku3FEE+ao+4Hd2UWJBuDwEqKvXv3xnvvvYc//vgjKgJ8vmKlR3NWu3btSuXC62mOQnfeazKbiVDmdZ1Jec2VKippjtzoqqKQ+0SI6v5dvst0+l2/fj1GjRqFunXrIp2pU36fF+UdbS8WnXv0byJ0GGJbuq65SXEn851LYSbzPNs9LsBUlu8R8GADUmX9LtP7ZK6LFy/2Uv46d+5c6rWyn5NJcyyVE25IFRVwolsrbGmOIr90etmCFPl7Klgq4C+++MIDCUw15p/KlSt7e5aAXw1SVGWi7oKSa5QdpnbvxadYr+phkdIuKgkeCgaRrlVSlH1+++234+qrr4YABHV+pjgf3qcGB3rj8ioiRpfOlB7LiwQHYoXRaSiuZNJIv2YK9BReUl2JKujhMyjr1TRHoV+yWQw294jLHcsxmVwMwtfiOtFliyvN0UZDfv+3BSmalJstBiHRIEUSiYMnA5v8sRKDYPLTpdIco2xPBuIfBikOHjwYzz77rGe2EvrQr/vggw/ioosu8n6nAsL/5SyGtWvXYuLEid4my83Nk7NK1PKlqBJm4XinJSWw7O9QcKlnli0FRGi/++67qFixIjp16lRcYEz43paWaopgl9HxGvcGLZk2oGoy0ZpiV2zyS95lAwhyIFm3bp2ngKdOnVq8N/v37+/lxZ9//vlo2rRpMVFdAEHoEQsg6LJcFLqtQRldDC6AwLgbFbTqAEHlCPWabp026QC5N9Ws6R9s1qQumCxKInnOrlM4n50CCCUUjoVuBSHqYjVZC4K0e+Z6Xn755XjjjTe8E8l5550H+rpopuXpXYSEuFX+V+sgULhOmDChCCCU804F+YXRYEIVIpAebAkuJVzLVo2lnvZ3UUAUzzvvvOMFL/5fAgg8EK1cuRK//fYbZs+eDVZOZHAyrST8+/Tp06GXWk4BhOyELAipNMeSnRnTguByMdjqwdusBK4AIDI5N7MJgZd1FgNPAdw0Jt+vKZpezGYcm8nXFasXQ1llMcipwzYOGw0FnJmCcsSCwCBFxiAsXboU5557rhc7ceGFFxb7ko8//ngPKAgo5CZKtBeDK7Dt7+jFQHqZfG50MRAgEPyUy8nBL0tXYuPm7cjKZMoeo7GAgsIgKlbIRfMm0ShtSaP9u5Ra6rllRwEVIJgsCFSyNtPuP53FoLtIxUWhWhBIGf5u+fLlmDlzJjZu3OgB9mbNmnmndO7Dl19+GR06dPCyGHSAoFpNTDENckDTY5BccsNFQ9JWKinWqVNnn4WNJ4tBv8kWYCfubpMuUquH6nqFzzMdtFxz5phMcor30AzPNTGNI5keCJyXarXV6ZFMFkOsDENb7B11Aa1mnvWmoKAgwoHxy7vvvtsrc9ygQYNS43MtiiulQwIhTErWptzIbKZmTaIsOdZEF0WiW/8JgEB/IQFCWTZrShQgqDEj+kYh/W6++Waw1LIIiM8//xwPP/yw525gLXX6cmfMmOHFCfTr1w8NGzb0BKwABN3vmkzqYSyAQPqZgo2SeZcKEHJzyuHLeT8iJycT1SuxlHe0k9zGrTuwY/cedGjbzPvOVvu+7NRa6kllSQHyNS0I/2sAQZS5msVA0P7qq696sQfHHXccGjVq5PXHIe+fccYZnpzm9/y4AIIpY0JcJQQdegxCrIOFLXOH8oYxCCy1TICg+8ITBQixgIoOsoSPYgEEWyaIxIaZXIu6vBEwWtYAQQ6ltqBCF0AwxV2RJskABPKMZDEYAQIzCJjFoPp+XC4GElB1PejBOqLcdJ+WmMfV9wiRCBCYxcDNrn5s/iebP0sWUywIEvks3wtCVBURr6kWBFOAHRWl1LjXhRxTelSAoNJDmM0VQMPnJUpD78SrRPUK2rf1EaCL4cYbb/QEhNDup59+8iwsrOkuAIAmTTYIOeKII7wGWqST9GJQ5+DqZ8GxmcqRumhIsKoCBJUeYvExnRBUC4J6XWIQaEHIKRcFCBVzc1GzSnmvJCw/G7fswNYde9C+DX25KYBQlsr7n3iWChA6duxY6pW8Rh41Na6KFYNAYSnZVPHsZXXv2fznpsBBKpxly5Zh5MiRoEuMFr5jjz3W2zsSKMe05jVr1nh7VBoZMc2xa9eupWIQxAKhB6Kpco8AQW/8I4rZVn/CRkOTBUHdf8y2Umt/iHxxxY2pyk19lk0XcexqkKIO8ElDfqdbVW26Q4CbrT6JpPbGEw8ndLfxYazDL69LLwaumfCVjF3v0yHMT3qoAZZCR+FRU8gA94OzFwOFaL169bx3qBPj3/1KuWSvpXdR4CC/5znMC0CNtt/2UlbZppPfsyyy9yyJUvX5sGvnTk/ZmFwMVGCM2lVTYzzi5u8FAulIT2c7Ur4jhIJCprVkWDvDCQjgf/UAG0FZJjOcK7/UlcNPMML3SGEaVagURwhrEtP1Lt6jAwC5nUxqoqGAHF1AyZryBEIQJi4eFRQVV8UsKvrBjcXgr48//hgUvO3bt/dOCaSZ8IfppCJCir8xoeJYOfwcu7xDB0yxOhHqCmnDhg2YPHmyF2+Rm5ODWd/+iHlz5+CDKZMRKap2d/wJJ+LYE7rgmLbNvGZkAQVwlQhWr1lt0ePl79FWs/vmPKi/9ShfdK/+fSz1Ge/vo+Hf6lh0UB7rTbGvm+Yvd7muxZp/yb2mU1zscUVlFS0IBAE0vasfVfHpz4qVksa9zsOAeip2PU8OF7b6GaoM4N95UGKMAa14zCg655xzPGCgKnPTGEXJjh07Fl26dMHBBx+8z5xt8obPpnVCzxKTsdvSVW37nPfxIMFUPKaY6h8qHLHexiMPeX+sHH6bTJEgdp2PXO5u1zWbnHKl9truicU3no41pG+SHjygMVtFBXX8PtbYbW5mG2/we8nSs1oQ6GLgD3/6ZhbKN2mLuuUzEGHLUQIEr493IXZs3YrsCtWRxqYc6SysEa1YxoeGfWH4wn4PIPjYT9zrLx7xhDGRgw9+bN2yCeUrVUbAx9TEEvEqLgY9zTEYCmHBp1NQ44iTUbtCmpcfi62/YvyMDeh3Vsdic0oqiyHqv+Sfsii1LOCBJw4CBSpbplcdeeSRnk+UytpmohO/msmC4EoVdaU52qwwEu9gEswSpDhw4EDk5GR7ACF/9x5Uys0qzq7evmsP0rNycGy7VvsAMvYXYXrVskVzMXPuIu+eQMCHuge1wJFtWiI7I1r6O+LlTnIPRBGyBz4i3AchFOzYiN83FaLFgbU9JS6xD9GsCf7Wg9JFxWB4XXLQPXuGZ+cgy/vZ76QIbnhJmQTkEda9Y1GbFQhUrIdquene935/Sc56KMyup0XwgQ/wxuqL7kkv5iJ61atFw3u9ynbAts3rsSeciRpVac1jA56ioROhR/u9enOOJoBE00S9Z3kHCM6taErevX6EvTlE38UZc5bRo0UUZAUMefaJAIR/WxaDOnY5ufG7FStW4JtvvvEsAuTZ1q1bo23btt6hSJdhpiBm2ZemXgwCLmz7ktdTWQzRlbFZEISGNgtCsmmOpmwaUfR85/9MsyYy8+O3Xo6DL3oI7avswqbte7Bl4wbUbNQcgW0r8Mbrb6LDeVeiZa1c/PrLAuQHyqNxk4ORm5mOtSt+wpptEVSvURO5uTkoXy4HSxd+j50R/uZA+At3YunKtcgMBFD/oMbIyQgU7yMbQAiHC/D959NQo/UpyClch1+XrcbBFbbiurGLMP7R61IAQUnN+zsAgvimePJYuHAh5s6d622us88+24tRMDWZ+VcChHI5mDVnAZauWIWM9JK+AgWFhWhQvxY6Ht3WU3hqkCJ7iiAcxOQn78So95fgtK7HI1CwCR9//i2uuG04Tu/QBL//+gs27vHh0KaHoHx2OjatWobfVqxGjQMao07lHHw4YRTGLwxg1O2DUCU7hF9/XQaUq4hWzRpi28Z12JWfhrq1q2PDn0uQn1kFOZEd2B7KQMGGlah6UGvs2fQHVq7ZioObNkeVnICnWDKyMrBi+QqUr3UQauXuweh7hyLvyD7o3/N4lM8KIMBOaUWfwoLdWP3HUqzaVIBDWzRHFvbgrzUbUKNWbUR2bsaKLQVoenA9bFzzF5Ys+wOV6jbBAVUyMenFR7Ekvw6uuKwfKmfkY+nixdgVykSL5k089b7mzz89a8uaddvQuFVzbF7xK8JZVVC/bk0EAmEsWfgD9vgroGHDBkjbuwXL1mxBuXLpyM2tiIzgLvyweDkqVa+PgxrVRaZnAt63EM//OkBQLbE//vijB7R5kGrZsqVXv4D7R4IlxfqozjkFEEofIMVKoPNFKs3xH0xz5Ol/5PUDcOjAkciZ9zwmzNuKoxrn4d35e/HwFe1x17BR6HvrI1j3yVgszWuLBv71yM+ujROb5+Dqh97HBd0PxydffI+LLhuEHfPH44ttB6Bhxhak122F46tvxcUPTMFFAy7AWT27o1J2SVUsK0AIBTHsiu7oMHAUZk9/HdXqNcSmn97FgmAHvJYCCKVcNWUNELgRpQ4CXRoUePQrzps3D6+99hoaN27sRVdLjIfq6zKhYn7337Mg5GDb9l3YtWcPK8oWf3jizcnJQoXcctFSs0WnYe+UEQ4iGCrEW4/fgXeWVcIjd1+D8jkRXNKjC4648C4cuGcuHntnMVo3yEZ6rcNx/kkNccMto3F4mxZYsWotTjulK6aPH4XZG8vj7iHX4K95U7BoWzZWf/spTrttLOrvmIOvV1fGA7dchKdvvwBrap+OZuHvMf6zHwB/BfS6sDc+GP8icvMyMOvXIKZOHo1Jjw/HrOXrUDG8HYs3ZeGKy/vihWG3IOPg4/DYcy+gaWWaK0uU7TcfTcC9I8cjOyMfq33N8OTwPhj54JMYeNN9iCx4HjdM2Ijn7jsbTzz6JMpVqY0fvp2LHgOuwbzXR+DX3dUx4plXsPT1WzBxziZkhzYj69Cz8NQdZ+Duqy/C6lBFrPttIWq0OQ6+9X9gi78mHn14KH596148O3s7qpaL4IhTL0DPGqvR9fqX0bpDS1x46vF4dPSzaNb2CKxfsRSn9rsW53c7Zp+mbvGAAzkJ2oIU5ZRoyuGPFYOwv3UQ5KTPGJ8xY8Z4QID1C2h9o19eTOVqefGUBaGkiJItjsPkFk4BhH8AIJRkMUTw8A0D0Hjgoyg//2n8gMNxda9DcNaJgzFiwoN4e9QInHnFlbjq+hEYdvfV2LNhJb76YQUif85D1un3Y9ARmRg77gU0at0CT901FkMefwCB9T9j6vfr0ePgEIZM2owvJ9wVNccWV7CL+lQkzVH1kRGw3NWrPRqdew82/rUMfS+8CHkrJuHCFzbirceusUZs8umuXgy2pkGuuABXBL6r1LItdsGVauUaB4OWaFI1xXGIj0m/RoElWQx6FHOslC/OWy1xS9pSsLGOAoFC3759vTgF+sloKpP4CZO/0EVDVy+GZLIY6GJgoSTG10j6TryKJ2pRDyFSGMIbo2/GLU99ghaHHoRtq37B7kqtMPbBqzHi9ptQsf1F6FAviPc/no3j2x6Mp1//FJdcehkOa34oGjdphFfu6Y0pe7pg2iMXYt7ceSgI+jHl8RuxqMYZ6O9rOg8AACAASURBVNuyAF+srIrHhg3CE4O6448GZ6NN8Fs8OSeEb6Y/iU2rVmL+94uQXbAGPXtdhWc+nIef37wPu5ueg2GXHY1T23bGWUPuxZw3x6Lj4GfR77gDPAO+Svd7Bp6OnQedjrsu7oz3PvoGdRvWwqhhI3Ht0FEomPsULn1+NV68/2yMfmQsjujcE0e2OxyHHFQDr4y6GxurnYrhAxujQ+uzcd1zU3Bs+gI0Pfk6PPfJXLx5d190u2IYwt89h5ve3okvJgzGkFuG4/LB/TC4x7k48aYncGDoN8z8M4Bh3Wqj2x2vYvx7n6L+phnoMfBB9Lp8II5seigOaXoIalQpXyr2I6E1KopBYFwNU3TVjwAEk1Kx+brF7GsrtWzbywLO+U7KAgYejh8/3iu4NGDAgFKpw+oYJYtBDSortv4UFnprGW+zpoL8vQhGfEhL83kWGa9QsefyirpzIhE/Nm3egmpVKhWZ2elqijq+PHlDgIwAwr4IAtE7EArTdRlEesBzKsPvC8Lvy/Du3zdIMYJguNBzIe3augX5kXRUqpyLMMcUKsTmXYWoVL6c1+03kJZuLExmi8B3ZdRJtppaw0WloQQp6rzB8dv6NNjWmWubTJqjrYKsWFuTyWKgjLel45v4yRUL4cxiKN3NsQQgVFzwLH5OPwqXn9EEZ504CCMmjMAbjwzHOQMH4cor70Tv/n2QGclHdqWaWD3zFfhOGo5LjkjzAMJBLZth9J0PocdVl6M8gsioVAdN/Usw5L3deH/MNZ7fUg3x4gClF4MKEFjl7j/nHYOG592FLauW4fz+FyF72du47MUNeO3x670Tqa2znasOgi3P1ZWiGaubIwNyEklzdIEA1zVXHQSJQTABBCmUpAIE/k41ZerC2VYHQYQv4wYmTZrkBVzRZNqmTRsvcIrPteUsm4JG+d5kujm6gjn3GyDQ7x8M4o3Hb8Fzc3bh6ot7YspjN2NP0wEYeU0nXHvpZSho0BWdW1XDXpRDp6OaY97sL7FyyRLM/WEFzrzyeuTPehRv7joeE2/qjJuG3IomR3TBd5Mexa5WA9D/8AimLcrAsw9fhzvP74aCNheidfg7TFpVHe89eSvef+EhjJv+GzoeVhd3D30Ez0ybg0WTRiHnmAswuPexOKdDK3S54n589/Yz6HDdWFzU6QAvbsGvuBhuH9ADhU3Pwh0DOmP2Nz+jQrU83H/nvRh09yPY/Mlw3PZeIWZMHoo5H32MBT/9hi9nfI7Tr7oDvkXTsbpqZzx0SRMc3f58DBk3BUen/4hW3a7F0x/OxJQHr0GPK+4DfhiH66cFMPepARg0ZDguuqoXBp/RG4dfeDuObJiNYIWG6Fl9JU6762O8N3MqaofW4q03JmPJkmWY/91POKbXIFzXrwfKZey/i8GUxWALsIsFiuOt/SHxV/w904QXLVrk1TEg2O3evbvnThAhLv9V96atkiL3g22MfKepm+PimW/j23BjnNP+EPjTyAlF4KCwAH/8tR4Vq1RHYf4eVCFA8E5o4eKQmEiIwegRhH1+BLyAEV5jaXKWYs9HWiDTi4fhM8VCxb1XKs3Ra7wU9lx1n702DrWP7YMmtcvDz5iXdd/gqjELMPqeyxAOBZGeHgUZJnljC7CzrWWyaY42gMD14Xqa5FSyAMEV6GkLHCRtbGmOLoDrCvS0jYPfW7MYCBB4emfOLTnmkcEXo/Flj6LC98/hl8yjcNnpjXFO10F46NVReOWewWjS/Wqsm/MetuXVQ83cMKrUbYZGmeswfOIcdDn6EHy7YBHOOvcCbJozCQsjtVA/z4+aTVqjKRbj+snbMPXxq4sDm4RBSCRGmzMvv5QFIQz854Kj0f7q57Dg4wnIq1oP6Tt+w5dr62P8qOs9FGtDXyYLgmxoHSEWB1o6mlC5IvDLulmTS/G5ujnKPEwAQZo16RaEWJG+ptOUoFFJu1q9erXnevjll1+8jXXaaaehSZMm+5wSXDR0WRBs97noxMBK5pXTgmBqGhPrpEpwGgUIt+LdP6rjsfuuRWj1bFw44A70uWUofEs+xfMfL0WbQ6uhVuMj0aVldTzx7OuoVq0KFv+2HKcNuAbZiyZi8Eu/4NrLemPe+xORWb8p6vg34YOf8zHwnKPw2uvT0PKoDtjy21eocGR/tInMw+S/amDKmFsx5bkHMfK1r3Hk0Udi7qQxaNr9RuRtX4iqx/bF4D7H4KwOrXHytY/g9+nPYOHuanhk9BNoXjOr1Knio9dGY8yET1CpfDq2pjfE0Fv646EbL8eWzAY4qPxmTFlYHm89NwhvvzQRwUA5/Dj7C3S7+l7kLPkIz328CHePehw/vDIUX64sRG5oOwpqdcBDt12Au665FD2uvB/+BU/jmuk+zH3yYgy68QFcfPONWDHpcby7uBAH1qmOI7v0xLHZP6P77dMx5YupqLjhRwwd/jiyq9TC6iW/ot0Zl2Jgr67IUeJCYq2LfhKki4Eyw2RBcEVtm7J9YlkQdD7k3lmwYIFX2ZCntoMOOggtWrTw/qtG7nO/mOSUrZujjMOWFSHNmpj6KJ9ZL96Od/Z2xOUda+HXn3/G5i0bsCu9Abq2r4XRo55Gy5P6oMdhNfHxpzOwLZSFth2OxWGN62POtNfx07owauT50ah9FzSvlIZJ70zGpt1A6/ad0PaQynhzwjRkVsrFEUcfj3rVxQIRKdXN0evgEGHYrB+fvzoaNdufh71//YTvf16OGnm78NyMXZg87jaEw5TZZkBok+euTAuxIJhS0GPJNlstAZu8kToIpjR41+HMlVniymJItlmTbV6mzBjyD7+P2c0xChCADWv+RGblOvDv3og9yEa1SjlYsXQVajeogw1/roAvpzJy/HuweuNOBHxApSrVkVm4CV/+tBFND8jFlKnT0eK4U3Bk45r4c80m75lVa9REXnoIi1ZuwWFNG+0jA0gkVvZjnwA1d5Y/XL1iMcpVq49dW9dh2/Y9yMvNQSSQiXq1ayQMEFTTk57L6mViJAkQmHqoVlKUdCTZ6Cbh4HqXBDiZ0r9oQWBGgf6RTWRjDjZrYh0EvZJarE0Ub7tnPofFidhBkQKTQtKrQZCTUzzUvxMgCDiSl3EsdIEwi0HvEBqPEoquQQRbN6zBtoJ01KlVFWn+MFb8vgRZlWogLyOM35f+AWba1Kx7AKrkZeCPFX9i645dyKtQCXXr14Nvzxb8smQVqteug9CuLdi+N4g6tatj3dpNqFmzOtb9tQrh9BxUKZ8FX1Z5ZGMPthWmoWHdGti+ZQN+X7oS2RWrIie0DXt9ecjLDiCtXEVUr5yHFb//hvLV62Lv1jVYvXY3qtSugEAoUJyR6fMFULlyLv5cvgLb84OoXqs+6lWvgL+WLcGGbfmoUbMSduyJ4IB6VbF21Ups2rITmeXycMCBDRHauRHLV65BgyYtkF64Fcv++AthBFC3QSNULZ+Fv1atRIWqtYE9m/DXdqBx3SpYtXodKteoiUD+Vixevop9+VC/QUNUSCvA8jXb0eCgAxEI7sEfy1dg09adyM7JQ70G9VGxfDb8vpLAynjWRn7DNRKAQAuC7BtedykV194jH8fiefIxAfELL7zg9UVgs6gDDzzQc7OZcu5tSsAFEFynRFM3x1kv3IbJ+R3RtdpKzP55A87tfQZeued6HHXJMCz86n106n4+Fk68DXvaXIUT6+3FazOX4bJTG+H6+9/DXXf0w8uPPoSm59yOOqvfwg++o9CteTrGvPkdHh7aB5edcw0uvGs42jc9ENleJdKoUpFujkyBjubohL0MmaHntkOLS5/Eqh9n4rBjuyKweBKGfp6BD565GeFQOCZA0Pfy/gAEmyk+VqqgyQJqAwguOe+6JrEqtjRHHSCIXonFv7ZDs4AYfY/xe2uzptIuhpJbVb+PKE9eFbO0EJBpXjvXz0efAbejZt1GqFinEa69+nLUrsjTTHTji6KzKTe+i9XCWEpUBwgl4wh4aVTRZ0VTpFybKFkXA8erElgWxeU/J0CI5WJQQQPfsT/VKBMFCGREk4vBdVLhNZuLQcZvqyUhrofnnnvOy5OmuZVAgZtSfIWqMOfz4nEx6DSUNMdYpZaTiUGwKSp93KXBXDTVT+X5aFVnaVu77zW9mIJ+8ow+y/v/UkMq+V0ICEWwdNmP2LrVy38s+n0ATQ9rjkxGZRalMXr3FPfXLXle8ZyUeiYyBxtYNYHXqGIORdORi/a9Oh9R3Dptk61gKQCBMQgmgKD7foV/EnExiLLiPdznv//+O8aNG+fJCDY/IxAWhWkyj7v857GsZrYqgKZKijNfuBnv7OmEEyqvx5q9mbjgwnPx3OBTUL7zf7B5xTx0PvVc/Oespoi06IXaObswf4UPIy5ohtGLqmDiXX0xceStwFEX4fcxffBjelscUMGH+d+vxisznsRDAx/E/S+PQWXK36K6OGoMQkk3x2jjs9t6tECjviOx5Y+f0efiq1Ftyyc4/b4FeO+ZWzxgkZYWja3QAZ0rdTp6376WB3ExmCrmxlrnsoxBcLmETDEI5EXS0GZdIk9dfPHFGD58uAdC1U+sWLlkYxCKi4PppZbp/xcLgmxoDkJdFFVQSDCJtzE8CRgNhMnfsxu+jCykBejC8iPNl1bcXpeMowIEVXDwPWeeeSZefPFFr5CPfAQ52phDz1dV70ukm6PMTQgvCkdlYFcEPtMABSCogpP36+4Mua77/lV6qAygP89GQ9WCoApcQakSpChFN2RutohuXheAIIyj0sNWSZH38MMxsMLk66+/7vllWZmR5leJUdAVjNRB0FMn+U4dnMm98i5ZL/WZah2EZCwI8QKEkmJIxdwXBbJK9yeVbp6SKuoFQU0u9QDkbl2h2sYhv2Mgb3G1MoaSqV0piwqbebUZSpVTUgs4Sc2CIgji1TCIgnAVkJVglBLlbxqbyocqUPL4MIoQShVWE16xzdP1fSyAoOefx+J5vov3qO2eyXssg0z32fz58z0lxQZnTFVUaa36d/XvVfmlrq8KEPR9riocHTRKDILa7nnmc7fg7b3H4sQqG7F6bwb69j0PL9/QDRld7sCmpXNw3Enn4tXBp6LF4DdxSpNsbNxRgMrbvsXAFxbj6bsvxksP3Ima3a6H79Ph2N3+BpzZrib+2rAHLRrl4JrLH8TwFx9DRQLIokwfzokA6YYbbvBaqkfXOlpn49buzXHogCewdtEc9OgzAP7f3sK1b2zG1Kdv8ywItiq86oEvXhqqACFeGso6m6rO8loidRBsPCXfixxVYxoEdLrAowoQRGbLftStH+q8bVWO+S4bj5LupaqHqgBBtyDYAIK6UdVoUzkdsSgS67CEwmF4tZUYiOgxU0nFNJty48AJEF566aWEAQKZTVeIHGtZAwRXmWDpxaAHIv2TAEGYzVZq2QUQ9Ehflenj7eaogiz+XdA+x0WAwKpxjAtgDATLxLK0t/rRT1OqUPw3A4SSokC6KlMa3St7IKqqVYuCWo0wWmQoqkdLWx10IFIaSERDyHSFXHpEtuqM8p5960La7y8Zpz5rfdzF4xRQtI/GJxApSXlOBCjEAgh6mWCVr02nc1Ec5HnyL+ML5syZ4wlWZg61a9cOzZs336fvAJ/73wYIP0wbh1n5zXFY+R3YXJiOrl2OxYdj7kTO0f2wfuHnSKtzGOoV/IJZi/eibrVcpFVthFOOrO/FJ9Rv0Qpzp72Bw/vehY5V1uGNGT+jbvXyKMyuiz7dmmH0yDdw8S2DkMdMhiKrMOfLDA1WaJU+PhEEaWLAM7f1R5Ozb8O6n2ZiZzgHOdiAHzdUxn1DLkA4aAcI8ZRa1nk8FkAg/6mWAjkwSbyDSXfohdmEbyRIcX9LLcvzKBtVWanzPi0ILB4oFgSbBUwFCPGUWlZpKDy/3wAhHpQiG0X84PGefuOxIOjmbFG+fydAUAV1WQAElR5lbUGIBRDoYmCzJjVIUdBtWQEEzk9O9cUuqKI+F/yeQIEtbGfNmuVlPbCnvZj/dReDDSCoNFTfJahcNplYEJJNc0xEUaV++9+hQCyA4LIgqABBBTUUlJ988gk+++wzr4QwSziTVymk+Ts5Cap86Dqd6ZZYla/VGIR4T78cg6mS4q7tG7E7mIE0XwEQSEO5nGzs2rIBaeWqonD3VuwKAhmBCJC/F9vzgSrVq6N8ZiFG3PUADjuhMz5+ezJOvew6dGzeAOs3/IXdu0OoWr06cjL92LJ1FypXreJB20BRnQ3O66KLLvLKLUcBAtMiQ14mDe/3BXKQnRbB+k3bUb5yeYQLfahatQLCoejhgfM1zVnkxt9pQRA9ZUsjTQQgiI7Qe0y4LAhyT1kAhFIWw6JOlCYLTSwetcYgEAHG42LQlZuKylSmd5nHJQJfZwyxIDAGQW/WxE1OYseD2kRM8fcuC4Ku7AVVSvCHycUQCyCoMQjxnH6TBQgmGnLeAhBMJyNes1kQdLeKSkOXi0F3udhQsUpbMbVSCNP1wCAv1uBg/Am/I2PrApj36ymmqpWL4zWlkDFIkbnoyWYx/HdUXuqtiVCgLACCCg7YzfSBBx7wmiDRdE4rlyrodYuE8KEIX5GJ8So3G0AgDUyVFEWxPProo167Z45TPqFwISJh1rkMIx0BROjmZfqiZ/b3exkG67dsR+XKlRAAFXnUjvXzV9PxxrRv0LLTyTjpmLbIykgDHcPhAMuFA/7CCHxpTIFkCfFoMTFauXSAEPbqbEe8ktphfwTb2fchryJ8kZAXl+CF/Pr8CAWDSC8CCLo1IFkXA+nPLAZdWbpoaHKtylqbXNe8ZrIgJAMQ5DAjMQixSi3rLgY93iGew3u8LgYPuOkxCPSp0Y9U2mwZNXPKdzpiVv+tX1OFtrrhWYlPBwCi3Bht/sgjj+zTTITXbekvpkhUdZH5d1P7YD2aXuYp9+oARsaomqPU30h0q55BIMrRRUNe00+/XMxYNNTvMY1dVfYjRozwGn/oFgSJbDXNmfTVCyWpzK0GB6qC1DZ22ZQyLvZ6eOaZZ/DXX395gYyMUWDrafV0weeq0bcmXjPRl+4MApBevXoVd6NMRPmkfhulgIuv/ts04tg++OADj2c6d+68j1uGfOPiUd6/atUqsOLhhx9+6FmzeCpmVD6DamVvyjxtfCjywbbP+R5TdpG41UxBZbYoez7riSeewIknnuh1eCz5SEdavisarIpIGmj293pnIIxNW7agWqXK0e4aRf0yfF5qIoFEwAMEgYgfoQABRNQ7HCxKS/TacKhvi0S8PH1mMtCC4DnUituN+LBz+3bklc9BBCzaFE1/9LqHkBZFLiVdocucVeAgPGiSU7zmKpTkylSwyVixLph6ydjaPavWW5vu0AOp5TCqy3H1fqb+00Ij3RyFFja9LLrSdGBS5aiJ7tZ2z/T7SxMKnQGEsXVBoG4U/ZpLoHAQpmhT3sP0OBYWMS1MMuPQTd0q0+mKSlWkOnPKNRtIESY1bXIRHKYobWEQfbFiCWUXDW1j5/dUmLQimCw0Nn8skTQ3oLR7VulkClLkXGyZBVxDW/2JJUuWYOrUqZ4VgcKGfe8ppOVjC0ZV36VvNLoY7rnnHs88rINEV7qlS+np74iHb/gb0/tIK+EB0ztd7/r000+9bn6y3io4s+0V2/OE3xLlQ5fwTeZdrnHwmq26HZV7t27d0KNHj2IyCm3VuAB1rRg8+/PPP3vAgBY5CuBOnTp5qYpcK5Xn1UOTOgZdEajyQQextvgEF0BwZTmZCiWJrOG7TNlFXBPGgOlpzjblJs/T3TSqwhYXAwPcdf7Ztm1b8WFPvaYGuJtO/CYXg+v06yqU5LIgyHrpY1DllL7GrmZNpufJvjRlMcjhUQex6jtdhZJMbnxVF+m6QAU++v7k2K0AgUyjp/UJE5g2mAg8W8UrG9LjoMg0TGPUCe/yxcg1UyqbS9C7Si27SvdybLYSlrYqgMI4f3clRRsNZTPbTiqyJkxHEuEhzCvmKlPxj2SyGPS1lPcI86rKWlA8r5E3WJHx119/9cAi08d69uzp1XwwpavxHgEIJsS8du1aPP/88zjrrLNK1UHgeBhUKsWTbIJeFxyqkDLxL8djO62SP/Q25nyGSempgkMFy7Kpec9hhx3mNc/SwYAqLFUBYRN6Ot/oQsUG9vg7pvzRrGvK+xfwoO8jFw3lhGM6IAh/qOBW6MSaGwSBJ5xwQimAwOuqfBB6f/TRR17ALAEoDyQs6MVYAxmrCyDYgmWTdTEkmsUgctmU5ij0EJltOsnq3RzVe1R/vAo4bXEc+8YglKSzc5y0Fqsp62KNUQMRdR61uRhsAIHjjBWkKIcfnR6JuBiEHiaAoMrRRGno0nukTTJBimWexcCFJqrUT7SCLE3+EXUh9dOP62RhKxOsCnqTYBbftf4u26mCi0aAwI+pwlYyAKGsSy3rfiR1bmochz5nGw2F2WzV1/g+1crxbwIIXHNJc+T4efqn4Kcg79Onj2dOVcGZ8IgLIPAZagyCehIUoKorRJugF0Gq01AF0gIQ1PeIAqYyVYWlerIwrYnsPVPcDcfAEy/5QMYv75TGNcLzovREkNpoyOumVFGxwunXBGTRGqiXOhfFrPvjY9FQlTc6DTlPnvTV+h/ye3ZJ5PemUssCELjfp02b5qVRs2U53VmML1Crtso+I0+ppZZtFgSVd1wnXD5PlV/q8/4tAEFOsTrdZS31FD0B56WDFOMDCLruUN+ZbAwCaUxeNIGAFECIZie5eJR0t2YxCECQDaIKXxNj83c2lCJmDDmF6wvmqoMgpyE97cQlODgOClH9pMJnJZrmKCcYjvl/sQ6CChBMdRD+KYAgSlvNYhDectWSUOsgiOKlkmdAFi0LLLjUqlUrT6hzjfhHP+Gq/EYLgqlZk2qF+TsBgsyB61KWAIGgmBH1VJj6nrV1tosFEFQFodLQpdzEgvB3AgShoQkgyH6dPHmyBxDoIhCLFOdAWvDE/N1333kVNdlJkXFO/K3M12Qp5D5R6yAkAhASDVJMFCDInFmoiadZtWaMym+2SnpcM70miDzTdLDgM21WWt5Hup588snFVmGVdzg3Aao6T5nGJ+MwXVPX1QQCOE5TTx5XHIdu2lcPYqYYNVXvmcboOhi7aKhbAdVx8JD05JNPFscgiBVGP0CqNCnzNEcdIMgAdcUspx5e181EiZx+TVUAXadflyXDZkHgeAQg7K8FQRalrCsp7o8FIZlKijZ3USzGtjWusdHeZJaOh4Z6mqPqfmATnPfff98T7Izc5imQSlJ+Y9qwksVgKrWsWhBU3hWBaHOfCcjS73FZfDhGujT0CqGyj0z+YhPPCw1VC4JubXNVlVNTt9S9LHvPJpht1jsVIKj04JjEf66PT06kNh+5S2ibepDw9yy1TEVJgCCWDbpfyDMrVqzwgq8Zo0D3mnr4iVUHQY+7UddL1kLmLQcjk7XVJb+SraTIao6cn7qOqtw2AR9eV11r6ppxjAK61e/jUdq2d6mxUiq9XPJG/Pj6/hLrkw3Qcfwm9y+/t43Pdc02DlG++jPlsGKiIedie57IL9cYTz31VG9u6m9c8samm108KjEIxkqKvKgiUVlMlTn0DeFyMQizcUI6A7v6CJiQFN8rG8yG2mxoOZkYBNOCydxdYMTVi0HQo05D10ZJlobC9KpgFhomAxDE3Kq3e46l3Hhdz/gQ5WBL6dGFJX8v8yDt+WF8Ak+EFJCMUWBTKIIl0wZjUOaECRO8SGv91MQgNZN5WTaz7TQlsRA6X7s2uigt0/tcJwtdWaqnB4Ijno71j964xnT61fkw1thtJxxbeXE+X8CvDhAEgBEg6DR0KQHep2dAyTxoQaD8Ouqoozw3AsEBM3UYl0CLEzMc+FH5KZaS0nsxqOBMTqrq+F2K1HXN1ovBBbJi8ahNGfE+8owepBjreTYetYEK4UnbHnONz6VISUebVZJjSaZZk0132OZs6+YYi+eTAT6kow6KhQ9V/SC8LXR3xeXJOEwywFoHgTfxdKNuIHmpfKdvdHWD6fe5GMfWidBlQuJYbCcLF7O5ujmaTEiiSHUUKPNzvStWN0eTwlHpZKO9SfGJL9ampGzjt4E613pJwJYKEGSsLhrqAEGY10VD12lK7uO7ua5//vknvvrqK6/KHQMZGaOgBwgSINAEympvOkDYun0b8irmIBBMj9Y4JBBFyEvVCoWBNL/PazrD1DAvRYydHZkOFg4gkMa/Ryv/eSWMi/K/WWwcfv46mvMdTTPzIRIKY8fuHcjLrQD4wvAxl8wX8H4VDoXg87MuvZdo5r2DOeuhEB8V8lrleuWYWWzKFwXc/FOjRg0vK6VYOHhZbSHkF4YRCQWRmZXt5ah5a4U0wB9COBiB36uBHi2Lzud5/w0zc5657bwWhI/AXobvte+N5r2rzXiYD++lfGVlIN3Ll/dKp0ZnHvYjxNQ679/R9Drvjy/Ne7cqpPTTqg2MmACCzJ0xCLNnzwYzYVihk4WN6tWr5wWF8nmm4FubXBMAo6f26vzr2q+JyFECBI7PVAROPeGq8lcAhy3WyGWFMR3QhKcSsSCosscEAkkvG0AQeeNtEbUseJGcl+/0OdvWTAfFslYqnfR3yZxtcsqmZMnzPM2bAmlNhzOhk2lN5FqiPC/60EQnFezZ5mxaZ47P2s0xHheDupFlE5nMsDJADsKk3JIJsOP4VPQoY+E79FgIdZyJuhiEoWxj/7cHKboEh83MKcjXNmdulERdDHyXSTBzbVxumniaNYlSkM1BoDBy5Egvl33IkCFeVLo0g6KLQY1BEN5gRvamNauRXi7P619PdZmemYXc9DREqBxDhUAg3VPO0TLKXrcRIOxDMBREwO/3KsYF0v3wM/GbCp36j9nkAR/SQj7+tCgvPNq8aed2ZjFke2DAqzjsJ1BIQ0GoAGlpVNRFJckJKHzR6PtIYQiZ2cwj96BHKWuKGoPggQqCjbAfe/J3Yc/uXdFmOEhHRk42MtJ98If9yA9FRRKaPQAAIABJREFUkJkWVfgEI16vhYiPfZ5YUcd7D1vxpqdlFoEHBtf5gHAhAmnMp+c4+W/ingh279qOTGYxpGVGi+H42MuPYCqESNCHQFq0FA8fwdFEC0xHrQu6QhRwbrNykfw2FwMtCLQoseCWZMioJ36TOyOWe0+NQVBlio1/ye824BPLxUA5qfcfERlrcoPwXTZXl9xns9KZLAiusbve5drnHIfNjeeyxLoOMXyfq1mTqVCSa51t7xK9YuIbmwWB83WZ9m3rJTLbZsmwHahdFvxkXQxiQfAAhFoo6e8ACDYTbTIAwbXBXLEQLoBgU/Yu387+xiCYQJbND+oah4uGglR1ZO7a6LE2kQ0g2OjxTwAE9UTHuVJBEAxQSLBePk3LnDNdDFJqWT1ZjLzuXDwzay0Oa1QTwYIC5NZrhWHDbkHN3HRs2bQZwbAP1apVht+Xhr17t2HL5u3IKl8JuVkR/Pj1F1j45250P7MH8tIj2LRxM9IyslChQnmE9u7C7lAAFfOysHvHDvizchEo3Ik1W3aiQl555JTLQXDXVmzbVYgKlSshKy2AHdu2IpBTAYW7NiM9Ow8ZacD86eOxMHgw+p1+DLIyaI73R4vfFAWNMYtBghS9Mjdh1pjYgS+nvoUxL03CnkJaIMJoc0IvDBrQE2kII88r/BPCrj0FyMvNRWH+XmzavBmZObkol52BpXPex+s/+XDTxachJyvNy5LYW8CMiepI9wPbd+xEVk4mtm/einIVq2DLxnXIyMlF9SqVEQ4FsW3rFhSE/KhRrTL27t2D/IIChAqDyCpXAdlZLK1LkBANeos37kLdMy6AoGcx7A9ASAYU/x0AwVUHwQakYoGHfxIg2CwILuVmuyb0TRQgxKKh7ZBrk23/FoDgcpElCxCsdRDiBQiq0omVxSAAQTcTubIYRLnZshgSLbUsLgYpzKSaxUylllXrhymf3RWBrzdrUgWbrbiKWsRDNQfJZpBTfVnQUASHKV1JAIKthoNaNEaloU4PuUZ+4kfP4RcLgqmyJa/pWQzxnNzkXRw7xzNv3jzMnTvXC1ClH5pWhGuuuaa434NnCIiEce8lJ2Lq3o54c9gFWLNoNq69eQTufO1TNNjyFd764FvAH8BhnXri5CPq4+WnHsP6/Azs3hVCr8v74IUbr8L8rZUwfOStWPLpO/h1A5CRmYaTTj8Te3+ahpnb6+GOC47GxJdfRdUjz0KNtR9i7Cd/oHmThjiqaR28OfljVKpeBXnV6uPsMzrjlfvvge/AI7Br9a8I1GyKc445GLdddyl2H3AyRg0dgiYH1vRK1QaKqs9JFgP3UlQRRi1sW9avwJCBA1D9mP64vE8XbF/5Ez78aimOaX8Ypsz4Djdc0x/5qxbgzY9/R/fTjsPk115HKCMLBcEA2h3eDNNffBjT/iqPpx64HWlbfseMub8CoT2oUO8w9Dq5DV5++W1UrlMFS76bj7wDWiB91x/4Y1sW7hh6F9Yv+BDTZ36P/L0FOLhTTxxXJxOvvfEytu5JQ9fzr8NxTStHrQ9FFgQ9oExOUmJ5MgFcPc1R7qEFgX51td2zChBsPK/mrKu8JgAhVtyNOkbKLlVpq9f4vZx+9b3s6sWgKje5T0zjArJMZngZh4mGrjoIahaAav7mOPQ9q8oo2+lXLZSk09eU7cFnqsotXhq66iCIjFWBgMxNwIiub8QaYEo/djVr0p+n0pDXXDxvs/jIYVA/XKoHSH2d46mDoN/D51ljEMi83GAyIbnZxthCQNsiC7oxuRjIoBKBrzOA+GL0+2QciQKERNIcPcURpo85Gs1r8lsmAhDUDS0AQV+UWFW+TOPgOG00lPGbrBIiwEw0FGazAYR4uzmK+V8sCCY/XTxpjhRG5AWVhmoEvrpZBCAIz/A+MjqbQrGuPi0Lw4YN8/zR8jyO795LumDcggD6dGyF9auX4ddNAbwy4Vk8c8VJWFmpI46uvR0vfuvDhy/1w9mdL0Lni65D83pV0e74Y/D2fVdjXrAx7v/PxZg7fRp2BvLwxTsTULfTRaixdCImbmiLmaPOxQ3XXoMDzxmOg5Y+hVtfX4FRY0aiQdZmvP/JYlSpVIjX3/4Qt9xzOx7sfSKyut+Fvofn4MEXP8SjD9yJMTedh/T212HkTf2Ql5vJEkyea0OEaOPGjbFs2bJiOtGKsH7lfPQ7bxCuGvE8unVoQscJ8vP3YPHc99HvjtcwdfKz2PrjO7jtya8xqG9HXDXkYVx6/fU4tF4tNGzUAG88dDk+2n00Rl/dCaNGP4FOZ/XHUQ3DuOKSYRh48xC8OmYUjr96BOr98Soe/XANrrvoZAy/ZyRuevET/PTsIOys0gYtK27C3a/+iVefuRZDb74NZ1wyGOf2PBVVyueATgqxgJiEpWpuTQQgMItB0hxVAGsCxcKjJuUgfMVrlB2MW9H50LaXZX+50hxNVhOe2mwuBpd8EB+5DhBUF0M8AEGVe/ppWgUjpvVyyQ3VxaDqFVkTEzhTr3lmbiU+waQDZL1sqb2ip0Qe6rRKFiDQSmmSbbbn2fhQDqS87gII5G2dhvECBBOINfFhCiBo7XNNiioFEAI6UPUQ/f8aQJBNQeuBZDGoAIHtyO8deCJeXVwFl3drjilTpqP3jQ+g/+lH44wW1bG+8pE49KC6SMs8AA+OGoIPx96HR8ZOxLKtfjw/ZQa2ffQQ5hYcijsvPRpnd+6GCi1Ows7lc9G6922ov+ZtvLW2GWY8eiFuvOY6NDjvfhy6dAyGzcrB+5Mfwownb8UVD3+EUzu2xY9L/8Lwh/6Dx/r3QMub38XA1oW49LaxuO+R4Zgy5DTkd74bI64716tiz5Xx+9OKAcLxxx/vdcSMWupY6b4A61b9gkvPvQQX3P0UzurSGn5/CKtWrMLW5d/hwrtew9S3x2HLD5Nwx5Nf495HhmLe26Mx5tm3sXZXOdzxyKPYM/NhTCk4EaMvPBS3D3sCt97/GNq0rIXebZqhbZ/B+OKdybjx5bdQ77cJGPT0Ajx63yBce965OPOhKZj5QE+szTwYB9apBV9mBfTpfQrGjX4KN9z1ENq3aACv3r8v3YvTsJ2mUgChdLvtFEAooUcKIETBtVjG/lGAwJcxTUhF3yqyNKEbm29HUJEtBoFmQpZL1dGtnDpt0f62ABVXDIIti0GQpc3kI6Z9XVu6YhBsWQyCHl2BUjpaFhraxmGjoQhYGw25zokGbNmyGOSkYou+5nWTRcJFQzWLwXRyM+U5qxYE2TxySiRAYMdIlitVsxgiCOG+S0/Dx4FT8Onj/THlhccx9pM/8cJTI/DMzRdgVdXj0PeExvhjby7OPLIeJk3/Gi3atsC4O65BRuc70X73dExZmYO+J9THgEGj8dTbT2Lao/fC16QnjslZiPumrsWjt52Ppx56ACfc8CwaLX8WD8/0Y+pbwzFiwNmYm9cVQ06qgnsefgnX3XkrXri6F1re9A4uaRPC5bc9geEjHsRbQ3tjbYO+ePT2/sgrlwX406PNc4qCoQgQmMXhzdUDvyHkb9+Gx++5Bt9trYH+/bpj6/cf4rnpv+HKS87CwyPG4pK770Pw+4mYvMCHm67tg0W/r8EJbRtj0otjsL3Wcai9ehrGrzwQT990Cp5+/HE0Pel8tK+7G9fd9jRuvO1GPD3iMVzz8luo/9sEXP/M93jkvitx7Xl9cOZDU7H+/XtQWO9YnHh4Dfy01o8OjSvh/oefxPV3DseRTesXZXd4uRFJxyCYGr1RLogFQVwMqqUoGZ7nPZLmqPKh0N5WwyGZIEVxMZj6uNhig8S8b5LLrmtifdTTHOUeW+0PSe3V5aErToq/LcsYBJMFVMYjWQwSnKyOM1Z8lS0GwRRIKdZJKS+uvicWDV1xN7zX5qaxNTd0zSuZGATSl5ZX1v7w9JEepEh/m5p+IkJWBq+DB1egiTxHBwEuphFzlsktoZ4sZFFEGYipbZ+jb1HEPL83KRZXkR+TYuZ3UrXR9C4qN77H5JoQIaXT0LXBSEN+TPSwbbxYNDQFNnFewmym9eI9pJUpx9hGe1uQIp8vzGuiIYUy52sCHTYauujENEAChP79+2sAAfjw1bFYnt0Cl51+NLavXYY3Jk3H4af2QvW9y/Hmu59gVyiAIzt3xwktqmHCKxOxZutu+DPy0LN3f6StmYdXp85G+04d8OPMGdiVWR51q1XElh0h9DixJSaOfxc51esg2x9C8+PPQNUt8/Dx4iAuHXAWlsyaivFTv0a9RgchN60QFeo3wZYFM1HnhAvQtrYf73z4Nbqe2hVrvv0AH/y4EWecczaaN6oDHwMUI1GzK+nORk10oUQRAlMWw1i/dhPmzJqOKZOmYMmqDUjPrYAup52DDk2r4Z3XXsX8JevRrPUhSMvPxFEdWuLz96di3a4QsnJycXzXU5Cz9ReMf3cOju3WE3XTNmPqZ/Owd+9uNDuqK7oecQDeeut9HHNOP1Tc9C2mzl2Pbl2PwNRX30DzbgNQLf93TJn2BbbtLUSrE3qifb0cfDLra3TofAo6Hn24V9RKZIpJWHJeYsGzCUtTkR/y/HvvvecdcI499thSbGVTlnyX7D0bz3Ovm5rKydj1vWySUTIYl9K28TzvFVetaYymvRcPDU2ZBbHG7orA5722Ij88NJmKTQmQMsmAZIIUKVPIO6bYJhcNTddi6RWbnOdcbPLQdUh0yWw+kzzPw43OA655uQ7NNtqTfgSrEnezD0BQK/OpCFw9uauDFAuCfCf/lc0gSlb3+6gR+Po9ohBtQYqmIBohhinQJJEYBFkoPQZBFQSxYhAoUGx+fFXpybz3J0iRAlG1PMgmdwV6ipJV6S6MTfqZAjMlYEtO4Co99JOFXNNjEFz3qEKCAoVrHA+gkznoMQgqv7HUsmQxqC4GpgVu2bYdFfLKebn73toTjBWdxoMFhfAFAvAHorUKmKYYDobgS/N56Xtp0XR+eKUQwhGEvVTHEHz8IuD3vouWRAhEayGEgZ07dqJchVzvn6GCAvjT0723hUJhpKcxNZC1CqLpoRE+LxJGMFSI9IwML4PB54sgwOcVCSJ2u6QFwZtvEUCY+823eH/q+14QJlvqpqdlI+CPIMTaCyE2tSlEVmYmQv4I/BxrmOAvBH8aMySYiAgUSmtfL7ux0JubP53hhQEmLEZTN/kdIigoDHrpj5JdEQ4GvRTK9EAaghEv4dGbf/fuPdC6devipbYF2KnAUudR0oWnKVVOCc+rQYr6qU53ZwgvxhOD4KqkqB5U+Pd4YhD0LoUcC2UU56qffnnNFaQogl6XeyoYMdGQ8ldv966eftVYHhXQmQI9BZy7Tr+m6qE6CFDHqV5T97ItCJRjjxWkKPEO6ntMc5b58r96rInoB2n3HE88nPCaAAQbDXl9f4IUvW2mxGvEE6So30O6O7MY4gEI6uZzpY+IkrUFKZoqeblcDC7/k5zqTSibm4/PNUUjm0zdKrgxMb2rDoKaxaCPxWZWVyNsdcFW1jR0mehimeEkYEtH/C4rjI3pXTRUsxh0GrrSUjku03rpMQglJ7owtm7fhIp5Vb2TdzR2jkqdao+FhsJFJnEW/ym6FvEhSBBQ4IOPCrOozgFhhXd7KOiZzxEIeAWXApFA9Nnh6DOZ8phbvkJRUaaiUz9vKwwjkOH3CiERYPAeESyhiN9LL6QtyQPcShYDAcLXX3/tTSlaniiCUDCIXbt2e7UMsrKzvKJMkbDMge8KeiDHzzF7AiXigRjGZBCQeEGQ3nSjdRWYyUEA42chgzTqej+CvjDSWDvC58OenbuRmZ3p1VyI1kjgzP0IME/fK3EbQMDnQ1p6enHHR/KhKQZBlKzNlcjreoqeCG21F4PKo653xcPzAhB04Wsr6SsWOp13xTJiUgISpGg6/bpcDKYgRVWhm9wgvE6rGlNk9Y/t5O6ioYDzeLIY9MOlqW+CKFLTNRcNKRt43WbxcdWSsGWy2GS2rby4gArb2JPleTWLQaWhi38FIOj612XJkiDF4g63qouBxE1lMaSyGP7Xsxh0wcxGT7Qg2HoxSOlj3crlOsWYNrpsPAEqJnNgvM2aRMiLQDS5WwjMaE5nFUn9JKsKS45LPTW5MkH4W5MgdYFzgmKJ6NbnrFoY9ZOgjYZiEbD5wm1pjqkshigXqNYRmwLW0xxVYJbKYiihocmCQFqZ2j2rwEwHHAJibQCB+yuWBSGVxVDkb0tESMlmMLkYZMEScTGoG4UCLZXmGBU6/0tZDCmAAC+4Tk5TKYAQrThoCkaOx8WQSnOMlup2gWKTrBTQKvEOIqv5W3leKs0xSqUUQNBsWak6CCUESdVBKM0c4mJItg5CCiCkAIIoI/VUlwIIJRaGlAWhhBYmkKgePG2Fkv6/q4NAFMPUQ3VzyQaTU73us3JlKriu2WpLiynGlsVgG4crItbVzdEVga8G/6nztt2jmp5MZnpX5KjtXa7o/LKmoWu91JQvnQds83KtpYuGsVrf2tK6OC5TDAr9rSy/zG6OesAZM0HI80JnmZuL7oL49TXmu9WMFH0f8T5bm91EaCgnMN7DNMcvv/yylAtBLD6cg9T2l3t4Tfdbq0FUrn3OezlnfV6uBmUcg6Tb6veZ5sxxShyS7AkZk1hCGKSoB73xGps1MWhXraQo8kuCdhORX8nwvFgg483CkvHYmjUJr9nSxYW++rxc4+A1Wzdd1/NcPGrbe/ze1azJlvlgG4fqftLnzIMWx5hoN8dk5ixBijY5b1uvRPa5Oj9bmmMsmW2LC7HNmd87mzVRWOqLrS6Kaq4UYaMOQo8Q5W9MTBCrm6PpHhEcpknbgmv4/kQAgsxPFfQiZIQuLuVma32rKhWdhrpS0X218l5d+cUCCCbQwXdLEJVJ0bsY29a4RqeHzM+0XnJtfwGCTkNVoevXmMXABk7169ffx8xM3jA1yBH+UxWrSi/9HXLN9r2sobxP/73pPlWh6msv155//nkP+OjKV2hPMKWfpuXdJjAV6536Pfy3GgyV6LtsYxDelb0hgpBjJx+qSkBoxxbg7Oh53nnneVNUx6LzvMqjroOArf+I8K+8Q5V7qvDV41pUwKTyk63dswsgiFw27VmXIjUBBJmHPr54aMjfCIgzARVXu2cVPO4vDaUOQiIAwUVD0W+mA4mpF4OqO/Q1ETra+DAWDeMBCC7dHC8fcnwECJKttt/Nmly5lq4ISxeC5URNIMAVwZosQLBFqeoAQWX8f7qbI99tooeNhgICTEFepKGkOSYCEEjfRLs5uqKbXYWS4u3mqI7f9S4ChHvvvRdHHHFEqQhn0ombQaKe1U3EE2pxsRAldUhOuEJDXaEK39gUH9+nZtOo1gAdaIvQ0IWvPJtrMmjQIIwbN24fgMBrqgVBHSevmdKzVCGlAyO5plsQ+DtpfWuyqIgMUOkhz5Zx6DRUgSW7c6o05W8pnEsVvCpSUN9++60XtHnGGWfsUxpZn7PwTqwshkR5XvaeSam49l4sq5krAt9VsCnebo6iXGxylNeTLZRk6+boktmubAqb/FLTHHXZZltnl6zkM2wZWi6A4KKhjQ9dh1+Ow3YYdOmpZAol/c8AhLKupCgBWzrj2NIc5cRismTEAghUAKb7bMzmElIuBkgGIHBD/FPC8t8CECTNUbo5qicV9XSjW27EHKieMEVRirDUkbk6Z/U95DvyVLxZDOqJjveZFDrXkQpx9uzZxQpR3qnWpVctgnyuyvPq+Dl2FZzr1zgOUw6/pHyZIrdV3lbpofKh6XSjjkNoIcDCVQdB7cWgvu+f4vlkwfl/GyCIxUXled1i5gIItkMMv0+mkqJNublAViyAQH5I1PqcCEAQerkU878dIJC+qWZNrG5T9En1YigxxQoYSaU5RmmingR08MBrtsY1Iix1KwLpGy9AEIEtVrNUmmN0w3JdUmmOJbTQ40lU14rpmlxPBSmWpqEJ3KoWBB3sp9IclYAvCjY5PehCz5bnLEjaZBoj4VNZDCX4PJXFUNquk8piKBFeKYBQunFRCiCU0ENArF7rQCwuKYAQn4yVg4CpCm+qDkJBQUT8egQCtuqGqnlRFeexzOO2oDe11LL6PPHFlKWLQeog6IFNghDLslkTT4gmF0M8pn1TsFQsF4OUWtbNgTZTYaw4DhugM8UgqIKoLJs12WIQYvlBSQMT37BQErMYxMWg0kp61evA12Uqtq0lv5dgSVsMDbMY1Aj8WDSUZ9oapbGSoupiUC1jHAt5XvzL6jVTUyDX3hP3g2kcqotBp6PL92syt4oLxyZveJ0uBvK9LjfUUsvqnF1maZcfnHOWwFydhrH8u7b4H9u8pNSyKWDWVa3WFHAsPGULRpYDWqLNmmzmcZeM4rvKOgbBRkNxMZDn4+VDjs/FAyYXA+krWQymds8uN01Zuxhc+jcWj9riZJzNmiSLQVc4XBRhemFA/obEcKXgmJQe70smi0GEZaJ+pGSyGCQGwRRsZvNLcV6ubo6yYfUAsFg0FMVX+pxtp6EIWRPtXTR0jYPXpLOdPg45qejfi7I0xWPY7uEz6I8l89qaNdkY20anWGmOUknRxPO2CHGb8HXNmbQnQDC9T4SKTkPTeqmBjdKLQb/PlfJl41/hG85ZV4iueYm5NZGULwFgtpRVkTf6vPhvU0Q3nyeVFJn6aZNf8r1KQ1fmTjw8r+9njt1EQ1lL0/v2J4vBRHfXPicNTPFLrntM6yXzdvEG3xVPaq9JJrrmZaJhMlkMsXSYTU6ZghSFt2LJ0XiDkVUetmUxqO8qCxpyLZ1pjjoy5yCTVcwuZOkCCHyf7QRmu2YSekIwF0CwRdO7mN4FEGwWBEGqJoH4dwAEEVK2k7FpHPGepkzKyBRJ7YrMddHQFbBlu8+1XgxSlDoIavQ75+HqiOmioes0xefahJsNINgEUay9p/ZiUNdFFZa64EiGhq61LGuA4HqXCyCIBcEEEGyAzrX3uCakIy2COg2TWS8XKEqmDkIskJWoBSHWaTqZg4Brj7kOCS7AbJtXLIDANTQdVlw8YNMPNoDAd6hu93gPU7EAXTwAIZF3uQ44ToBgcjG4Bu8yY8gpPNE6CHyfzcXgAgimuuMkmgsguJr/2BjKlaLnqoNg2xAuM6zLZB0LZCV6+o3lLrLVQXApnEQAnTC4K83R9i4XGNWzGNSN5AIIyZgKeU8yAMEVte1y70kWgy4cXBHdyayXyzXlalzj4m2XkLLN2QYQ+PtY3RxNINbFNya3mtDZZYVJZl4uC0IsGtp6ViQKEARw2J7nMo+TLraiR4m6GFzjcPGhCyDEkrE2K5JtnSW113bQSjQtNRYo/lekOXKQqWZNqWZNqSyGVBaDLuypbCgfTEo21aypBJ5JvIMoWVOqqImG0s3RFoMgCkdPCU1lMZTQXk3tNQXTu2iYymKI0pH7PJXmmEpzNObVy2kqBRBSACEFEKLBa9LiXI3J4N/16HZRUymAoNuySoIUJXZN3DWm7AFxaavuznhBVgoglM74kQqneiyaK2g3BRC0EqypOgipOgipds8lpwdx76UAQgogiKqX4FUqbVvtD1sRIj4j1c0xKmP5x0RDObnzuq3ypQSV6iBLdZHpVpMyBwh8WaJpjsnGIMQqtZxomiOJYUrdIvF5CiBhpaSuHsylM70sWDIxCDS3MqjJdgo3mRdj+f5t40iGhsKkiY4jGX+sy68Wq9Qy6cdujibfeqLr5YpBsPlHk/XHumIQSA89zVH1aZtiaFw+V+49xiDMmTNnHzqp7Z7jpaFrvfYnBiEZn7YrBsHkj+V6TZo0yZNfbNakfvaH58WCoNOwrGMQkq2kmEycDOfCOjRlmeZoi7tRAYJOQ1tQ9P7EIJAeJjmfTBwHx+sKUqQcMsnRv6OSok3Wu2Jokklz5POcvRh4mpLgQhVB8u9iGtJNPqIMVTOcmIrkPn3DSjW0eO9RTXimYBiJONffI4vM95gavOj3yXhUpKbSgXM3vUt+I2mOQiOVVnKfPmeht4m+pnEIbZOloStCWF8veT/vkYjuWPRQaSgnUl04uGgowlI23/7SkGmOr776KgYMGLBPDX8GKbIuQaJ8mAwNSQM9i0Glle5fln/baMV7mcUwa9YsY60D3icgKx4a6qcTUwaMaT+76iC41jkZGnJMekS30JDdHJmmLVkM6pom8i7hVcliMPXq4Lwo9ySIWGglJ0VTmqNLJqo8r9PdRcNErwlNXIcL3SQt95hoaONfdb9zj+Xl5Xlf2fjQdS1ePpRgdPJ8ojTU5xxL37jSHFV5rsvKZGkoPG+SU6I3dBrKu/R7XHwoAKG4D02BViiJtcxNC2JDqi4UqBJKf2YyEfgcg80MY0NLJIYti4HP4n2Jnkhj9WKgQLFZEEynxFgWBM7BZFFJhoYu/5NrHDYLgouG+2NBIJ1M62KzFLmQNAslTZgwAQMHDiwFEEjXZLIYYvnw+NxE0hzlhFuWFgRXFoONhvFYEEzWgFhZDIk2DUsmopv3SBZDp06d9ulgaYvAT4bnub6xTmeuQkmma8lmMZiCFEUB/FNZDC6rGcfiymJwFWZLlIbJZjHYdJuss8lKECuL4Z+wmnF8Ltonw6MxLQiq2Uk9wajMpip71c+hIhgxE4li009HKoLVLRJy6ozHDyqnHiGGfg+vC0CQk4DcI9YF1ZStnphVv5rrHhUti4tBxqGeLHSzpFzj9+pGUe+x+Zg4HhsNxRxs2nymaHSZmwhLXbmJAuNaE1mqCFQ2karMVRryuvjV4qWhlFqWZ6r00E1+co1jVxWzylPs5qhWUlSfZ2vWJHO2RaOTjon0YpCTpa2Soh70Fo6EgQgQioSAcASBtDSev+BDmHDRm6vJxSBzi7dZk7pnBYDL+uv7UjX7qzRUAYJ+ECjJCZdYFx/gi3hzKiAN09Oj82LgcFHXTBUg6HKD47X1YogFEEw8aguU43skSFF4Pp69LOBRb2olwtxGQxUgmGhoisBX36XTSeSvrQyz3otB+FPnomVwAAAgAElEQVTkvDpX2e9cy3hkpSoP+XeeftXqoXLi1Q+XOn1l7PHyoQqK46Whus9V3aHqFdV1Ld+LBcHWRE3NipB75F0mPhSed8UgqDWKhIb6wSge3RyLR1NZDKkshlQWQ5EUk1LLunnOBRC4wVwBWwJUdCHFzRxvs6ZIOEQdijAiiBAgBIgX/GCccsAf8E7IsQACx0lQrJoY+XcBWabxJQLORRHEk+bImXAu/kgAER8tgX6EQkGkBfyI+Dgv/q/EjSkmfJM1M9WsKUp5m+VJBfwmqxSvp5o1laZhKs0xSg/KqBRASAGEFED4lwMEWg4iIR98viBCIVoQPITAptEIBDL+5wCCZxwIASF/IXxIh88XQbgghHAgAD9YmtizNXlGBCqwFEAoOYerFkbdUpCqg1BCp1Sa4z+Q5sgYBPkIM4pZ2oRG9bKSunn8v+liECQtzZr2x8UgNJETmCnCnr+Jx8XgMn+pJ1kxE/L3egxCsi4Gk//c5laRU4qYW7kBpVSx6i7Q4zjkms1sFouG8bgYTKdfjlN37fA7iUGQZk0RRLzTKk3b27ZtR1753OjZ3Ofjed27RgzJE67fH8Ca5ctQqWEj5Hg3RYNUg8Xm8RIBxXvDSiVFPkmeSNdAKAzs3BENiuRz+PsdG9egILMyKmQFSmXh5G/+HRM/Xo4+Z5/AgSAQ8OONx+5BrXPvQqe66cUAQZo1eWvlPTX6yS/IRyQURlY2mzWVBIdFImEUMO4mPaPIos9xAMHCQqxbvw7Va9ZEmj8Af9FcZXacL90AUVdH0emriFa0imRmZSEtkObRMPpE/tVfXHbWU/q+bXj1mQ9x5qXnIIt4oRD44YNn8HNWO/TtcjjgD4NwwQQQVH4rCxeD8Pb+uhh0PpT95SqUZDL7J+NiSNSCoNJw48aNqFatWgnzEnqGw94JUh2fyzwuNBQztynuhr+J5WIwuYVj1UEw0fCfdjEw6N3UrEnnqVg0JI1c8XW8Ls0NVd3s0g/8nc39b3NNyTicFgQbQOBgTL7JWADBpdykE6EKKkSp6P5zERriw9N9ZKYYBN7DP1Rs/OwPQFA3l6l2giwcAQLfowOj/9fed4DZVVZrr5lMeoMUIJDQwQaCgNQoVRREkHLl10uTpldUFFEsKBaugOKFiyKWe68NLyhIE7EgIEVQgYCgoddQ0iCSQpKZzJz/ec/JO7NmZa21zz6Z5Abc8zx5ZnL22Xt/3/rWt9b7rUqTsPZZcQ6txiBAUELZaPDAOTO62frVyFSeEPBiELS5cmUBQgYqtKSCf49BijR5UxhFcRwM1okAwsUXX1zv5gh/clfXErn79luka+hasv664+WZR6bL4towmbD+hrLV6zeVJ+/9kzw2a4EMHTlGNp+yrpx32qmy3Qc/K+9800Yy/d775KWFnTJlqzfLlhMHyzMz58qkKZvJ4IVPy32zajJxeJc88ejDstZGb5QpY5bJXXdPl+4ho2SHHbeXsd0vyA3THpNhtaUiIybJ3jtuKN/66hel53XvlmMO2E3WHj2yN0B42YKZctNfn5epO7xW7r3jDzKva5jccsn5suvnfiHv2mxQnVxYL11qubtWqyvxWg/G8IDc9/eHZfTEjeStU3eQR6bdKZO32kHaXnxC/jZHZJuNx8pdd94lCxd3y+Q37CDLZtwpP/jFLfKRU0+Wnheelseef0lGjhwtr99mW1n09APyQtcQmf3cUzJm/LrSvmy+zJ4/VPbZdxdZPOcZuXPaX6VbBsubd9tThnQukEcfuU8WDhov++y6fW+nvB6MrW2h3Pz7v8oOu20t0++ZJnP/sVRmTb9B5kw5UE47/C0NFlieJUR54/nCoXC0nKJsKCq1HMXJZIFyupsjeSvby0X+3SwGAXO1EfgEATYGgfvcKnTuk2yf4xpcDBogRM/LlJs+COC9RQAB38ccm4lBiABCRF8eOkAPyF/P0uLRkPuoFRcD1sqLQbC6qBkakoeLYhAsDTFfLf9XNgYBdGcvhvpa2SwGoCKdfaAVjscAURYDCK+foxUAnhk1rckimDXT94O+ywO2vGhTIin8jqLiy2YxRDnQeAeIi+dpMKWVbJna3aQhfnsoO6Ihmc3LfMhomK0lGBHz1qmiXAOPHmAuG/Sm1yyjIYAIxh7lGGc19UF3DUTwTqQ5XnbZZXLUUUfJiFEjZcmihfKVUz8kOxz2URkx83a5a/5GsufrR8n0Bx6TnXfZRs7/5mVy3AmHyfx5i2S9SePkvE+dJoecdb68ZvBieeDR52W9sUvlvJ/8Xb7x+cPkhj/8WfY88D0y6tFfy1m3dcmuE+bK9Nkihxz+Pnl5+q/l2bYNZfFT02Tx5LfIQRs8LR+66C45+ei3yWU//ZWces7p8rMzPyFjpx4n79l7Bxk9fEgviZY+c7d87Pt3yL8fuZ187Ue3yEEHvEUu/saZst/Z18oBm/YBhH333VduvPHGxn312L9OWfiP+XLpf31TJmz9Fnnhwftlx8NPkJsuOl3e+bFvSNvfLpXv3DdWjt2uS665Z57ssc0UefblMbLl2s/It388TU48ek+57Pr75cC3vUWemH6f1EZPkbbHfyPTx79dpk54SW75412y2777yx2XfVfecvzXZMHffykvD58sU0b8Q664u0eOe9smcuVvbpTd3nmYvG3HrXoBQsMsM1M+9oHz5X0n7C933Dldtn/Tm+SOX1woHbt8SD5+8M7SVnczNCw0BAh2n+P/XndA3HPttdfW20DDqqJ5gEo24htvn/A0ZXleK7eynSizvQeeB++WkQ/Z87JrmJuXWVD0vCgTBLT3ZBTXDoCfgZ4NDNhWXx+r3PRa03Vi179IB+C6J8+LMsUiHojkFIAj3uOl3GeZfRENKbMjkAUrHVMPm6VhUY0i711YExyAe1N7vTRHohQuTrZhSQwOWi9olnrmFeqgQoz8j62mOXqFkihArDVAo2JaPyyTNtOsyXMJFKVaEV1bGuL/3mJGNOQmKpteVlRMBEJMb3QNfCLhG429mUJJXl366L4s3QcuBmYxjBgxTBbMXyTnnXGqHHHmt+XKT/+L3PiPCbLFyDaZ/twC+fBHT5T7rrhA7l80UQ485GA5YJ+3yqcPO1w+eu01MvqJ++Tiiy+VWS/Okp9d97T8/tffkJt+c5u8473HyeiHLpHP3FiTPdbvkuETt5TDDtxLHrzjl/LDX/xennnyAZmw69Fy+u49cspVi+WHX3m/fPW44+Sd3/yJPPi9U2TU1JNkv22n9BNsS5+4Q44872Y5fa8O+emMLeWrH3qHnHfq0fLaky6WAzbvAwi63XMjRKFbZj53v5z9hR/Jp795powf1CZtg4fLOR8/Ug76wo+kY9r/yLl3jZIvHLS+nP6F/5T137irHHHM0TKu4xG58MI7ZP+d1pKb5qwrpx+3n9xzy2/lD9MelLY5D8r4d39d9ln3ebn8sivlgGM+Jreed5TM2e6T8viln5E5wzaT8cO75NbbZ8r5F35cHnvoGTnsqGNk4vBBdYBQF6LLAcIR/3KGHPz/dpdF3aPksEP3k1t++AX52+h3yqcOf0vDRbLcgqBP2twPlEs2h5+HGFgQYFlAmqO+B3/bvcdnZUqKKV82iwHPKyqU5FlbMSdvXnhe1osBYwddouwib+9FipTzhothwoQJ/URbJDe4zz1XItcrAwhRIHAEArheZWnI4mA4xFjXTxENo2BOT2aDHuxgGrkYouyRVgGCdjHouWWHOgIEq5sz/aCDFFewIIB5q2ZNVbOmqIZDsy6G+mF2eaAZfnubKHPTMAYBJjwNVvF3FoFPIWWFg66DMGzEMFkyf4Gc+8XPydFnXiC/+eIxMvigs+WwrUbIkqWdMmrUCFm8uEuWvDRD/vv7P5HNdtlHbr7oXPm3Sy6X+35ynnRsvq8csMNw2XWXT8nPr/u6XP+rm+Tth71f2u/9gXz1rmGy90btMnqd18u737mdvP/t+8tH/udK6brz53LVc+Plkzu+LJ/4ZY/84MtHypeOP0EO+s//kenfPUWG7nKSHLTDhjJkSF/lyMVP3iFHfuNm+eoBY+Xb942Vsz78Ljn7I0fImz5zhRy8eYcbpFgX5LWazHzuITnnjPPlpHPOluELZ8qwcZvKtz93rBx42ndk6e3fk289sr589+T9ZNHiRfLgn66Tz/z33+WSb75HLvzWzfLu3SfJFQ+NkC9/+CC568Zfy5+mPy2D59wrax16gbx93NNy+RXXyP5HnSw3n3ekzNv+U1K7/+ey9TtPlO03Hi0vd3bIrEfulbsemyGHH3GUrD20o9eCUFfibTPkqEO+IoccuZfMXThEDj/47XLddz8nz0w+TD7xnqn15M22dj8GQSv8KouhQQ1aRjJlVGUxNGhVFOjZiouh2RgErhXXK7JYe7KSfL9GlFquAEJjOYj0I9ReFIOAUstZHYQsSNH6zrIAIFgQ6IvV93H8nm+1bJAiGRQb7NUAEIaPGC5LFi2SH37nm3LwSafJnLuvkR9fP0P2evMG8uKiHnnztpvLlVfeJFtt83p55sknZctt3yz3X3mRjNz5cBnb+bjMnD9CJo5tk1/+9Fo57oxT5PHbb5EhEzaWtpn3yMPDtpE3r9cjw9feRPZ86xvk7FM+KZvssZ90PTtd7n9hrHxk/8ny/duXyFdOOli+c+YZstcnz5Snr/iGPNaxtfzL/lNl/OgRvSefJc/dJ2f86C9y+tE7ydkXXCbb77S1/PHX18r+n/+B7LOhn+ZYB2XSI0sXvCRX/fR7smDo+jLrsb/JOz5whjx05TmyaNw2MnjmXfLoyF3lX7drl9v/Pl8mTxwkN973onzyhKly0XmXy/6H7iXX/+Z22ebN28nzTz4s6225i3Q/dLW07fFp2Xn083LTDX+QqQe+T6b95PPy8vYfkLHP/1EefWGZTB4zSGZ3bCxv2WSYTJ8xR/Y5YH9Za7AGCMi/eF7O+MQP5PDj9pIbfvcn2XDzzeSRO34r67z1/XLMvttJra3Wm8JZZTH0He6LlFsFEBq0qrIYVkMWQ2VBqADCq9uCMFx6li2T2bOel/HrbSBLFy6UeXOfljnzlsqESVNk8qTxMu/ZJ+WJ51+UEWPWkk033liWzntOnpq1SDbYcII89+QzsvakjaW2YIZ0j1pPRtaWyLOzXpTJk9eXxT0iIzvapL1jqKw9dpTMnfmMzJj5D5k0aT156cV5Mm6dCTL7H4vkdZtuJLNnPCVjJ28o3S/NkSeenyOjR42RkcMR29/4GTq4XV5AMOR6E+X5px6RFxe3ydgRg2TtyZvKuOF+miMyFFBroK22TObNfUEefewJWWvSJrLFRuvIP+bOkidmzJZ1JqwtS2SoTJk4Up545DGZ39UjG226pYwbOViefPRRGTZuHRkli+Wxp2bK6PHrykYbbiCL5j4j3aMmy9jBi2X+/IUyetyEenBi16j1ZVTbYnnggenS3T5aXrf1FtLe2SWLlyDbZZjMn/9yr58Zyn/UyJEyZ/YLssGU9eT5p5+Q51/olE2mjJfakNGy7tpj6lkVyHzQ/lgLpnGtsiBUFgTPrVIBhFUMEHBaHehKimVT9Bhn4J1+4W+BgGgmclSbJFd3JUVdallHYb+SKyliXXQMAv2SNN+9kiop9p3NajL/pQUyauzoenE/z3oTWWG8QkmIEuxGLmM9ZqRuMO99Vd36L7V6muPoMWN7r/TUumXWUw/I9TfeKguAMJb/vHan3WW3rTeT9sFDpb0HqWeoOFg3VvY+1yuUxO90dnbVlXPdH4sPl1cpxJ+dnUtl8OAhvcNrlCgS6e7prhdl6kCgp6mbj3nVaki3ZCpj32gWLVxYfw/m3EhwFJnz5H1y+XV/7A1UrrWJvGGX/WT3bTeStnYQY5B0L+t2A1F1zJNdEzwbWQy6qhwBxT9jJUX6tC2ddAyCR0OvkiJom6XovRIqKYJ3vBiEIitMWRcDSy2XraQY0TBKCac8aCbNsbHN+2QO5LWuAslrWaYNsxiYzr5CFoNOPaQSyCIsi4J8okC/rI8AJupFhxYFS0YpIq30YogyMDC2ol4MdDFocMDN540xo2EWIRzRMFuvLFCqaC2Z8tWnYBt/RQFb2dizIEXd2c7SsJV36SBFMj7n4EXE19Xw8hiKKBOklYhuPHPFZk090o3KAcuW9VOWbT2d0tU2SAYh2runr1y1pr1Nc9TXdF16j4aRbxpjLLv3GLAFIVsvEV2HQoNkUFufwqnXR+hZLD1tw+pgDJiEKXqWnzL+JUBAUyb+MFBOpzlqAJs9ryi6nTw/EDTMgsOKejFEtf1bpWEU4BzJgCjoEWtQlMXAcuaWhkXyxrNkZjQs6sXg0bAOjE2qoObHSN4AICBGKsoEyDJjonnRrWb3g+Z5j4aRjsW8snd5Y8QYmOZYBxw2i4Gd7bxNa819JG6UmsFN6t2XKTeLhPRYMAErwPB8LrJH3IhxcJ/OwrACxxtHdA/vZTfHSMhmn+PZWrBRUUX0iGjI+zy6R2tWRENaEAB+7E+0JgR0ZdcLDAoF5pkRuYkiOuFd9hoitpHFcNxxx/XLwsA8omZNrdKQwtKjPcaFdCV2tmvQEbU6eqS7JtLR3qgkWBe6sGjU4DCoOw2kvZED2O8H70LnQnRztD8QbLQg2GtUKmVomNEDc+qzmgEctEs7KkG2tfd2PoUFBckMPT3LRNoH1+s1eAKMyj6TAbabI+d31VVX1S0L7Oao550Jy2yf4DAQ8byXUltfO0dGcSw66FaPLwMI2fOivacB7grMsbzwjq4lwe9k74poWLRXoj0W7eVWaZgBhFZpGM05AwirgoYRz0f8FMn5Ij7EfPVBcAWAYHuEc7Gi9Jyi3PkISWXtRnmKsRs3O/1GOZ8Yv5fmSEJlaXMRMitKc9RBinpzRmi06BQTjSOiYdHpNzp1ZOPANZvmyLllp3qMxQOQRWmOWTfHsnUrZs+eXe/myEqKek2iTnPZSQXXIgtClm4J/vWaNeFA3b2sq2721ycEvKceV9DTo1wMfaOPXQyNKmoYC/OZ9Zwj2mcWumzv9TZrQsMIOBnqFSkbjos++aBH0ADCmRUmkjd4igeM8bwrrrii7iLdY489+unE7F0DzfNFJ+1oXtpqZhV6UfpxVI8hoi+e71kQVobnIxmFd2XdHKNTfaRXMj7MeL5onaNxRHsla/ccjb2I5yNZGfE8QUBE+6wOQqQDQN+qF0PVi6HqxbBcCq+pzZp4KqNAtNYUCBMPIBBgMCd8TWnWhHFpwI95eXEcDVBU9WKwBwtbBZD8wVoCXpyBd433Vc2aGhSm0i4bg1BUB8F7Ht9VpTkuJzzN/p5ZPUrRy4IUcQ2CpWyQYpleDNpigk3nFSep0hzZurexyWwBFa3csCnWpDoINgahAgh9qqjs3uOdzXRzrABCw9dt5RdpmBVKKgqwq9IcG1SsshhWcxYDmTcz67wSXAxRkCLmV7kY+hREkRnu1ehiiPyjK2NuBUWj4KCoPHbmpsnce7oXg3Uj4D6vNPYqczGoRk4cSyvmVm1BsOb2yNyKuRb1YvBiWorkV9nA3IxvMjlaFKToZdNk7ozsWuZiYFyApXuRW+3V6mKI9qUOzLW0aoXnM/feGuNisGmOzQCEIj9H1Agly2JoJQYBQk+ndOhF0+ZWu5hRRgJo0WoMgk5ztKbCSEhFAoBBb57CyWjIjV4mjqMoFiISlq0onKwXA3xgUQxCdF+2XlkMQisAAbTF+6K19CxPtKpkAMHLLCgC5xlAWO0xCAFAiHh7IGMQVgYgRDKqlbibohiEiG9WBiBEGQ6rMwYhAsX4vGwMQhHIimhYlMWQgayBjEGAjLIuBu3OiIKv14QYBNAW1qwwzbHRirb/D/2CDDjE//mTRbZi01rTIu9jsRP9LBIRv6Mo8Ajh0t/mnTiKGEebwAlOqJjtOPB/ghHvXVEWg/Wr6nmTTl4EPsfhuWkyGnIe3lpGNCxKO4oiurNo9Ggc2XpFWQwUHNhglm8yGqJZ0yWXXOJmMVBh2+eBbnimR3dci8afrRfuiwBJ0T7S42C2C+5BxP5tt922AitCSGEsXltyKg5v71FIkZ58sJYB9mXZaaoVGmYWBMwdfK/THCk3rr766qazGEjDTEZlmTtFNPT4JpsXAAKUSqQ8IjmaZWdE+xzP0i5evZ5l1os0zHgDz45SiTOeL5qXF/wOuYyxeDxftM5RMH20zwcqzbFZGgJkgeftntUym88q0s1cL4+nQKc0zZEFSGxAUXSq56nTexlPdfYansXTr3fC9d7FSXkoK0KcJCYZR5tbec1rQELl4FkQcJ/nc+eiMOXLMlyGiiM64ZnZNRbPaJaGnJdnsub4LMomnTAO0FGnfPGaPanwc65ZmSYzGCMjuiksdWR/FHhlAZ2mCSwISHM8/vjje5Ex1wsKm2mHNtCLQsqjL6OA7T2RxYe0AH+MGTOmVyZr+nqxGhkNMQbdrEmPhRHd5PlmaagBnX4e3oUfT5Ayi8GewiKeokL36Fu0z3EvhaUFL0hzROoeshjwHC18I56nQvQOJBgfFDd5Xn8ns5xqJWvlaGTZ0zzv8WGZ028RT4FukB06Y03f460jQbEXLKvBuXdoivYYTfHegTC6Rouad+LXPG/XM8sE8Xggkm3kXQIEe7ikzI5oSLmh6ZTxPL+HNEce3u2+pH715uw1vCJQJYi1zwvbPYNQVanlqtTyq7nUchWkmDe8IkCwJ+AswK4KUuwT93Q/UUFY4YvrnpWgClLsoyF4UPvxm6VhFaS4ioMUK4DQYFKiVDBmlcXQoMmrpVlTBRAqgKAtD1REnksA12BBAM/QIsETJGNhIutSBRD6FD5jEHgqp2Unon0FEFa0w1TdHJfTpGyqlXYVwNxjNzquV2mOK55wvFRRujMqC0L//GjrIgOAjHL4aYr3TKC4BnO8jvPR/GuDbGkK9E6ddHUhSPFPf/pT7wJTYVV1EPripKhwbP65VkQVQOg7GHnm8YyGmdygS0hX6K0AwpAVEAD1XtQuYI0ACBhk2UqKrWYxZJUUIz8dT/YeEbNKilkWgxeBT8GMVfSUZbO9GCwXtFpJMRpHKzTkRi+TTUG/WtmUr4zpV0UlxYhOK1NJMfL9RnEoGiDY9Qft4Y/1AoEj/i3ieQsQ+M4sMDdL7cUYPXCTjaO3kmLJLIaIhngXx+H5tL3sHdyTNWuK3jXQqb2Mu4hoCP6IXAy4xyuik/nPs2JInr+b9LSVFLMYBG01iYr8RHsPn0eBuUXpgFFWT0TDokqKkUU4ijWi5dRbL6+SIq1MWRZDxvNenAzXK8pYIzjzAG6U2ZfpADwvzWJgfW4d1ESF6SnmotQ4L9APk2YkchRg5ynmTOF4zEamh0LHj80J5ymsTOne7B68IwtSjNKOimgYbb6Ihlwvj4aZoI+YjULPq4NQxGze2ItoiAAgCksbsNWKYkazJpZa7t8HoSG88JnlwyJB71kQCKQ8nsfz8M+WWqbwLZvyR7ojSPH222+v83ezQYqtKOZs70VBihhTkRIok/LF/Wy7OeI9GiDoIEVe85RKtsYaFNsgRdI+angVKeZs7zHN0UvVLgIIHg05Ny/wFXPzujmCf7L1ygqiRXKeFgQG5mq9kinmaBxFQYq4jiyGMkGK0Tgi2YbPvSBFKvOyPE/ZUASKmbljaRil6RYd3iMrZxikCEIxlcIKZgyeaXg2aCRKEWFEd5Sip1u2krgkVtk0oYFMc8T8srFn78pSvsiIRJqcMz7XKaQ28hnfWx001OOwJzdcazbNkfPzaMhrGQ2L6tJD6Fka6nfZa0hzZLMmG4OQ1UEgz3uWgEwJROtFgKCzGDQPaEDHOXhgj9cwBgAEpjlagACaeIWSSPsyNOQ4vL1exPPePRmIzWQA6OU1rsE9zGKwzZoyGjIC3yoUAoRmeF7TUb/L0jejYVYHIdqXRTSkJdbyL/5vrY96z1qXGkGs5XnNo9FeySwImdzjNQt8MxpmVrMi2TYQaY56X3pZbASr0T7PaBg1a9L8G+mVMjTE89I0R1gQ8CL9kzFiq4TPGg1lgjli+gi1YR5ZJcWsgp23UfC8rMgPTlNRs6ZIKWZmogyotNqsKaJhtpYYu01z1IjZsy5lY89omAGEbL0ixVyU5ugpbCqISLkNNECIeCPbe7hHWxD0ns2EZUTD7F2Z2T9zMWTKLaJhNo4igIBDh9esKXpXkfyK3GpF61WWb4oKJUWFfHjo8EBAdi1q1hTJBqxJKzzfLEDwDiRlaVhU7yY6aRfJPU+2tQqKMxqCxp7VN+J5yqjIepNZMqJ1xudVs6aqWVPVrGm5RKp6MfSJZroRPEGKa16wJO6u0hz7aAgaaZN1syl6VZpjHw2hKKs0x/6QaY0IUgRzV3UQqjTHKouhymKo6iA04ieqNMfGXqDS9jJBaAGNTr9VmmNOQ1oCQONXXRZDUYBd5NsZyCqANPt7QUO4xjRHzx/rZSTQxBmZbrII/MzF0GoWQzSOiIY0B5aNpG41ojuLigf9PcGxJmUxwMVQJkgR9G0lWBIA3AtSzNxWqzOLgW4Eb8+uiiyGKDAzM2eDVlkWA1yke+21Vz83KU/1a3qzJvAgFHDZADtPqRTRMHIxZG6faL0yFynWq2wvBtxTFKTozbmVSorZu3AtynKDGR76xJNtZYMUGZuQuRhayWIoClKM3MKY28iRIxttEjo7O2sYGHwqWGhmMejAhiIhFTWmYACFF2CXAQT6R+xGoQm0TJoj5sYYBDRRsj8DDRCgABCDEJ3Cy6QXFgGVVmhYJCyzkq5RN8dVARBAP6+meivvQgzCxRdfLCeccEK96I3mK7oYygAE0DDLYvBAEeN6BjLNEWPQzZp0kFLZ1F4KqWjvFQEErFUZ3s5oGL2L8/MC7HANaY6tAITIN60tCFZuZHEc2sWg78tomLkYWs1i8BQ6aTh37lyZMGFCv2nRSlA2vTCLT2kFIBQdcPC+VgBClObIeBIvUNXKG0Uvxq0AACAASURBVO7jLIshU8xZtlIGEKJ4swyctQIQ8DzGILgAgS4GG0kfLUpWfyAbPJuF2EXhJiqbi52htgwgZHUQopN7VgdhIAFCURCKbrhis04yIYVrnjAvCigr2+4Zz2vVgrCqAIJNc9TmT4+GrdRB8PimGYAQpfxlew9BinfccccKwDfLCY/4t9W9B55nB1O7nweys10EEAhuCBD23HNPV/GVATA8WdLFYAkcAdVWlVtRDEJ0CCtrhSkCCJkFoRWrWQYQMt3RSl0QgmKc7D0+xF4uc+LPLHtZYG6mmD0aYqw8/EZumgggZFbfrA5CFrSbAgQgM578uSmyaPRMMZMZPWQGiwVO2h5AoPXCO9VlEfgecWkOxjO9egfeSaDo5J5F4EOgQBDZRhhZZHarWQwRDekzjLIwsmyKiEFxD8YZdQeMzFURKi5KS8XY2bWRfJCZTTMeRZrj5ZdfLkceeeQKzZogmD2BwvUqm/7EvePxPK7p5j9a6UTgLDud4Z799ttPfve7360AEEBfHVTYLA0x77JpieT5qHZJWRqSf6NUZ5pAOWl+/7rrrqunaU+dOnUFgJBFj0f7BPdoS1EzNMz4JpMBkCn48U7vRZkWZdcL44CCs2A5Gx+tC1HNBfLNCoy4vPma1zQskuUZyMrGqHnesz5HfNhKFgN4HmsV1QYq6/bJeB40pawnfTG/ZmSUd9DOaIg1AbBgLYl+LoYqSLFBfp6kIpMUCehtBloQPIBAYBGhWy93NgsAiiwIHL93+vVcDDzdZu/C2IHQWUeA9xBle8FLVG5esZaMhiyUBCYlyMR78DdPbp4AwHc8IcBCSSeeeOIKAOHVlMXQSM6pybKeTnlx9ixZuHSZjBg2VHqWtcnYcWNl2NAhIm0iXcu6ZUgH/u6RtppIrQ1FltrrfF/rqcmgtjaRdpE2xFp0d8u8F1+Uzu4eGTpouIyduLYMaW+T9rb2Xvavshj6JAH3FwWz5tMsE6TIgsC9bK1cnnmcezMyneO6LZSk5V5Varkha7QFQYNDKmyAHk+28dCsAS4BQOaaxHfW6CDFCiBUAMEDRdwoFUDo4w9vo/Pkg29FVcpWZS+GnrpQ65FF8+bKt8/6tDzXPlkmTxgpixYukDGT3yQffP/B0ta5QGY885yMXmtdGTd2qCztqsnw4SOk++X5skSGyKihbTJvQZeMGzcSWEMeuvNmuex3N8vQIYPlhVnz5ZhPfFZev8FaFUDo6qpbuDwLaJXm2P/oVGUxvEqyGCqAUAGECiA0eIAmVe8kGAXY/Z8DhJ6eugVh4byZ8uNvfU22PeQU2XmrDaR7/tPygRO/JJ8/74vy68t/KWPXmSSL5j4hkzfdWuYvqck79tlTbvv5BTJr7TfJoduPl4tvnSUnHbGvSE9Nnn3yUekePk42XHe8XPC5Y+Q17zlH9t9u/brFgT+VBaGyIERyA5SpAMKrBCAA+epmTdrPoQOlNGpmEBI/06YYHUBhTWM66ELfowOlrIlGRwHreyjMbTdHmonKdHOMzO3apI6TtJcyic2gA7bwf9IQf9vAJs4BNNTuAOvr9E6kGE8rNNS+REtD+uJsKVC8H2vZrAWBtLIuBk3DZlwMdFs0Q0MGRFrXDsY+c+bMei8Guhj0vHWpZc2jNBVb0642FdoTJPnTrpemR7MWBH2PjiUgeKFVh0GK9e/X/ZKwIMyR808/SWYM3Uw2Hj9aZjz+V5m8/eGy9xadcv3DPXL0ofvIsw/eLL+/7SFZOmi0fPDY98rZp54sW+y8u7xm/WHySM8W8qFDd5U2mBDgf5Ca3Hnt9+THty+UL51+skwYhVS8BkDAe3XAlmcCL0tD0lhbYTTvIOVLZ1vx+1dccUVdfiFIUX+fPK/dYNoM7wUAkud1JcVm+JB8Q1OxdTEwQNjSSVdSLENDWiualZWEMl4vBgJcTQ/SKaNh5prE+1AmuJkGZVZ3RG6aiIa6kqJHQ4IYT+5ZHoj2OenBZk1eV1wGKXJNmqFh5I7lejFjrb9tpiGXPd1BfaNjWjhvHnCivh9hsya8zKa+4EVaMdsBFqVSRClErdRByNIco4hNjBebD4vkpTmuyVkMGDOD77wAsFZo6MUgcE1brYOQlT/GHLyxZ5kgOgbB8luW5ogN4AW2FXVzLFsHoYiG0WkK92V1EKL0Mg3ONT1Ad93NEQ6GmvTIyy/Oke+f+wXZcPejZPP2x+Qj598tV1/xDbn36v+SB7u3kCMP2lWefXya/PyK22W9tXpkw603kkuufU7eve1Q+f09L8q/nvhe2WnLTaQm7VLrXiK//dF5cunDY+TbXzpORg7tkDbpkLZ2AIfGDwBCluZYth5HJm/wPi8nHHxGgOCVWo6i/Yt4PspiaDXNMcogWpk0x6hpVDRn0NCrg0BQFAW2Rc/LspXwzLJ1EDRQiVw4XrBkK3UQsnd5hzryvNfNkddazdyJ9jmeO9BpjtlaplkMUQOlKOI0S40jcrJCG5+zIxv+tic3EMQT9ERZZVJV8HwwDn7rUz/f20pt/6JeDEz5ssqNaN/7PIqwJUAoQ0MCC++ZGQ2ztcR9XuMabrCyvRiyLAYwKJ4Xtb4t+66oFwPGDoUNgGD5MKNhNucoI4V7ge/TPFD0rmzvwYLwxz/+sXFihgVhOUD48bfOkjcecors9ob15Mr/OE0eGrmHHLjtMPnZzQ/J23ffRWY9dqc8t2wj2XfLJfL5r18ie3/432Xjub+V7/7mWfnaV06VTSatjShF+cu1P5Xv//ZROfrw/aVj8GDZeIstZNK4sf32bNTBFHMs4ilvL0c8yjWKmjUxzdEDCGXlF5VllNob8W/RWur4BM0DRd0cs2j0KIvBy9wgDT2F08zYy+49zDHqmFrEG9m8PHrQghB1cyxLQ/JA1IsB7/GuFc0ryraLeBTjoBXGA0z4zH7ezN7z6Iuxp+2e2VLSE2Bl05gw4WjwUWUomnaiFCdc965FyhfzWJ3NmoAsARDKjDGjUwQQMlRZRMNWhCXoG3W2y4RltF4ZQGimm6MFWRkNkeYIF8Pxxx+/QhZD1M0Rz8+eGY0/Wy8NSJoFj9laYk0IEBrPa7gDupa+LH+b9mcZv+m2stG6a0vP4hfl97fcKzvvtqPcf/efZc78l2VIR4dsvdNbZdKQRXLpFdfLnoe9V5Y9c788/MwC2WnXnWT0sI462Jh+95/lgUeflUEdHdI+dLi8cfsdZdNJ4+B86P0hQCgrH6I9m82ZwtLKKdyDbo5Rs6bVxfPkm0h+RePIAEJRmmOUmpzJxMiCgPFFY/cAB+cbHeoIEKIOplnqYVlF2mo3x2jORQAhqqSYPW8geb5IRmXrH13D2KtmTVWzpqpZ03L19mpKc6xDBKQoLgfF2OwAq9o6gr8XLVwow1FKdfn3eQ9deJ5bENfwPM+0WwUp9oElup+qNMc+mlRBiq+SIEUwd9WsqaqD4CH3qg5Cn88d+2RNTHNsFiB0diJFrwMeibrVoQIIg9xTM9a4atZUNWvSwXx0FbLd8z9VHQQvi4G+DB1Aof0dMOt4kZL009KEVCaLgWbpKDK3mchRjJuLORBZDPp5RVkMqBBpo+kxFh27oOlRlMXA4LtmaUjaZ5G5UUQ3xj1QWQwMXtKbiGtSNouB9NdBipoeEOb44dj1NRZKQi8GXT0OYynKYrAnQZq/sWa2qiTpznHoaGmaAwc6i0EHKXoAwatgt6SzU4YNGSyNsIUVAYJHQ1oQbEAc5rwyWQxegS36wstkMUA+IQZhVWcxFPFhMxYEj4Yrk8XgPU/HyVg+xByiQkl0I9h7KL8ino8Cc/EubaUjj+J5ugqvl3WQWWG8Oevy4s1mgtCN4MlKXLPF7VoBCLyHcy5TVI52GJvFgPnxeV4RLdwX6WbyaFS1M3QxrCkAgX66ZgACN6xNLflnBgigX0TDjEkZ0T0QAAEMTKW9OgEC3qVN6uCDVzNAsL0YrIvBAwg6g0QLUroYigCCBiKrAiCQf7UAo5DFu700xzUNIERpjt5BC3NrFSAwGt0LXrPXNA3XBICgM+CsQo8OUxqoWj4sAggEMRr8RIcpCwQtYPLSHCNdtCYDBE1DGgMGFCBkdRB0RHd0+rWfM4LZ+kF5qrB+UBLfAwhcsMyCYK0BfB7HTmGpN1eRBUFnMWjGarUOQpEFwdKQtCpLQw8gkIZZHQRrDSCtuJYUlpqGA2FB0MxNa0VUB+F///d/V+jmqC0InoDVEed6HYnAvZMAx2EjprkmA21ByAACxsLUXj1+m2JqXQytAgQbnxCdEmmFidw03ulXA/41DSBoPmzWgmCVW6sAwZ74NZ2yMswZQFjVdRB4+rUp8ppHI+vCygCEqB4H97k9kPIUbltwgz8HCiBEspKWgzIWBKvsm7Eg2HtAd2Yx1K2Ltt2zTvniQmrBrk2SRByasFaQUrnpCeN5OotBC2dGgdv3aMXtCV8tzPkuRqF73Rx5yrTR6LyH1+3Y8H8bpaq/Q3OrFrKaCTivaM4eosNnNtqXNETBGHtizmjIk32kwOx6kR6gExgOfcL5o9dEWwk0DTl2vSYUYh7f4JrOCSc9NA1xH/6v79dztteQ5njJJZfIscce67oYUMTFrqkGqhaAab73rFyWhvoEAf7QEd16Xp7lxqMVFSx+77777nLrrbf28gDHqnPCMxrqfcbnct9b+pKulh70x0aA1OPdjIYcR0QPpkhrPsQ911xzTb1ZE9Ic9VzwPVrU7D38v54T/yYohsvQKnTyi5UTzdDQk4nM3PGKvWnetLTnXrN8yHFo2uuxwWSti+KRRqSTluOcYys0xHPhxmObdasfuJcjveLtc47HZluwmyPcIN6+9A4PeFZEQ/KolZX4PtYLwMGCYm29jXSH5WurXz2eBM+zXotdG/19/U5mv3g86s2Z88XcIOddgGCZJmIcDqrIguDFIOBe7VOxk8KEvJxVmkC9wJDMghC1e8Z7otOvtSBQUON3ZAnAtaj1Ld4Vmc0giEADzFkre/wdWWEyGpJJvWh0nnCy056X5oSxW4BAmtgWppyDt17cDF7BI/IBCyV5yD2KQdAndwuYipo1ASDYe/B/nmIsPUDDoiDFKD/aWhBIQ3va08ABf3tuGtyDGATd7pk0BM/TgmCVSkZD7j2tECk4omsaFOt34T4tH6zA9Gho32WfhzF4AAFrgjRHAOZmKimS7np/WcHMIEWCYi2Yo71MvinjYsB7CRC86nY6RsmupWcloMz2rAucdxmAoHk0859rxafHqSspahrqw1k0L8uHlF8efbNCSa3QUMvsCBRHQYpRXEhmNbMATL/T05fUD5GOLbIg2G65pQECBxiZdawAsCi7GReDh8yJGq1g9lKtKEhbdTE0CxA0ymvVxWALLJG+Ax2kGLlpKDgsk3JurboYPIDAd2nlpmm4Ol0MEUDAeHSVN6vAPBcD51UmSJECFusy0C6GLEgxcjFEAHdVxSB4wWYZyCL/elYu0PKV4GLwFFik3MCHuvaHpyy9QLRMgVF5eIoKNMxKLXuxHwQ+XnCzd5gi2MJvW2qZFirtRrB6IHIxZDQsikGIaOgdBLReaTaLQcvRsm4a8rx3sLCHQdKKa6IPgpp3igCCx6PaxVB/j3Ux2F4MRBWYgPfAIgsCzWmW6bM+AhVAaKTUZRYEXGuFhp5grgDC2Dq9K4DQXee5VmMQPGWUCfroNPVqBQiZ/7wCCH37T1vvPNeDp4twTwUQ+suwNQIgFKU5DhRAAAPQdO4hXIwDSM9aHXBf2TRHvotmfyprouLs9Os1a+L9/9cWBMyLm89DxQNtQaDZf3UEKTJjwlNuaNYUBSmWtSBENNRmWPKNBcWvBAuC9kFb118kmIvSHKNUUS8CP9rneg+2YkGwFp/otKdPvs26GDS45Am3KEXPnpjLAgTyYRRg5+1zTcNWmjVFNFwVFoQow+H/OkiRfOPVQYis2fycFh+dKsprrVoQrItM71lYurWc57XMTVPKgsDNYhG9NhVbM5HeYJ5/j9ej5hPaPG79jxog6Pfg76w/AgGC14HR84XTakJww3fRNBbdg+9lZWd1Tq2loRcvEI2jiIYUsjY4TFslytQQx30M2NJBihxHRHsdF1CGhlkvBtKea8Hneu/iNQQpXnzxxb3dHDXvRI1kOGcvFkYLX8uHGc+Df7NmTV6VQo/ntYnWxiBoEKtdDHqcEQ31PrfzyvaeBgj6PozTWhh5PaMh+Vf7tPVzo2ZN7MUQxSBo+pKGDOSysoZ7T3dz1GOI9jKtft7+ymhYVF48kg82yNoCnMhk7ZVa5tgjnreuRK0f8LcXu4TPs2ZNPOxpeZjtvYyG2oJg+ZeHH2+MmQ6LZBsBgsej0fMingfvcV5leJ486sl56kSv1kHGo9gPaS8G3UaVm0hvWCuYiwBCNPgIIBQpNxvIQUbINkrWi2FVAARdKMnbsB4NIwGA+Uabr1UaMnjJU27RerUCEDyFw7lngC4DCJFgzhRz1KwJ8896MUTKI1Nu2XrhPq9ZEwWiJ8y9zdwsQMBYPFAc0bAIIGAsngBrBSBQgHmgqCxAoIBtFSDYg4CWKbZZk+Vfu5cz4Ztd02mOZZVbxDeRrMTzI4CAe6KDBS0+HB/nnvG8t8dsDAIzGaysjIBKJL8gyyOezwBCBhIjvZJ1c2wFINj4H8sDFhRrgEuLpQVZNo1Ug/OIN/B5WgdB9+3WzE/G8U4W1k+kB4K/PXROM6GdFE1n0TNpUvOUW4S+MoBgGQDvp8ApOwaMyTZr0jSMxg7argk0jNaYSHUgmzVFtMC7gGAh9Kg8yD/6hGPXn3zk8RqaNTHNEelW+kd3c9SfF/FhJDiK1hLK1FZzxJgjenAc3skH7+rXzRFlk6UBKJd2dUlPd48MHTZUpIZqiY1uj+iytKy7WzoGtePMJzWpCXpAttdEunEjyisOape2Hty2/Hm4racmPfXU0kH1Hg76JztNtSJ8sznjvV43R3yumzVpuZIBjmy9MHbL81owR/Im20fRNQAEPM8DTEVWjlbGEXVzBK0iS0DGo5Gcx+fYY5rnNbCI3tUKDaEQCRCsXsloWMQDHn2hROEq8K5lsq2Vfe7xvKZhK3oq0+e0INR1oQ1SjPLq8UAPqRIteQxS5GJA5zUr0HmK8VBsZl7KLBmei4EMlEXgRyeLlXUxeOCGi2zp0QoNMytMRsPsXZ4FgTS0JwvOLzuRZjTMzK3RffoUQ5DHcSCLQccgaPqzDKylexENQavIJRCdtDHGqA6CdyqiooyeB7r3dzE0Ykyg6Ls7l0pPd02GDh8qbYjfqXddACBAiibGPgRafzkp2oEhROogoEcGtbfV/98ACXWEXwcOtR5ca5e2tvbGZ8t/IgsCLpc9TTUwSiPeqIy5Fd9nmiPbPWslEZ06iyygRS4GD6hq4av5Ktt7uvaH5cXo9NuqtQJjLuNiaGaf45mtuBg8K4HmG6tX9CHB0ilLcyyiYTSOzMXgtXuOxldEw1Z4HrTJgA8tCGVoSBeDWwcBDKxdDM0I+kwAROYqPJd5nQMBEPAMGyypNy42ORaAVeX0NU/hcLFWN0DwAizJWN7ma4WGkVDBXG26pabTQLkY+MwMIDQTg2AFc2bmhIsB7Z7Ri8FaEDKAQLTvgQcPFOF7NlhSjxNjzGIQPH9hBrI0QKhbvepdSmvy8ryZ8h9nnCrX3zdLRgzplkXdQ+WUr1wg79plE5HaIOlZtkwGD26X7lp7w3oA60K9mFBNerrbpL1jmdRkaB0hzH74L3LGl78uM2bOlclverecc+bJsvbQdmk3AAHC0gNMZQECrXeRQsc4i2IQCBBI+0yRlgXFfGakODJgmY1joAECxpm58coABIK2aE0yHsW9RTEIHsjK9l7mYsA1uNXKgiwPIOAZsCDZ2g8Yb+ZiyEz70dhXBUDI9h4POJ6lhS6G+qE1S3PUAEFbEDTxV0UWA08PXjUsXGu2WRMZ2xZK0kRpttQyn4XfRVkMUQxCVFxlVdRBiGiIuYNxmm3WpAWiLpSkaZjVksD9XpGfMnUQIkCn+dAqZn0NFgQdpKhdFkXNmmzuNE/1ZesgEO2vijoIKJREkyNcBgvmzZKLv3mObHPIx2WnrdaXztkPy4kfPVfO+d558tz90+SRGbNl9Nix8trNNpQXF3bL69+wmTx99+3ywvD1ZYeNRstN98+S/Xffpm4+uOP3v5OOSZvLDq/bSM791AnyhiPOkgO226BhRVh+2s+yGBikqC2CRTTUCscDZ1GhpFXRrClyq0V7GWPXSkCPH59TjurPQY+s1HJGQwJV+zwNRjwaDkQWgwYOeEdk8bHNmriftQKz428mi8Heo2MQvOeBBzUQIB8SjFh9o0GWlhkaIDSjiygr8TuSG+T5KKgUoBhVQu2PBrh2nZvJYvCAVBikiEFW7Z6rds/eRgdjg+F4AtcAwYtuJiLGb6/aWDMAAadS3K83p47A15sFGwU/nmuqqJIiSx9boRIJMOwTC7K0sMTfUSXQZgECn0eztFf5EnTfcccdZdq0afW510FCW48seGGOfO+s02Tw6/aTN244XubNfVzuuHeuvO/gHeQnv5wmhx70Nplxz/Xy1LwOWSxD5fhjD5fvfvYjMvQNe8t+W68lv3x8mJxx3AHSszw+Ye6MR+TXN9wg9977lHzws1+Q16w3qhcg4L2wiuDU5llAdBaDpm9GQ32a8pRblObYSiVFrnEU3V61e67aPTdbKIl71uMpghFPbvDw4MlKyjjGjFDu8kCQAQR9eLd7L3KR4vMwSLECCI3loFD2UDEWqIwFQSs3HT2ulZu2IFglRQbwlDZOAXQJWQage8crE2yZg0yXvasCCH0+9zUJIEyZMkVQ54FAigDhu1/9pLRv+XbZtOM5+Y9L/i7f+f45MufOK+XepZvKcYdMlecevVMuvfJWGTlykLx1n93kOxf+VvbeZT157JmXZef9D5S3bb9lo116m8hLc56Tu+69V/58622y66Efkj233Ujal1sQKoDQP2STFoSsDoLnislcDJl8YLCslRtYF+8alVjUrImWR88ikYHiIgsCy5n3AtmklDmtnGVpGJUXpyVgVVdSrABCR8cKvp3ohEATV5S+Fyk3KCnc691HE10zZh0qYJrv8H/GIGTm8Qog+KbCCiCsmQBhvfXWE2Rp1P2FyoLwkwu+Klsd/HHZ9bUT5NwPvksmvO9C2aF2j1z92CD52BHvkmf/foP8/ObZ8q6t2+WHv7pNNph6gmzX9he58LoZcu6XT5UtNlxHenpelqsvv1LWf90OssNWm8m1F31Rnp9ygPzbQbtUFoSurn5FaChvKoCwghW8NwbBnn4j600FEFak4RphQeDJkgFfRJFFgVJRBGgUAAQGYLqXNiETgREgWDJlUcBeQAafDeWGv71gkyiQJwteyoJ/YJIEgLEnfu0TtPOKImwJVmg61/c1Q0MqDXtfFCjjRcSShqA9LCdZXr23Xrg/cll4Jyk8A+/B2KOGUlEqGO7xTMVz586Vyy67TI488sh+QYoYG8xpiNi1fEizX7M54Zy7xze9p3v1Po8HvH2U8Tzetdlmm8lTTz1Vt3o1Tmcii+bNk6t+9l/yur2PkjduPkHaX3hEPvP1n8nJn/iAXPr9i2SBjJEl85+Xg4//lLxxzIty5LGfk9N+eIl03vML+e1fZsuHTzpexq09XNpqg+TRaX+Qiy6+RkYOa5cFncPkE5/5jGw4fkRvFgMBONxBlt/wf/K25yqIAj15SNB8o5ULZIcNNsX8f/WrXwkyo6ZOndqPvFQ4ZfkG46DP2HM/QZ7owwblVysBdjj9Yr6RayorembvwVjJN54cwnWv/gddO2V5PgsQBk2wx3A486yjWe2PsnUQKOe9hleebCtaL22FsfsVch7rX6bwUsaHpH0Ux4GgSMS2WRrSUmz3F60mrRRKopyv72cvzZHEiACCHoy2INB8pAlPoW0npiPwtRmeYMRaEEhAG+TDDcqgFi/QZHWXWi4qlGTpuzJBighcsQFgWjhEgZ5euWoKc08w41oUpGhjELgmNvBGC1MvboF0wWbA+JoBdOQdHYOg+RB/wwTPLAbkY2t+YytaKxSjkyDmoDe6J/TwThsMRbDXbAyCpmEUmIs1mThxYj0jqPHTyEZgmmN3T02GDR0mtXqWAtIURQa11WT+Swtl2JhRMgiAqgEr6umMtW5EHXRLW3uHIL9B2hpVEnq6umTR4m4ZOnKwDG0ftJzf+gcpMovBU6TWVFxEQy9IkfTAbwS9AQjwh7LBpjnq61FgLhVHFoPQTPVQLSs1QLCuPy+AkSAL3yXQ0mPPghT5PM8lYK9pGoJnJkyY0I+G+hCj9wjleURDAoRIudlmTXypPdTpd2bxPxENdSVFS4+IhgQBGHuzQYo8WEA+ecHeVhdpukc0JA9nlS+9DEMLfPS8owSCokBaHppKAQQqZoukNOH1NU44OtV5aTYUorjXQ7E8WXhE1FGvHtrDM8ukOWaCA2hf19PW70PAFgGCRXWR5QFMg+9GRTdaoaHnSyR9owCVzJKBawzY8nggOp1RWdp7itIcQQvb7hnPyCpfRu9imuPxxx/fr2ALvh+lYFFYRqf6LNgoGgeVmxeNHPFvZkHAPeuss04/gFCTZdJW66gXSqp1d8uQ4cOkrdbTAAk9qF9Qk56uZdI+ZDD+rBdDqhdHAoDA/7n38H+cIOqYA9eWSa1nsLQPqkkbaiEshxa4yv4jWZ0UuxeiOA7yaCRvcN0W+SHgYBaDTXOkQIzSMCM3KHnetnvO+LCIb6J5MQbBkyuZjM3iDDwLDfch3FIAl1ZmR9aPbL0IzpvJYrCHS++EizG1sh8glzFOT84X0dACBNIlkjdZ7Y9s7JHcyPY5eZ6gWNMwk9kECF76fGZFBkBgYauW0hw1U2UDjMw63ibnM7UFwRMqGVCJmK1sL4YicJMBBDBOM2mOZWgYAYSBLrVcBBBs2VnOIXPTtAoQIgvCygCEqA6C7yrPQwAAFC9JREFUrh7KOWWCHtciC0gmLMG7A9GLQdMdAAFR/X0/0OiNuiB4H1xCGG/v6Uxq0tXZJUOGDK5/T/9ke6+7p7teTdEDAauiUFIkwDBerw4Cxs5Sy3vttVc/038RQMhcpK0USsqUbCS/Wim1rE/8FoDj/wQP3jW43bQFoQ4DkwJVRTwfyagMhHtuYY41upYp0ldyLwbPrabXzeN5rnEEcCOgkvEN6FtlMdRPTI0fLyOBTOid6kHcKouhIUy0orLuAAob/K7SHBuUghBo1sWgBbZ1MfAaLQgECBpQ69NUP4CwnH896wyFVLMBwlz/Ks2xT5RHrimuv7eWuFZlMSiIqzIc6mZuVZQLPBrRsMpi6A/4qzTH5agXrOXFIFCQlolBwD0VQBi0wqGjymJYM7MYtAWhAghX1dN+o26OHoiNIul5OqvqIFR1EKo6CLVavXQk0Bn9HPrUoYOG9OfaxGGRXpGZnkGKeIYN5IliEPQ4tAYrMgfbSooEDgQW0enXM5tlpjY8T7d7tic3mh7tnBn5bmnIUwd+e/69VmnomTmz9SJ9rYuBVgTP10m/MH57kdSZfxQmLtzjFUrSZlPLN6SrdU01083R8nURT0Xj93iUz8Zv282RNPTM0kU0xD2TJk0SzM/yVOhiWH46y8o6R31QvLXUPO/dF5mK8ayIhp6pW69P5GK4+uqr6wBh991372fh4vOiFueReRzj05UUbRCdblWsr4EHIhpGsUHNlFr2ZGzEN5Qd1n1CfoPsQFE8K0e9sWf7nO8pcjHYYmR2f0WyMnIze26hZnoxRHrKrhfH45npcY3NmjzraCtZLJFu4/roSorWokLae7o5ywSJMmbAi24vBkwMAVSesKTStteyOANMGj9ehHDkU6FQ9O7xBAcJmPnbtLDUGwKEJQPwc84PY/cUtnePfqbt5qivkXHWVBpma4lrUdlZDXwIvkCnbP3tPZpOWbOmiIb6XZa+CMg666yz5DWvec0KaZo4IXqpm3yeJ1DwWTR+ClO9ifV4MDcdRMXvc39pPrS8aoU5/n/yySfLBRdc0E/QE7jjmVE7Zd5gx5m9M9oTLOnqBUNx7t577Jzt3L178BmEM+J8LD3uuece2W+//eQd73hH/ZIGZlTMze5zKr5meV4/l+/y5GgEHrIYhKJ96R0eMlkJGuo6NHbPRrLXxoVo+uIZVpmTJlFLddJCv5/3RPuc8/IAWCTnuZbePUXXIr3idXMkPaL1KgK+mh52Q0cdTPWeLKtXPP2G5xEg1Nc068WAB3BSPHVaJsiiQ3ky9tCZBggWEeGdHrrBYnlCD595pkIKX+tiIEPitxdPgPs4di/lrygGAQqA95GGeBeD+TwagkZR7QQiRCswIxrSRRIhxMinTcb20n14mtL556RvFrCH76xsLwZNw6JSy56whFXn+uuvr7cJtrTHZiBAsPQtOgl6J9IIFBH4QuF4UdaeUOHeA+9EGS5YK+4XrgcBgl5nPbdI6PEU450GsxMO9hdoUSaHnzwa5cF74IHzYxqWBRR4Jtpfb7755r0WBNAHn0fpZc24GHQWg+Z5L98e76IitbxG/7m13uCZUS8Gyg1PPnBezY5D84fXi4F840X0ezSkHPVkpVZwRWmOHrCMsjMyGka9GDIaRrqDc7MymzRksyZbtI8HyLI05P6K0hy1tVjTNtKx1G14nqVvxqOge9iLAS+zZie8KNvMRZGSUYRlFIGfKbdWxoHxZ+kvXlQ8BbMnKPm8KM1xVWQxRAqiFRpyQ5RN+QJvlI3oxj0WIJC5i9IcBzKLAePQNKTgxtiY5mgVEjcR+Vffg+8SFFlQod+l7+E+ajZIkYKIPO9VD/XM93wnA7bY2U6PRdM+Auf2RKgFs76GcdKt5tUu0ZkxzdJQn7QsDfFu24uBNNdWArsukTtjoDN3eLiI0mMx1qjUMlN77ekxGiP3ctliOHi+TTMnv2Xm8VYyd/CuyIJQ5H6K3GARDYuyGMAT0SEsymSJMrS8bo48wWeH5oiGmW4jz+vaH+QRDRAs34AeHnjMdACeVzVrqrIY3I6Y2UnglRykCEGEHw+d605znlKxRX6o6L18ZioHghHvBNksQOAJxgMI0elGC4h/xiwGWlLsOlIgVkGKDQ4BPapeDH20yKzPmQWBDcr0vossErQgenID92eHKVxfI0otQxhV3RyrLAbPnF0BhDUzi8E7IVirGU82VA6Zm4aWFGuWpAXBO/2uKWmOFUDoU3r4KzLTVwChby9nCh00rABCZ2cNRILJpAIIjQ3GU1tkkiqKQdCFkrSJtCgGwYvVyE71VTfHPuxOM3MUSV9ZEBpCEXu9Agj56ZFcBQVbpTlWaY5VmqOT5ohNQuWWxQXQP8bvaoWoIyybCbCj7xHv9pRl5pvMzEQ2zVEH61ifkPb92hgEXov8SBi39sdqGmb+wiIaRvQoClL0fMIZDbMgRVzTaY6ahta/q2lIczuFLq81k+ZIk7DmqSjNUQMETXea70hDuybaP6p5lDxPPrT+cy8QLeJfzhm/bSXFyPer72GAsDVlRv5ifE+nfNk5a7+qnTMtCB4NeUK3z8PhAuZWL6VOB182S8OMR/FuBL3ZXgzZPbwWpaRlpZaL0hwtnfAurksZGkZBivqEC/pZGjLuwnOr2Gt6z9o0R5rAo3s4L6+BGgNzy5Ra5vPs/iKI9fhGH950EDj3Bd1qjLvRMieLhWEwchSc7fWtiYIU8U6ri/Re9uInSHu9v/Rex986zZF8ldEQ32EshNXNWp97PJpmMbDsLB6qJ6YHrxlNCyn9ORdTM7WeNDe5vYf/t/5bMo4ORNLP8yKzOYcs/SW6j0xviUvCR9GmuuuWpiEVFe/T8yaD2u+3SkPSyqMhx5FFxev7OCYCBJteFj0P9zEyV288Ptuml+q1hLDE+IjcIzCiP+ffjOq3ylQrPn2NdQksH5L2XsoXhUCzWQx6XfE+1jnX49BKhZ/zPvKH/lwLIitMyKO4j81/IhqSV/TvsjTMUnvt2Iv2LMdh14u0wG8rLPlM712afzXPkw9pofP2Cq5BdpDnm6Eh+Qbv8mRbJL+g3EB3z4WT0dDjG9Ij4ilct2mOGQ2j55G2mczGvbr2h6c78B0r+0inMjSETMF9LC+ueU0fVu1+KcujGCsBgpWjuEaA4O1LuyZ63tk4ECvFHi6e7vBomPFG9C58ziBFvGelezG0msUQ1UHQSsVuWiIfTzBHEZsgXJbFEPVVKIoO9ToN4l26UJJlkCgiNotSztB5RkPvZEHh5Z1IqXCi0xToEWUxRBkJXMsopiFq94w0tma7OWrhBX7xFDqtC944oghrfRL0+DCKpM7ehWfaQkkcf9bgJVuvKPo6i+huZb2yvVfUi8HjKdI3AlnRnEGvqFBSxPN41+rOYojmFfHNyvRiiIrhZFY6r1lexvMZDTOex3pFDdGyLIbIOoY1jmhYdBDM+DDbR56s97IY9F720hwzGmayMuJ5fJ7pqSLdHBUOG9A0x2iROfioOEWWosfTQxmAEBGDAAHP9AritJLmmKXorYo0x0jxDXSzpozZsM5lmzVlTL8q0hxXF0BoVViCHuAPVpXTADICj5liju7BczNhWQQQvD27MgChrAIDfaOTdgYQtJVT07YIIETKIQPFEe2LgGUEfFYGIETWTM86SrpEACGiexHPR3uvFYDAw0qUKhrRsCjNMXMltZLmSLeaPQgWpW9GVqKIf1cnQABtq2ZNVZpjlea4fFdXaY594g0KkeC8ymJo+JKrIMUqSLEKUqyyGPqBQJ6WgIq9whpVFsMrq5tjVQdBtXuushh69zpPxZ45mKfYCiBUAKECCCqLoWwlxcycwkAILwBodboYsMkhDLwSt5G5tdUYBPiYEdRUxu+eVXPLxjHQLoaBrir3SnAxRP7RVeGPBT1sFoP2W0amx8ikWuRiAO+U4flsvVaniyF71ys9BiFay6z/SBajxGwaa+bOXAL47kDHILxSXQzZPqerrmwMwqpwMUSyfqBjEFIXA16GLAZ8SSt1HaVaj2w0/bmj9JYouhWf23KpZPCiiFiCDrshvM/5LIAAG4PAedhIT36ejSOLDmUMgpf9wDFaGpLeHpBaFTSMxu+Ng+/HNdu4hvOwtNc0pMnarldGQwpLKkyP3zIa2mvZWjJI0d6D8Ua8xvgaj++z9cJ9XjdHZnxEGRNleJ50ZgwCS4I3Q0OMnetVhh4MUox8xtG8Ih7Q47CxBJiH17gmuof3Z+/Cd6IsBvK8x2+Yrycri2iId9n3aZ73Yq/K8kbEv5xHdkBrZb0iGuLzaI9F8rBo70XyUvN8WRp6a5Lt8yxIMZPnHh9qeenxIcZBnvdkm86EWFndjPGlQYpol0piaeXA4BU7gSILAp9l72sli4E+Ui8oJwtSjCwImJ9X0wCfc5G9zRJlPmAhdRaDXjhci8YYoUCOA/d6gWOt0BDziqKAW7EgRDTkJsd1T5FmNNRZDJaGUbYK5kU6eWAkouHqzGKILAigUVT1LjvVZzyvA7bK0JDKLQoQ9kBAURZDBBwiPszmnFkQorHj8+ik3QrPZ3uZezYL9PTo0WqQYlYtMZpzqxaE6Hllshg0LxZZRrIgRe/aqshiKNOLgXKnaF4rm7mjaUjaRwXiogDhKEukECBoFwOFBJUKJ6aFBxZFF5LgNW5Kmp6sRUIjWIt6uNGbCZQiiKGwtPfgelYoycYT8HlU2lRu/Jxmp6hZE06Itpsj7qEi1WZkzhtj1xG2K0tDmmi9qF3MC9ej5j+4x4u7wH1RoaSo2BSZ16v9kMVxACBgDF6hJOsSIq0YZ8Cxa56KrmFNokJJVNrcYJZHMTevtr8Wlpbn8cyoUFJU0pVr6a1XVJkT/MZmTXQxaJ6KaEje8PZ5dA1z0gDBAgtdrEVfw7ywLh4NNUCwNORpqmyhJPsu7mdb1EaDSwYp6m6ORXs5k5UZDZvp5miVgH6Xx2tU6B4Nm+3mSDpRfmm5F8lKC9BtN0cqOHu41Dyqwa/de9pNY/ka12yhJAI6ykNLD48HtF7xYhAgo8C7WRM16qJmaEieb7abI2loD5d6bmzDzs+a0eegRdWsqcpiqLIYlkuxKouhT5zTQtcssOSdVS+GPhpSaUfA0oJz3gmhDLpD6XggK1NuXvtoPDezLlTNmhqU1wcBfbgsAgisHupV54wAB9/lxTRk1nGMs2rWtHynlBVSzVgQgM7xw9NUkTWApzZs1CqLobEwVbOmqllTpNwqgFABBE9Wkiq6pTo+sxYEz+qrrQueBcEL6NVWs7Igy2ayVABhVH35+lVShACoujlWzZqiDAxswFGjGoyjQVYWx4HveSi7GRcDzJm43zOPWwFQ5IvDmKt2z1WzJm3+jk6P/E5VB6HvlB2dfrUrOQpWrwBCnioKKr9iLAgIUuQPhTAH7/l3o4YQzcQgwI+Id2gFQF+MNXMy+If+J30PT7hQAJ6ZiEGKXk31VRWDQH+h9asNdAyCR0MdKGXpwXXxGpAwuEZvdO2rbRYg8B7rVysCFeQ7mO90qeVmaKgBAk8pWtDjb8u/jEFAbwTNh/huZCrGPRSWttUyact3WR7l+1hTXQOtVmIQIhMynqtPU3iv9odmMQj4rrfPW4lB0ArY7vOMhuRfHWClecdrNOTFLWjfbxSDgHllFfZYXtzS0AavNePfzWhIFwN7Z5B3SSfrYiAfRnEG2T7Hs+fOnSsTJ07slfV6n3uywQMIep/r/aVBGP5mDALBfjMxCJEFIYrxwLNtYG4zNMR3WolByJo12Xi4ZviQPF8Ug2BpSP61cQaYVxQfmMXJpDEIeBmEJQdBAtPkXhYg6HQPGxiC4DBPMEcnQW4IL5uCzGt9cRTAUZojiegF3nhZDFzorJsjfVMUyFpJUKB7CkwHIFmTGr5vA5SKlFtEJ09wkE6ZsMSc8U83a4roQf7xopu1IIp6MURpjnqdLQ31uzz+pYC3fIgAOwSheQABNPSAaqbccE8kLDFGBDfpZk3NCGYdlKVBRRSJTL7GfTbNEe/Tyk3TI9vn+pqlIQO2PF94xFPRntX7PIr29gI9M1BBnvcCyjKeZ2CuF+ip97LmRb7Lk5WZYGaQogc6I2XZKg1xn9cRE/PweIprEoEsT1ZqkID1ouVRy0O+i99tRlZmMiBKc+Q9XlwI18vb5xhXZB2FjEIsgebRaC/rPQsaenxIGmdWGJZot/pByy59jUDFysqMR7Em4EXI+fpzOzs7a7gBiq0IIIAYVvgWWRA8dK4ZNAMjnhnZ84NmGwXPYBaD7sXAxYwsCBFAwPOyPgK2y5dlejCHnTNP7h4K9JQsGU53xPQEvUd7CilPOXvpOaQTxoF5DwRAKKKhDtiywpcb1tIwAwgZDXU3R6v4IuUBGnoR+BSwFiCQhvhtezG0ChAw1mbSHMnz1goD4ZbtPStUMoAQtXumgPUqFWY05Ls84Yt52DoIGlR4VocIIOBZWZqjFpaWD7Wg13RsFiBY2ZbVQdBZTpZHIyuSR0PKDTzD1kEoUm6UsTrAjvOO9hcVPw+DEZCiRaEZgKBBlqUh5by1wpAPywR6klYRQAAoxnsigBDFNHgAAfPQFjANrvi3zgTR89b86+lmLyNJ86inY1OA4KU5RqYxLQCsctPIzJ7OcG11pDmS6csEKWphg3G3kuYIJepZECKz5OpMc/QAggYBes4W+Q6kiyGLQchcDJl5nJYWz0JDpW0FrK6k6Alf79QBGmLNbKored6+i/TFfQAkA+ViKEpzxPs8gFDkYrDuMQIfWjIsnYrSHD3BHAGEImWPsdgia7inVRfDqkpzzLIYPEvLQKc5gk4WPJAPcc1zMZCOEcjK3DRWbmgl10qaY1GQokfDyMXQDEAYiCBFDbL08/QBwaMhaNdMDIJO7SWown342+obzLkZF4MHEHSzpv8P4BqgZ6sCXLIAAAAASUVORK5CYII=;" vertex="1" parent="1">
                    <mxGeometry width="1167.89" height="797.31" as="geometry"/>
                </mxCell>
            </root>
        </mxGraphModel>
    </diagram>
</mxfile>